<svg xmlns="http://www.w3.org/2000/svg" xmlns:xlink="http://www.w3.org/1999/xlink" width="192" zoomAndPan="magnify" viewBox="0 0 144 143.999998" height="192" preserveAspectRatio="xMidYMid meet" version="1.0"><defs><g/><clipPath id="id1"><path d="M 12 41 L 36 41 L 36 66 L 12 66 Z M 12 41 " clip-rule="nonzero"/></clipPath><clipPath id="id2"><path d="M 10.621094 44.871094 L 30.949219 39.324219 L 37.351562 62.777344 L 17.023438 68.328125 Z M 10.621094 44.871094 " clip-rule="nonzero"/></clipPath><clipPath id="id3"><path d="M 30.9375 39.324219 L 10.609375 44.875 L 17.011719 68.328125 L 37.339844 62.78125 Z M 30.9375 39.324219 " clip-rule="nonzero"/></clipPath><clipPath id="id4"><path d="M 30.9375 39.324219 L 10.609375 44.875 L 17.011719 68.328125 L 37.339844 62.78125 Z M 30.9375 39.324219 " clip-rule="nonzero"/></clipPath><clipPath id="id5"><path d="M 59 41 L 83 41 L 83 66 L 59 66 Z M 59 41 " clip-rule="nonzero"/></clipPath><clipPath id="id6"><path d="M 57.378906 44.871094 L 77.707031 39.324219 L 84.109375 62.777344 L 63.78125 68.328125 Z M 57.378906 44.871094 " clip-rule="nonzero"/></clipPath><clipPath id="id7"><path d="M 77.695312 39.324219 L 57.367188 44.875 L 63.769531 68.328125 L 84.097656 62.78125 Z M 77.695312 39.324219 " clip-rule="nonzero"/></clipPath><clipPath id="id8"><path d="M 77.695312 39.324219 L 57.367188 44.875 L 63.769531 68.328125 L 84.097656 62.78125 Z M 77.695312 39.324219 " clip-rule="nonzero"/></clipPath></defs><g clip-path="url(#id1)"><g clip-path="url(#id2)"><g clip-path="url(#id3)"><g clip-path="url(#id4)"><path fill="#000000" d="M 17.035156 46.367188 C 17.15625 44.5 19.550781 44.601562 20.796875 44.011719 C 21.832031 43.527344 22.589844 42.464844 23.59375 41.894531 C 25.496094 40.808594 28.714844 41 30.351562 42.453125 C 32.019531 43.933594 32.839844 46.472656 32.914062 48.640625 C 32.941406 49.433594 32.710938 50.214844 32.730469 51.015625 C 32.769531 52.492188 33.117188 54.308594 33.578125 55.714844 C 34.007812 57.015625 36.199219 58.6875 35.75 60.144531 C 35.484375 61 34.574219 61.652344 33.917969 62.207031 C 32.140625 63.707031 30.039062 64.617188 27.820312 65.222656 C 26.996094 65.445312 25.371094 65.609375 24.5625 65.246094 C 24.136719 65.054688 24.050781 64.417969 23.890625 64.03125 C 23.472656 63.015625 23.109375 61.710938 22.3125 60.929688 C 20.328125 58.976562 18.035156 57.324219 15.925781 55.507812 C 14.964844 54.683594 13.703125 53.789062 13.082031 52.65625 C 12.4375 51.476562 12.011719 49.453125 12.703125 48.230469 C 13.519531 46.796875 15.300781 46.355469 16.820312 46.382812 M 21.726562 43.96875 C 23.570312 44.03125 25.445312 46.28125 25.902344 47.945312 C 26.070312 48.476562 26.527344 49.402344 26.050781 49.859375 C 25.773438 47.875 24.605469 45.113281 22.488281 44.425781 C 21.03125 43.953125 18.179688 44.585938 17.460938 46.074219 C 17.015625 46.996094 17.328125 48.171875 17.695312 49.070312 C 18.296875 50.535156 19.863281 51.179688 20.8125 52.3125 C 19.640625 52.304688 17.726562 50.234375 17.371094 49.160156 C 17.015625 48.078125 17.230469 46.796875 15.75 46.804688 C 12.785156 46.820312 12.496094 49.605469 13.195312 51.746094 C 13.535156 52.523438 14.320312 53.609375 14.957031 54.191406 C 16.382812 55.492188 17.832031 56.929688 19.453125 57.988281 C 19.96875 58.324219 21.675781 59.941406 22.167969 58.863281 C 22.335938 58.496094 21.898438 58.164062 21.664062 57.941406 C 20.863281 57.175781 20.003906 56.511719 19.214844 55.726562 C 20.429688 55.957031 21.144531 57.644531 22.460938 58.003906 C 23.148438 58.191406 24.1875 57.351562 24.117188 56.621094 C 24.042969 55.875 23.34375 55.050781 22.832031 54.554688 C 23.769531 54.914062 23.871094 56.058594 24.683594 56.398438 C 25.109375 56.574219 25.695312 56.195312 26.046875 56 C 26.429688 55.785156 27.046875 55.566406 27.253906 55.160156 C 27.40625 54.855469 27.203125 54.425781 27.121094 54.128906 C 26.9375 53.453125 26.84375 52.761719 26.839844 52.0625 C 26.839844 52.0625 27.242188 54.304688 27.835938 54.738281 C 28.402344 55.152344 30.082031 54.515625 30.050781 53.882812 L 29.6875 51.84375 C 30.085938 52.40625 30.070312 53.136719 30.464844 53.679688 C 30.703125 54.003906 31.628906 54.304688 31.726562 53.691406 C 31.816406 53.140625 31.457031 52.316406 31.359375 51.761719 C 31.226562 50.988281 31.246094 50.074219 31.238281 49.28125 C 31.238281 49.28125 31.613281 51.640625 31.898438 52.730469 C 32.019531 53.203125 32.449219 54.21875 32.644531 53.644531 C 32.753906 52.609375 32.488281 52.082031 32.460938 51.054688 C 32.441406 50.289062 32.59375 49.308594 32.582031 48.542969 C 32.558594 46.535156 31.753906 44.363281 30.316406 42.929688 C 28.460938 41.082031 24.835938 41.144531 22.902344 42.789062 C 22.5 43.128906 21.894531 43.453125 21.726562 43.96875 M 28.167969 45.933594 L 28.128906 46.066406 C 27.675781 44.8125 26.386719 43.324219 24.9375 43.371094 C 26.128906 42.453125 28.320312 44.738281 28.167969 45.933594 M 15.167969 48.457031 C 15.070312 49.234375 14.964844 49.957031 15.324219 50.695312 C 15.546875 51.300781 16.144531 51.90625 16.453125 52.480469 C 15.332031 51.972656 14.207031 49.554688 15.167969 48.457031 M 24.296875 64.386719 C 27.09375 61.792969 31.558594 59.613281 35.453125 59.574219 C 35.019531 58.242188 33.828125 57.285156 33.347656 55.960938 C 33.1875 55.515625 33.109375 54.628906 32.660156 54.355469 C 31.964844 53.9375 30.691406 54.445312 29.980469 54.648438 C 27.648438 55.316406 25.191406 56.453125 23.441406 58.160156 C 22.996094 58.597656 22.238281 59.089844 22.046875 59.703125 C 21.875 60.25 22.613281 60.65625 22.882812 61.050781 C 23.507812 61.960938 24.003906 63.324219 24.296875 64.386719 M 25.078125 64.289062 C 24.730469 64.667969 24.519531 64.957031 24.949219 65.078125 C 27.378906 65.503906 29.789062 64.296875 31.769531 62.921875 C 32.28125 62.566406 33.800781 61.722656 33.523438 60.941406 C 33.234375 60.121094 31.867188 60.636719 31.332031 60.78125 C 29.027344 61.515625 26.894531 62.5625 25.078125 64.289062 Z M 25.078125 64.289062 " fill-opacity="1" fill-rule="nonzero"/></g></g></g></g><g fill="#000000" fill-opacity="1"><g transform="translate(26.59901, 81.611138)"><g><path d="M 11.859375 -22.046875 C 12.710938 -21.628906 13.398438 -21.085938 13.921875 -20.421875 C 14.453125 -19.765625 14.820312 -19 15.03125 -18.125 C 15.070312 -17.9375 15.085938 -17.742188 15.078125 -17.546875 C 15.078125 -17.503906 15.078125 -17.460938 15.078125 -17.421875 C 15.078125 -17.265625 14.992188 -17.15625 14.828125 -17.09375 C 14.753906 -17.050781 14.679688 -17.039062 14.609375 -17.0625 C 14.535156 -17.082031 14.488281 -17.128906 14.46875 -17.203125 C 14.425781 -17.347656 14.390625 -17.492188 14.359375 -17.640625 C 14.347656 -17.671875 14.335938 -17.707031 14.328125 -17.75 C 14.054688 -18.863281 13.476562 -19.816406 12.59375 -20.609375 C 11.4375 -21.679688 10.050781 -22.101562 8.4375 -21.875 C 7.039062 -21.664062 5.757812 -21.1875 4.59375 -20.4375 C 3.03125 -19.4375 1.734375 -18.195312 0.703125 -16.71875 C 0.390625 -16.28125 0.128906 -15.820312 -0.078125 -15.34375 C -0.796875 -13.769531 -0.835938 -12.1875 -0.203125 -10.59375 C -0.00390625 -10.070312 0.238281 -9.582031 0.53125 -9.125 C 0.832031 -8.664062 1.160156 -8.21875 1.515625 -7.78125 C 2.296875 -6.8125 3.128906 -5.894531 4.015625 -5.03125 C 4.492188 -4.5625 4.976562 -4.101562 5.46875 -3.65625 C 6.144531 -3 6.820312 -2.335938 7.5 -1.671875 C 8.34375 -0.847656 9.109375 0.03125 9.796875 0.96875 C 10.015625 1.269531 10.210938 1.578125 10.390625 1.890625 C 10.578125 2.210938 10.722656 2.554688 10.828125 2.921875 C 11.128906 3.878906 10.828125 4.625 9.921875 5.15625 C 9.441406 5.445312 8.921875 5.625 8.359375 5.6875 C 5.867188 5.875 3.890625 5.039062 2.421875 3.1875 C 2.046875 2.695312 1.8125 2.175781 1.71875 1.625 C 1.625 1.082031 1.628906 0.519531 1.734375 -0.0625 C 1.960938 -1.363281 2.519531 -2.53125 3.40625 -3.5625 C 3.5 -3.664062 3.585938 -3.769531 3.671875 -3.875 C 3.703125 -3.914062 3.738281 -3.957031 3.78125 -4 C 3.6875 -4.164062 3.578125 -4.300781 3.453125 -4.40625 C 3.410156 -4.445312 3.375 -4.484375 3.34375 -4.515625 C 2.394531 -5.441406 1.515625 -6.410156 0.703125 -7.421875 C 0.128906 -8.117188 -0.351562 -8.867188 -0.75 -9.671875 C -1.769531 -11.703125 -1.75 -13.722656 -0.6875 -15.734375 C -0.09375 -16.804688 0.617188 -17.765625 1.453125 -18.609375 C 2.296875 -19.453125 3.25 -20.203125 4.3125 -20.859375 C 5.351562 -21.503906 6.484375 -21.972656 7.703125 -22.265625 C 8.203125 -22.390625 8.710938 -22.46875 9.234375 -22.5 C 9.753906 -22.53125 10.269531 -22.5 10.78125 -22.40625 C 11.15625 -22.332031 11.515625 -22.210938 11.859375 -22.046875 Z M 4.03125 -3.546875 C 3.96875 -3.472656 3.910156 -3.398438 3.859375 -3.328125 C 3.460938 -2.804688 3.160156 -2.25 2.953125 -1.65625 C 2.742188 -1.070312 2.601562 -0.46875 2.53125 0.15625 C 2.382812 1.4375 2.800781 2.523438 3.78125 3.421875 C 4.707031 4.304688 5.832031 4.851562 7.15625 5.0625 C 7.757812 5.175781 8.359375 5.160156 8.953125 5.015625 C 9.867188 4.773438 10.222656 4.222656 10.015625 3.359375 C 9.910156 2.953125 9.742188 2.5625 9.515625 2.1875 C 9.171875 1.601562 8.78125 1.054688 8.34375 0.546875 C 7.789062 -0.109375 7.210938 -0.738281 6.609375 -1.34375 C 6.003906 -1.945312 5.390625 -2.539062 4.765625 -3.125 C 4.628906 -3.257812 4.492188 -3.390625 4.359375 -3.515625 C 4.316406 -3.546875 4.273438 -3.570312 4.234375 -3.59375 C 4.210938 -3.601562 4.191406 -3.613281 4.171875 -3.625 C 4.148438 -3.613281 4.132812 -3.601562 4.125 -3.59375 C 4.09375 -3.582031 4.0625 -3.566406 4.03125 -3.546875 Z M 4.03125 -3.546875 "/></g></g></g><g fill="#000000" fill-opacity="1"><g transform="translate(36.741404, 81.611138)"><g><path d="M 0.53125 -0.5 C 0.457031 -0.488281 0.375 -0.535156 0.28125 -0.640625 C 0.195312 -0.753906 0.125 -0.945312 0.0625 -1.21875 C 0 -1.488281 -0.0234375 -1.863281 -0.015625 -2.34375 C -0.015625 -2.394531 -0.015625 -2.457031 -0.015625 -2.53125 C -0.015625 -2.71875 -0.0078125 -2.9375 0 -3.1875 C 0.0195312 -3.4375 0.0546875 -3.660156 0.109375 -3.859375 C 0.171875 -4.054688 0.257812 -4.171875 0.375 -4.203125 C 0.71875 -4.296875 0.90625 -4.175781 0.9375 -3.84375 C 0.9375 -3.738281 0.929688 -3.632812 0.921875 -3.53125 C 0.910156 -3.476562 0.90625 -3.425781 0.90625 -3.375 C 0.90625 -3.21875 0.898438 -3.066406 0.890625 -2.921875 C 0.890625 -2.785156 0.882812 -2.660156 0.875 -2.546875 C 0.875 -2.460938 0.875 -2.34375 0.875 -2.1875 C 0.882812 -1.96875 0.882812 -1.726562 0.875 -1.46875 C 0.875 -1.21875 0.847656 -0.992188 0.796875 -0.796875 C 0.742188 -0.609375 0.65625 -0.507812 0.53125 -0.5 Z M 0.859375 -5.359375 C 0.816406 -5.316406 0.757812 -5.289062 0.6875 -5.28125 C 0.625 -5.269531 0.570312 -5.273438 0.53125 -5.296875 C 0.488281 -5.335938 0.457031 -5.378906 0.4375 -5.421875 C 0.425781 -5.472656 0.421875 -5.535156 0.421875 -5.609375 C 0.429688 -5.628906 0.4375 -5.644531 0.4375 -5.65625 C 0.445312 -5.726562 0.460938 -5.796875 0.484375 -5.859375 C 0.554688 -6.046875 0.707031 -6.125 0.9375 -6.09375 C 1.019531 -6.09375 1.082031 -6.0625 1.125 -6 C 1.164062 -5.945312 1.175781 -5.882812 1.15625 -5.8125 C 1.101562 -5.632812 1.003906 -5.484375 0.859375 -5.359375 Z M 0.859375 -5.359375 "/></g></g></g><g fill="#000000" fill-opacity="1"><g transform="translate(38.24644, 81.611138)"><g><path d="M 8.171875 -3.359375 C 8.328125 -3.429688 8.421875 -3.441406 8.453125 -3.390625 C 8.472656 -3.296875 8.378906 -3.125 8.171875 -2.875 C 7.972656 -2.625 7.703125 -2.367188 7.359375 -2.109375 C 6.523438 -1.523438 5.820312 -1.175781 5.25 -1.0625 C 4.675781 -0.945312 4.207031 -0.984375 3.84375 -1.171875 C 3.476562 -1.359375 3.207031 -1.613281 3.03125 -1.9375 C 2.820312 -2.3125 2.691406 -2.675781 2.640625 -3.03125 C 2.566406 -3.414062 2.46875 -3.632812 2.34375 -3.6875 C 2.226562 -3.738281 2.097656 -3.679688 1.953125 -3.515625 C 1.816406 -3.359375 1.679688 -3.148438 1.546875 -2.890625 C 1.421875 -2.628906 1.316406 -2.367188 1.234375 -2.109375 C 1.148438 -1.859375 1.101562 -1.671875 1.09375 -1.546875 C 1.070312 -1.472656 1.050781 -1.398438 1.03125 -1.328125 C 0.988281 -1.234375 0.945312 -1.132812 0.90625 -1.03125 C 0.800781 -0.75 0.617188 -0.644531 0.359375 -0.71875 C 0.210938 -0.75 0.125 -0.84375 0.09375 -1 C 0.0820312 -1.101562 0.078125 -1.210938 0.078125 -1.328125 C 0.078125 -1.410156 0.078125 -1.503906 0.078125 -1.609375 C 0.0546875 -2.273438 0.0351562 -2.941406 0.015625 -3.609375 C 0.015625 -3.691406 0.0507812 -3.75 0.125 -3.78125 C 0.207031 -3.8125 0.300781 -3.828125 0.40625 -3.828125 C 0.507812 -3.828125 0.597656 -3.8125 0.671875 -3.78125 C 0.753906 -3.75 0.796875 -3.707031 0.796875 -3.65625 C 0.816406 -3.550781 0.828125 -3.457031 0.828125 -3.375 C 0.828125 -3.257812 0.832031 -3.175781 0.84375 -3.125 C 0.863281 -3.070312 0.898438 -3.070312 0.953125 -3.125 C 1.003906 -3.1875 1.097656 -3.300781 1.234375 -3.46875 C 1.429688 -3.789062 1.6875 -4.066406 2 -4.296875 C 2.132812 -4.398438 2.296875 -4.472656 2.484375 -4.515625 C 2.671875 -4.566406 2.851562 -4.578125 3.03125 -4.546875 C 3.207031 -4.492188 3.347656 -4.382812 3.453125 -4.21875 C 3.554688 -4.0625 3.632812 -3.878906 3.6875 -3.671875 C 3.75 -3.460938 3.789062 -3.269531 3.8125 -3.09375 C 3.820312 -3.039062 3.832031 -3 3.84375 -2.96875 C 3.882812 -2.726562 3.9375 -2.507812 4 -2.3125 C 4.070312 -2.125 4.179688 -1.972656 4.328125 -1.859375 C 4.484375 -1.753906 4.710938 -1.710938 5.015625 -1.734375 C 5.671875 -1.785156 6.1875 -1.921875 6.5625 -2.140625 C 6.945312 -2.367188 7.269531 -2.609375 7.53125 -2.859375 C 7.570312 -2.890625 7.609375 -2.921875 7.640625 -2.953125 C 7.703125 -2.992188 7.75 -3.035156 7.78125 -3.078125 C 7.882812 -3.179688 8.015625 -3.273438 8.171875 -3.359375 Z M 8.171875 -3.359375 "/></g></g></g><g fill="#000000" fill-opacity="1"><g transform="translate(45.948679, 81.611138)"><g><path d="M 5.96875 -2.171875 C 5.550781 -1.617188 5.15625 -1.265625 4.78125 -1.109375 C 4.40625 -0.953125 4.066406 -0.914062 3.765625 -1 C 3.460938 -1.082031 3.203125 -1.210938 2.984375 -1.390625 C 2.765625 -1.578125 2.597656 -1.734375 2.484375 -1.859375 C 2.453125 -1.898438 2.421875 -1.929688 2.390625 -1.953125 C 3.109375 -0.640625 3.582031 0.519531 3.8125 1.53125 C 4.050781 2.550781 4.113281 3.394531 4 4.0625 C 3.894531 4.726562 3.675781 5.195312 3.34375 5.46875 C 3.007812 5.75 2.628906 5.8125 2.203125 5.65625 C 1.785156 5.5 1.382812 5.101562 1 4.46875 C 0.625 3.832031 0.332031 2.929688 0.125 1.765625 C -0.0820312 0.609375 -0.132812 -0.828125 -0.03125 -2.546875 C 0.0625 -4.265625 0.375 -6.289062 0.90625 -8.625 C 1.03125 -9.175781 1.210938 -9.816406 1.453125 -10.546875 C 1.691406 -11.285156 1.988281 -11.988281 2.34375 -12.65625 C 2.707031 -13.320312 3.132812 -13.835938 3.625 -14.203125 C 3.84375 -14.347656 4.082031 -14.445312 4.34375 -14.5 C 5 -14.613281 5.46875 -14.535156 5.75 -14.265625 C 6.03125 -13.992188 6.160156 -13.59375 6.140625 -13.0625 C 6.117188 -12.539062 5.992188 -11.9375 5.765625 -11.25 C 5.535156 -10.570312 5.25 -9.863281 4.90625 -9.125 C 4.5625 -8.394531 4.195312 -7.691406 3.8125 -7.015625 C 3.425781 -6.335938 3.070312 -5.742188 2.75 -5.234375 C 2.4375 -4.734375 2.191406 -4.363281 2.015625 -4.125 C 1.972656 -4.050781 1.921875 -3.972656 1.859375 -3.890625 C 1.828125 -3.847656 1.796875 -3.804688 1.765625 -3.765625 C 2.347656 -2.921875 2.863281 -2.34375 3.3125 -2.03125 C 3.757812 -1.726562 4.144531 -1.59375 4.46875 -1.625 C 4.800781 -1.664062 5.082031 -1.785156 5.3125 -1.984375 C 5.539062 -2.191406 5.726562 -2.398438 5.875 -2.609375 C 5.945312 -2.703125 6.007812 -2.773438 6.0625 -2.828125 C 6.125 -2.890625 6.171875 -2.914062 6.203125 -2.90625 C 6.328125 -2.882812 6.351562 -2.800781 6.28125 -2.65625 C 6.207031 -2.507812 6.101562 -2.347656 5.96875 -2.171875 Z M 1.1875 -4.71875 C 1.15625 -4.488281 1.164062 -4.335938 1.21875 -4.265625 C 1.269531 -4.203125 1.375 -4.289062 1.53125 -4.53125 C 1.78125 -4.875 2.085938 -5.335938 2.453125 -5.921875 C 2.816406 -6.515625 3.191406 -7.171875 3.578125 -7.890625 C 3.972656 -8.617188 4.328125 -9.351562 4.640625 -10.09375 C 4.960938 -10.832031 5.191406 -11.519531 5.328125 -12.15625 C 5.472656 -12.800781 5.472656 -13.335938 5.328125 -13.765625 C 5.265625 -13.941406 5.148438 -14.050781 4.984375 -14.09375 C 4.816406 -14.132812 4.640625 -14.109375 4.453125 -14.015625 C 4.066406 -13.785156 3.707031 -13.382812 3.375 -12.8125 C 3.050781 -12.238281 2.765625 -11.566406 2.515625 -10.796875 C 2.265625 -10.035156 2.046875 -9.257812 1.859375 -8.46875 C 1.679688 -7.675781 1.535156 -6.945312 1.421875 -6.28125 C 1.304688 -5.625 1.226562 -5.101562 1.1875 -4.71875 Z M 2.671875 5.25 C 3.003906 5.101562 3.191406 4.765625 3.234375 4.234375 C 3.273438 3.703125 3.21875 3.070312 3.0625 2.34375 C 2.914062 1.613281 2.710938 0.867188 2.453125 0.109375 C 2.191406 -0.640625 1.925781 -1.304688 1.65625 -1.890625 C 1.394531 -2.484375 1.179688 -2.90625 1.015625 -3.15625 C 0.910156 -1.84375 0.90625 -0.660156 1 0.390625 C 1.101562 1.453125 1.257812 2.351562 1.46875 3.09375 C 1.6875 3.832031 1.90625 4.382812 2.125 4.75 C 2.351562 5.125 2.535156 5.289062 2.671875 5.25 Z M 2.671875 5.25 "/></g></g></g><g fill="#000000" fill-opacity="1"><g transform="translate(51.741964, 81.611138)"><g><path d="M 1.234375 -1 C 0.910156 -1.007812 0.644531 -1.15625 0.4375 -1.4375 C 0.238281 -1.71875 0.113281 -2.070312 0.0625 -2.5 C 0.0078125 -2.9375 0.0507812 -3.382812 0.1875 -3.84375 C 0.226562 -3.976562 0.320312 -4.082031 0.46875 -4.15625 C 0.570312 -4.1875 0.675781 -4.175781 0.78125 -4.125 C 0.894531 -4.082031 0.957031 -4.007812 0.96875 -3.90625 C 0.96875 -3.8125 0.957031 -3.710938 0.9375 -3.609375 C 0.914062 -3.535156 0.90625 -3.46875 0.90625 -3.40625 C 0.882812 -3.132812 0.890625 -2.84375 0.921875 -2.53125 C 0.953125 -2.21875 1.035156 -1.945312 1.171875 -1.71875 C 1.304688 -1.539062 1.457031 -1.515625 1.625 -1.640625 C 1.800781 -1.773438 1.953125 -1.988281 2.078125 -2.28125 C 2.179688 -2.5 2.257812 -2.71875 2.3125 -2.9375 C 2.363281 -3.164062 2.398438 -3.34375 2.421875 -3.46875 C 2.441406 -3.519531 2.453125 -3.550781 2.453125 -3.5625 C 2.472656 -3.664062 2.492188 -3.765625 2.515625 -3.859375 C 2.554688 -3.984375 2.597656 -4.113281 2.640625 -4.25 C 2.710938 -4.5 2.890625 -4.601562 3.171875 -4.5625 C 3.347656 -4.550781 3.445312 -4.46875 3.46875 -4.3125 C 3.476562 -4.101562 3.476562 -3.890625 3.46875 -3.671875 C 3.46875 -3.585938 3.46875 -3.5 3.46875 -3.40625 C 3.4375 -3.03125 3.425781 -2.632812 3.4375 -2.21875 C 3.445312 -1.800781 3.515625 -1.457031 3.640625 -1.1875 C 3.660156 -1.144531 3.664062 -1.09375 3.65625 -1.03125 C 3.65625 -0.96875 3.632812 -0.90625 3.59375 -0.84375 C 3.5625 -0.78125 3.503906 -0.742188 3.421875 -0.734375 C 3.335938 -0.722656 3.226562 -0.757812 3.09375 -0.84375 C 2.894531 -0.96875 2.765625 -1.140625 2.703125 -1.359375 C 2.648438 -1.585938 2.625 -1.804688 2.625 -2.015625 C 2.613281 -2.140625 2.601562 -2.25 2.59375 -2.34375 C 2.519531 -1.914062 2.351562 -1.585938 2.09375 -1.359375 C 1.832031 -1.128906 1.546875 -1.007812 1.234375 -1 Z M 1.234375 -1 "/></g></g></g><g fill="#000000" fill-opacity="1"><g transform="translate(55.891878, 81.611138)"><g><path d="M 3.046875 -15.015625 C 3.492188 -14.960938 3.878906 -14.648438 4.203125 -14.078125 C 4.535156 -13.503906 4.757812 -12.765625 4.875 -11.859375 C 5 -10.953125 4.960938 -9.972656 4.765625 -8.921875 C 4.566406 -7.867188 4.164062 -6.832031 3.5625 -5.8125 C 2.96875 -4.789062 2.125 -3.875 1.03125 -3.0625 C 1.0625 -2.644531 1.125 -2.226562 1.21875 -1.8125 C 1.3125 -1.394531 1.453125 -1.066406 1.640625 -0.828125 C 1.816406 -0.628906 2.019531 -0.566406 2.25 -0.640625 C 2.476562 -0.710938 2.707031 -0.863281 2.9375 -1.09375 C 3.175781 -1.332031 3.390625 -1.59375 3.578125 -1.875 C 3.773438 -2.15625 3.921875 -2.398438 4.015625 -2.609375 C 4.085938 -2.765625 4.160156 -2.84375 4.234375 -2.84375 C 4.304688 -2.84375 4.320312 -2.765625 4.28125 -2.609375 C 4.15625 -2.242188 4 -1.882812 3.8125 -1.53125 C 3.625 -1.1875 3.378906 -0.878906 3.078125 -0.609375 C 2.847656 -0.390625 2.578125 -0.242188 2.265625 -0.171875 C 1.765625 -0.0976562 1.359375 -0.234375 1.046875 -0.578125 C 0.734375 -0.921875 0.5 -1.410156 0.34375 -2.046875 C 0.238281 -2.441406 0.164062 -3.035156 0.125 -3.828125 C 0.09375 -4.617188 0.09375 -5.507812 0.125 -6.5 C 0.164062 -7.488281 0.253906 -8.488281 0.390625 -9.5 C 0.523438 -10.519531 0.703125 -11.453125 0.921875 -12.296875 C 1.148438 -13.148438 1.4375 -13.828125 1.78125 -14.328125 C 2.132812 -14.828125 2.554688 -15.054688 3.046875 -15.015625 Z M 1.03125 -3.734375 C 2.007812 -4.640625 2.738281 -5.59375 3.21875 -6.59375 C 3.707031 -7.59375 4.015625 -8.570312 4.140625 -9.53125 C 4.273438 -10.5 4.285156 -11.367188 4.171875 -12.140625 C 4.066406 -12.921875 3.898438 -13.53125 3.671875 -13.96875 C 3.441406 -14.414062 3.21875 -14.617188 3 -14.578125 C 2.71875 -14.503906 2.472656 -14.222656 2.265625 -13.734375 C 2.054688 -13.242188 1.878906 -12.625 1.734375 -11.875 C 1.585938 -11.132812 1.460938 -10.34375 1.359375 -9.5 C 1.265625 -8.65625 1.191406 -7.835938 1.140625 -7.046875 C 1.085938 -6.253906 1.050781 -5.5625 1.03125 -4.96875 C 1.019531 -4.382812 1.019531 -3.972656 1.03125 -3.734375 Z M 1.03125 -3.734375 "/></g></g></g><g fill="#000000" fill-opacity="1"><g transform="translate(59.826001, 81.611138)"><g><path d="M 3.046875 -15.015625 C 3.492188 -14.960938 3.878906 -14.648438 4.203125 -14.078125 C 4.535156 -13.503906 4.757812 -12.765625 4.875 -11.859375 C 5 -10.953125 4.960938 -9.972656 4.765625 -8.921875 C 4.566406 -7.867188 4.164062 -6.832031 3.5625 -5.8125 C 2.96875 -4.789062 2.125 -3.875 1.03125 -3.0625 C 1.0625 -2.644531 1.125 -2.226562 1.21875 -1.8125 C 1.3125 -1.394531 1.453125 -1.066406 1.640625 -0.828125 C 1.816406 -0.628906 2.019531 -0.566406 2.25 -0.640625 C 2.476562 -0.710938 2.707031 -0.863281 2.9375 -1.09375 C 3.175781 -1.332031 3.390625 -1.59375 3.578125 -1.875 C 3.773438 -2.15625 3.921875 -2.398438 4.015625 -2.609375 C 4.085938 -2.765625 4.160156 -2.84375 4.234375 -2.84375 C 4.304688 -2.84375 4.320312 -2.765625 4.28125 -2.609375 C 4.15625 -2.242188 4 -1.882812 3.8125 -1.53125 C 3.625 -1.1875 3.378906 -0.878906 3.078125 -0.609375 C 2.847656 -0.390625 2.578125 -0.242188 2.265625 -0.171875 C 1.765625 -0.0976562 1.359375 -0.234375 1.046875 -0.578125 C 0.734375 -0.921875 0.5 -1.410156 0.34375 -2.046875 C 0.238281 -2.441406 0.164062 -3.035156 0.125 -3.828125 C 0.09375 -4.617188 0.09375 -5.507812 0.125 -6.5 C 0.164062 -7.488281 0.253906 -8.488281 0.390625 -9.5 C 0.523438 -10.519531 0.703125 -11.453125 0.921875 -12.296875 C 1.148438 -13.148438 1.4375 -13.828125 1.78125 -14.328125 C 2.132812 -14.828125 2.554688 -15.054688 3.046875 -15.015625 Z M 1.03125 -3.734375 C 2.007812 -4.640625 2.738281 -5.59375 3.21875 -6.59375 C 3.707031 -7.59375 4.015625 -8.570312 4.140625 -9.53125 C 4.273438 -10.5 4.285156 -11.367188 4.171875 -12.140625 C 4.066406 -12.921875 3.898438 -13.53125 3.671875 -13.96875 C 3.441406 -14.414062 3.21875 -14.617188 3 -14.578125 C 2.71875 -14.503906 2.472656 -14.222656 2.265625 -13.734375 C 2.054688 -13.242188 1.878906 -12.625 1.734375 -11.875 C 1.585938 -11.132812 1.460938 -10.34375 1.359375 -9.5 C 1.265625 -8.65625 1.191406 -7.835938 1.140625 -7.046875 C 1.085938 -6.253906 1.050781 -5.5625 1.03125 -4.96875 C 1.019531 -4.382812 1.019531 -3.972656 1.03125 -3.734375 Z M 1.03125 -3.734375 "/></g></g></g><g fill="#000000" fill-opacity="1"><g transform="translate(63.760125, 81.611138)"><g><path d="M 3.171875 -3.65625 C 3.335938 -3.675781 3.453125 -3.644531 3.515625 -3.5625 C 3.578125 -3.476562 3.601562 -3.171875 3.59375 -2.640625 C 3.582031 -2.109375 3.554688 -1.492188 3.515625 -0.796875 C 3.472656 -0.0976562 3.421875 0.546875 3.359375 1.140625 C 3.304688 1.734375 3.265625 2.148438 3.234375 2.390625 C 2.992188 3.742188 2.566406 4.875 1.953125 5.78125 C 1.347656 6.695312 0.65625 7.398438 -0.125 7.890625 C -0.90625 8.390625 -1.675781 8.691406 -2.4375 8.796875 C -3.195312 8.910156 -3.84375 8.835938 -4.375 8.578125 C -4.90625 8.328125 -5.222656 7.90625 -5.328125 7.3125 C -5.429688 6.726562 -5.21875 5.988281 -4.6875 5.09375 C -4.164062 4.195312 -3.222656 3.164062 -1.859375 2 C -1.328125 1.550781 -0.582031 1.007812 0.375 0.375 C 1.332031 -0.257812 2.085938 -0.6875 2.640625 -0.90625 C 2.648438 -1.007812 2.660156 -1.125 2.671875 -1.25 C 2.441406 -0.988281 2.207031 -0.835938 1.96875 -0.796875 C 1.726562 -0.753906 1.503906 -0.75 1.296875 -0.78125 C 1.285156 -0.78125 1.273438 -0.78125 1.265625 -0.78125 C 0.898438 -0.832031 0.613281 -1.003906 0.40625 -1.296875 C 0.195312 -1.585938 0.0625 -1.914062 0 -2.28125 C -0.0507812 -2.65625 -0.0351562 -2.988281 0.046875 -3.28125 C 0.140625 -3.570312 0.3125 -3.742188 0.5625 -3.796875 C 0.65625 -3.816406 0.765625 -3.828125 0.890625 -3.828125 C 1.015625 -3.828125 1.113281 -3.8125 1.1875 -3.78125 C 1.269531 -3.75 1.304688 -3.6875 1.296875 -3.59375 C 1.210938 -3.300781 1.164062 -2.976562 1.15625 -2.625 C 1.144531 -2.269531 1.171875 -1.957031 1.234375 -1.6875 C 1.304688 -1.425781 1.4375 -1.285156 1.625 -1.265625 C 1.8125 -1.242188 2.066406 -1.421875 2.390625 -1.796875 C 2.535156 -1.972656 2.632812 -2.164062 2.6875 -2.375 C 2.6875 -2.601562 2.6875 -2.820312 2.6875 -3.03125 C 2.675781 -3.21875 2.671875 -3.375 2.671875 -3.5 C 2.710938 -3.5625 2.773438 -3.601562 2.859375 -3.625 C 2.953125 -3.644531 3.039062 -3.65625 3.125 -3.65625 C 3.132812 -3.65625 3.148438 -3.65625 3.171875 -3.65625 Z M 2.625 0.0625 C 2.625 0.0625 2.625 0.0507812 2.625 0.03125 C 2.625 -0.0078125 2.625 -0.0664062 2.625 -0.140625 C 2.632812 -0.222656 2.628906 -0.285156 2.609375 -0.328125 C 2.597656 -0.378906 2.566406 -0.382812 2.515625 -0.34375 C 2.460938 -0.300781 2.398438 -0.257812 2.328125 -0.21875 C 1.859375 0.101562 1.242188 0.546875 0.484375 1.109375 C -0.273438 1.679688 -1.039062 2.328125 -1.8125 3.046875 C -1.957031 3.179688 -2.171875 3.394531 -2.453125 3.6875 C -2.734375 3.976562 -3.023438 4.304688 -3.328125 4.671875 C -3.640625 5.046875 -3.910156 5.429688 -4.140625 5.828125 C -4.378906 6.222656 -4.523438 6.59375 -4.578125 6.9375 C -4.640625 7.289062 -4.5625 7.59375 -4.34375 7.84375 C -4.0625 8.144531 -3.648438 8.273438 -3.109375 8.234375 C -2.566406 8.191406 -1.972656 7.988281 -1.328125 7.625 C -0.691406 7.257812 -0.078125 6.734375 0.515625 6.046875 C 1.109375 5.359375 1.597656 4.515625 1.984375 3.515625 C 2.367188 2.515625 2.582031 1.363281 2.625 0.0625 Z M 2.625 0.0625 "/></g></g></g><g fill="#000000" fill-opacity="1"><g transform="translate(68.225438, 81.611138)"><g/></g></g><g fill="#000000" fill-opacity="1"><g transform="translate(71.036313, 81.611138)"><g><path d="M 11.859375 -22.046875 C 12.710938 -21.628906 13.398438 -21.085938 13.921875 -20.421875 C 14.453125 -19.765625 14.820312 -19 15.03125 -18.125 C 15.070312 -17.9375 15.085938 -17.742188 15.078125 -17.546875 C 15.078125 -17.503906 15.078125 -17.460938 15.078125 -17.421875 C 15.078125 -17.265625 14.992188 -17.15625 14.828125 -17.09375 C 14.753906 -17.050781 14.679688 -17.039062 14.609375 -17.0625 C 14.535156 -17.082031 14.488281 -17.128906 14.46875 -17.203125 C 14.425781 -17.347656 14.390625 -17.492188 14.359375 -17.640625 C 14.347656 -17.671875 14.335938 -17.707031 14.328125 -17.75 C 14.054688 -18.863281 13.476562 -19.816406 12.59375 -20.609375 C 11.4375 -21.679688 10.050781 -22.101562 8.4375 -21.875 C 7.039062 -21.664062 5.757812 -21.1875 4.59375 -20.4375 C 3.03125 -19.4375 1.734375 -18.195312 0.703125 -16.71875 C 0.390625 -16.28125 0.128906 -15.820312 -0.078125 -15.34375 C -0.796875 -13.769531 -0.835938 -12.1875 -0.203125 -10.59375 C -0.00390625 -10.070312 0.238281 -9.582031 0.53125 -9.125 C 0.832031 -8.664062 1.160156 -8.21875 1.515625 -7.78125 C 2.296875 -6.8125 3.128906 -5.894531 4.015625 -5.03125 C 4.492188 -4.5625 4.976562 -4.101562 5.46875 -3.65625 C 6.144531 -3 6.820312 -2.335938 7.5 -1.671875 C 8.34375 -0.847656 9.109375 0.03125 9.796875 0.96875 C 10.015625 1.269531 10.210938 1.578125 10.390625 1.890625 C 10.578125 2.210938 10.722656 2.554688 10.828125 2.921875 C 11.128906 3.878906 10.828125 4.625 9.921875 5.15625 C 9.441406 5.445312 8.921875 5.625 8.359375 5.6875 C 5.867188 5.875 3.890625 5.039062 2.421875 3.1875 C 2.046875 2.695312 1.8125 2.175781 1.71875 1.625 C 1.625 1.082031 1.628906 0.519531 1.734375 -0.0625 C 1.960938 -1.363281 2.519531 -2.53125 3.40625 -3.5625 C 3.5 -3.664062 3.585938 -3.769531 3.671875 -3.875 C 3.703125 -3.914062 3.738281 -3.957031 3.78125 -4 C 3.6875 -4.164062 3.578125 -4.300781 3.453125 -4.40625 C 3.410156 -4.445312 3.375 -4.484375 3.34375 -4.515625 C 2.394531 -5.441406 1.515625 -6.410156 0.703125 -7.421875 C 0.128906 -8.117188 -0.351562 -8.867188 -0.75 -9.671875 C -1.769531 -11.703125 -1.75 -13.722656 -0.6875 -15.734375 C -0.09375 -16.804688 0.617188 -17.765625 1.453125 -18.609375 C 2.296875 -19.453125 3.25 -20.203125 4.3125 -20.859375 C 5.351562 -21.503906 6.484375 -21.972656 7.703125 -22.265625 C 8.203125 -22.390625 8.710938 -22.46875 9.234375 -22.5 C 9.753906 -22.53125 10.269531 -22.5 10.78125 -22.40625 C 11.15625 -22.332031 11.515625 -22.210938 11.859375 -22.046875 Z M 4.03125 -3.546875 C 3.96875 -3.472656 3.910156 -3.398438 3.859375 -3.328125 C 3.460938 -2.804688 3.160156 -2.25 2.953125 -1.65625 C 2.742188 -1.070312 2.601562 -0.46875 2.53125 0.15625 C 2.382812 1.4375 2.800781 2.523438 3.78125 3.421875 C 4.707031 4.304688 5.832031 4.851562 7.15625 5.0625 C 7.757812 5.175781 8.359375 5.160156 8.953125 5.015625 C 9.867188 4.773438 10.222656 4.222656 10.015625 3.359375 C 9.910156 2.953125 9.742188 2.5625 9.515625 2.1875 C 9.171875 1.601562 8.78125 1.054688 8.34375 0.546875 C 7.789062 -0.109375 7.210938 -0.738281 6.609375 -1.34375 C 6.003906 -1.945312 5.390625 -2.539062 4.765625 -3.125 C 4.628906 -3.257812 4.492188 -3.390625 4.359375 -3.515625 C 4.316406 -3.546875 4.273438 -3.570312 4.234375 -3.59375 C 4.210938 -3.601562 4.191406 -3.613281 4.171875 -3.625 C 4.148438 -3.613281 4.132812 -3.601562 4.125 -3.59375 C 4.09375 -3.582031 4.0625 -3.566406 4.03125 -3.546875 Z M 4.03125 -3.546875 "/></g></g></g><g fill="#000000" fill-opacity="1"><g transform="translate(81.178707, 81.611138)"><g><path d="M 7.234375 -3.03125 C 7.253906 -3.019531 7.273438 -3.003906 7.296875 -2.984375 C 7.328125 -2.960938 7.347656 -2.929688 7.359375 -2.890625 C 7.367188 -2.859375 7.347656 -2.832031 7.296875 -2.8125 C 6.992188 -2.644531 6.628906 -2.578125 6.203125 -2.609375 C 5.773438 -2.640625 5.429688 -2.78125 5.171875 -3.03125 C 5.160156 -2.90625 5.144531 -2.78125 5.125 -2.65625 C 5.082031 -2.382812 5.039062 -2.125 5 -1.875 C 4.9375 -1.59375 4.835938 -1.320312 4.703125 -1.0625 C 4.515625 -0.757812 4.273438 -0.554688 3.984375 -0.453125 C 3.691406 -0.359375 3.414062 -0.34375 3.15625 -0.40625 C 2.875 -0.46875 2.648438 -0.601562 2.484375 -0.8125 C 2.410156 -0.90625 2.34375 -1.003906 2.28125 -1.109375 C 2.25 -1.140625 2.21875 -1.175781 2.1875 -1.21875 C 2.113281 -1.21875 2.054688 -1.195312 2.015625 -1.15625 C 1.972656 -1.125 1.9375 -1.085938 1.90625 -1.046875 C 1.875 -1.003906 1.84375 -0.972656 1.8125 -0.953125 C 1.519531 -0.742188 1.234375 -0.671875 0.953125 -0.734375 C 0.671875 -0.804688 0.457031 -1 0.3125 -1.3125 C 0.25 -1.457031 0.203125 -1.609375 0.171875 -1.765625 C 0.0976562 -2.066406 0.0507812 -2.363281 0.03125 -2.65625 C 0.0078125 -2.957031 0.00390625 -3.265625 0.015625 -3.578125 C 0.0234375 -3.765625 0.09375 -3.882812 0.21875 -3.9375 C 0.351562 -4 0.484375 -3.992188 0.609375 -3.921875 C 0.734375 -3.859375 0.800781 -3.726562 0.8125 -3.53125 C 0.820312 -3.394531 0.828125 -3.265625 0.828125 -3.140625 C 0.816406 -2.671875 0.867188 -2.207031 0.984375 -1.75 C 1.015625 -1.644531 1.050781 -1.546875 1.09375 -1.453125 C 1.125 -1.398438 1.160156 -1.367188 1.203125 -1.359375 C 1.242188 -1.359375 1.28125 -1.382812 1.3125 -1.4375 C 1.4375 -1.601562 1.53125 -1.785156 1.59375 -1.984375 C 1.65625 -2.179688 1.707031 -2.390625 1.75 -2.609375 C 1.75 -2.628906 1.753906 -2.648438 1.765625 -2.671875 C 1.785156 -2.765625 1.804688 -2.859375 1.828125 -2.953125 C 1.835938 -3.078125 1.863281 -3.203125 1.90625 -3.328125 C 1.957031 -3.523438 2.113281 -3.609375 2.375 -3.578125 C 2.59375 -3.566406 2.707031 -3.457031 2.71875 -3.25 C 2.71875 -2.78125 2.769531 -2.316406 2.875 -1.859375 C 2.90625 -1.703125 2.953125 -1.546875 3.015625 -1.390625 C 3.078125 -1.234375 3.171875 -1.085938 3.296875 -0.953125 C 3.421875 -0.835938 3.550781 -0.835938 3.6875 -0.953125 C 3.894531 -1.148438 4.03125 -1.378906 4.09375 -1.640625 C 4.257812 -2.148438 4.332031 -2.675781 4.3125 -3.21875 C 4.3125 -3.257812 4.3125 -3.300781 4.3125 -3.34375 C 4.289062 -3.570312 4.285156 -3.796875 4.296875 -4.015625 C 4.304688 -4.328125 4.472656 -4.445312 4.796875 -4.375 C 4.867188 -4.351562 4.9375 -4.328125 5 -4.296875 C 5.0625 -4.265625 5.109375 -4.203125 5.140625 -4.109375 C 5.390625 -3.554688 5.648438 -3.195312 5.921875 -3.03125 C 6.203125 -2.875 6.457031 -2.816406 6.6875 -2.859375 C 6.914062 -2.898438 7.078125 -2.945312 7.171875 -3 C 7.203125 -3.007812 7.222656 -3.019531 7.234375 -3.03125 Z M 7.234375 -3.03125 "/></g></g></g><g fill="#000000" fill-opacity="1"><g transform="translate(87.923706, 81.611138)"><g><path d="M 4.921875 -2.65625 C 5.003906 -2.695312 5.082031 -2.726562 5.15625 -2.75 C 5.226562 -2.769531 5.273438 -2.765625 5.296875 -2.734375 C 5.316406 -2.710938 5.285156 -2.648438 5.203125 -2.546875 C 4.941406 -2.253906 4.632812 -1.988281 4.28125 -1.75 C 3.925781 -1.507812 3.566406 -1.304688 3.203125 -1.140625 C 2.910156 -1.015625 2.601562 -0.910156 2.28125 -0.828125 C 1.957031 -0.753906 1.632812 -0.738281 1.3125 -0.78125 C 1 -0.820312 0.710938 -0.960938 0.453125 -1.203125 C 0.140625 -1.515625 -0.0234375 -1.910156 -0.046875 -2.390625 C -0.078125 -2.867188 0.03125 -3.269531 0.28125 -3.59375 C 0.613281 -3.96875 1.03125 -4.207031 1.53125 -4.3125 C 2.039062 -4.414062 2.5 -4.332031 2.90625 -4.0625 C 3.101562 -3.925781 3.179688 -3.765625 3.140625 -3.578125 C 3.109375 -3.398438 3.007812 -3.234375 2.84375 -3.078125 C 2.6875 -2.921875 2.515625 -2.800781 2.328125 -2.71875 C 2.035156 -2.601562 1.769531 -2.578125 1.53125 -2.640625 C 1.300781 -2.710938 1.125 -2.804688 1 -2.921875 C 0.90625 -2.890625 0.847656 -2.757812 0.828125 -2.53125 C 0.765625 -2.101562 0.894531 -1.757812 1.21875 -1.5 C 1.488281 -1.289062 1.828125 -1.234375 2.234375 -1.328125 C 2.648438 -1.421875 3.070312 -1.582031 3.5 -1.8125 C 3.9375 -2.050781 4.320312 -2.273438 4.65625 -2.484375 C 4.757812 -2.535156 4.847656 -2.59375 4.921875 -2.65625 Z M 2.234375 -3.71875 C 2.191406 -3.789062 2.113281 -3.816406 2 -3.796875 C 1.882812 -3.785156 1.769531 -3.75 1.65625 -3.6875 C 1.539062 -3.632812 1.4375 -3.578125 1.34375 -3.515625 C 1.257812 -3.460938 1.222656 -3.421875 1.234375 -3.390625 C 1.234375 -3.378906 1.242188 -3.351562 1.265625 -3.3125 C 1.285156 -3.28125 1.316406 -3.242188 1.359375 -3.203125 C 1.398438 -3.160156 1.453125 -3.128906 1.515625 -3.109375 C 1.585938 -3.097656 1.679688 -3.101562 1.796875 -3.125 C 1.960938 -3.175781 2.078125 -3.238281 2.140625 -3.3125 C 2.210938 -3.394531 2.253906 -3.472656 2.265625 -3.546875 C 2.273438 -3.617188 2.265625 -3.675781 2.234375 -3.71875 Z M 2.234375 -3.71875 "/></g></g></g><g fill="#000000" fill-opacity="1"><g transform="translate(92.610347, 81.611138)"><g><path d="M 4.921875 -2.65625 C 5.003906 -2.695312 5.082031 -2.726562 5.15625 -2.75 C 5.226562 -2.769531 5.273438 -2.765625 5.296875 -2.734375 C 5.316406 -2.710938 5.285156 -2.648438 5.203125 -2.546875 C 4.941406 -2.253906 4.632812 -1.988281 4.28125 -1.75 C 3.925781 -1.507812 3.566406 -1.304688 3.203125 -1.140625 C 2.910156 -1.015625 2.601562 -0.910156 2.28125 -0.828125 C 1.957031 -0.753906 1.632812 -0.738281 1.3125 -0.78125 C 1 -0.820312 0.710938 -0.960938 0.453125 -1.203125 C 0.140625 -1.515625 -0.0234375 -1.910156 -0.046875 -2.390625 C -0.078125 -2.867188 0.03125 -3.269531 0.28125 -3.59375 C 0.613281 -3.96875 1.03125 -4.207031 1.53125 -4.3125 C 2.039062 -4.414062 2.5 -4.332031 2.90625 -4.0625 C 3.101562 -3.925781 3.179688 -3.765625 3.140625 -3.578125 C 3.109375 -3.398438 3.007812 -3.234375 2.84375 -3.078125 C 2.6875 -2.921875 2.515625 -2.800781 2.328125 -2.71875 C 2.035156 -2.601562 1.769531 -2.578125 1.53125 -2.640625 C 1.300781 -2.710938 1.125 -2.804688 1 -2.921875 C 0.90625 -2.890625 0.847656 -2.757812 0.828125 -2.53125 C 0.765625 -2.101562 0.894531 -1.757812 1.21875 -1.5 C 1.488281 -1.289062 1.828125 -1.234375 2.234375 -1.328125 C 2.648438 -1.421875 3.070312 -1.582031 3.5 -1.8125 C 3.9375 -2.050781 4.320312 -2.273438 4.65625 -2.484375 C 4.757812 -2.535156 4.847656 -2.59375 4.921875 -2.65625 Z M 2.234375 -3.71875 C 2.191406 -3.789062 2.113281 -3.816406 2 -3.796875 C 1.882812 -3.785156 1.769531 -3.75 1.65625 -3.6875 C 1.539062 -3.632812 1.4375 -3.578125 1.34375 -3.515625 C 1.257812 -3.460938 1.222656 -3.421875 1.234375 -3.390625 C 1.234375 -3.378906 1.242188 -3.351562 1.265625 -3.3125 C 1.285156 -3.28125 1.316406 -3.242188 1.359375 -3.203125 C 1.398438 -3.160156 1.453125 -3.128906 1.515625 -3.109375 C 1.585938 -3.097656 1.679688 -3.101562 1.796875 -3.125 C 1.960938 -3.175781 2.078125 -3.238281 2.140625 -3.3125 C 2.210938 -3.394531 2.253906 -3.472656 2.265625 -3.546875 C 2.273438 -3.617188 2.265625 -3.675781 2.234375 -3.71875 Z M 2.234375 -3.71875 "/></g></g></g><g fill="#000000" fill-opacity="1"><g transform="translate(97.296989, 81.611138)"><g><path d="M 2.71875 -6.4375 C 2.769531 -6.425781 2.800781 -6.390625 2.8125 -6.328125 C 2.832031 -6.265625 2.832031 -6.195312 2.8125 -6.125 C 2.800781 -6.0625 2.769531 -6.03125 2.71875 -6.03125 L 0.9375 -6.046875 L 0.9375 -6 C 0.925781 -5.738281 0.90625 -5.425781 0.875 -5.0625 C 0.832031 -4.289062 0.8125 -3.507812 0.8125 -2.71875 C 0.8125 -2.445312 0.832031 -2.070312 0.875 -1.59375 C 0.914062 -1.125 0.992188 -0.703125 1.109375 -0.328125 C 1.109375 -0.296875 1.128906 -0.25 1.171875 -0.1875 C 1.222656 -0.101562 1.269531 -0.015625 1.3125 0.078125 C 1.351562 0.179688 1.375 0.265625 1.375 0.328125 C 1.375 0.398438 1.320312 0.421875 1.21875 0.390625 C 0.90625 0.285156 0.664062 0.0351562 0.5 -0.359375 C 0.332031 -0.765625 0.210938 -1.234375 0.140625 -1.765625 C 0.0664062 -2.304688 0.03125 -2.832031 0.03125 -3.34375 C 0.03125 -3.851562 0.0351562 -4.269531 0.046875 -4.59375 C 0.0546875 -4.8125 0.0664062 -5.03125 0.078125 -5.25 C 0.0859375 -5.519531 0.09375 -5.789062 0.09375 -6.0625 L -1.25 -6.09375 C -1.363281 -6.09375 -1.425781 -6.113281 -1.4375 -6.15625 C -1.457031 -6.195312 -1.445312 -6.238281 -1.40625 -6.28125 C -1.363281 -6.332031 -1.3125 -6.363281 -1.25 -6.375 L 0.109375 -6.390625 L 0.203125 -7.703125 C 0.210938 -7.910156 0.226562 -8.125 0.25 -8.34375 C 0.25 -8.457031 0.253906 -8.570312 0.265625 -8.6875 C 0.265625 -8.851562 0.300781 -9.007812 0.375 -9.15625 C 0.476562 -9.289062 0.597656 -9.34375 0.734375 -9.3125 C 0.859375 -9.269531 0.925781 -9.179688 0.9375 -9.046875 C 0.957031 -8.835938 0.96875 -8.625 0.96875 -8.40625 C 0.96875 -8.289062 0.96875 -8.171875 0.96875 -8.046875 C 0.96875 -7.910156 0.96875 -7.773438 0.96875 -7.640625 L 0.9375 -6.40625 Z M 2.71875 -6.4375 "/></g></g></g><g fill="#000000" fill-opacity="1"><g transform="translate(99.305552, 81.611138)"><g/></g></g><g fill="#000000" fill-opacity="1"><g transform="translate(102.116427, 81.611138)"><g><path d="M -3.125 -14.75 C -3.164062 -14.75 -3.207031 -14.753906 -3.25 -14.765625 C -3.28125 -14.765625 -3.304688 -14.769531 -3.328125 -14.78125 C -3.359375 -14.800781 -3.382812 -14.832031 -3.40625 -14.875 C -3.4375 -14.976562 -3.410156 -15.054688 -3.328125 -15.109375 C -3.234375 -15.191406 -3.132812 -15.25 -3.03125 -15.28125 C -2.164062 -15.394531 -1.3125 -15.550781 -0.46875 -15.75 C 0.0820312 -15.875 0.640625 -15.988281 1.203125 -16.09375 C 2.304688 -16.289062 3.410156 -16.488281 4.515625 -16.6875 C 5.648438 -16.90625 6.789062 -17.117188 7.9375 -17.328125 C 9.5625 -17.597656 11.191406 -17.851562 12.828125 -18.09375 C 14.722656 -18.382812 16.625 -18.53125 18.53125 -18.53125 C 18.8125 -18.53125 19.085938 -18.515625 19.359375 -18.484375 L 19.453125 -18.484375 C 19.492188 -18.484375 19.53125 -18.46875 19.5625 -18.4375 L 19.65625 -18.4375 C 19.757812 -18.4375 19.816406 -18.378906 19.828125 -18.265625 C 19.828125 -18.203125 19.8125 -18.15625 19.78125 -18.125 C 19.757812 -18.09375 19.726562 -18.066406 19.6875 -18.046875 C 19.59375 -18.015625 19.5 -18 19.40625 -18 C 17.875 -17.96875 16.347656 -17.863281 14.828125 -17.6875 C 13.304688 -17.507812 11.789062 -17.296875 10.28125 -17.046875 C 10.1875 -17.023438 10.101562 -17.007812 10.03125 -17 C 9.414062 -16.894531 8.800781 -16.789062 8.1875 -16.6875 C 8.007812 -16.664062 7.894531 -16.625 7.84375 -16.5625 C 7.789062 -16.507812 7.78125 -16.398438 7.8125 -16.234375 C 7.9375 -14.847656 8 -13.457031 8 -12.0625 C 8 -10.664062 7.976562 -9.265625 7.9375 -7.859375 C 7.925781 -7.285156 7.914062 -6.710938 7.90625 -6.140625 C 7.851562 -3.359375 7.695312 -0.582031 7.4375 2.1875 C 7.394531 2.707031 7.347656 3.222656 7.296875 3.734375 L 7.25 4.4375 C 7.238281 4.46875 7.234375 4.5 7.234375 4.53125 C 7.234375 4.6875 7.203125 4.835938 7.140625 4.984375 C 7.085938 5.097656 7.003906 5.171875 6.890625 5.203125 C 6.828125 5.210938 6.773438 5.207031 6.734375 5.1875 C 6.722656 5.175781 6.710938 5.164062 6.703125 5.15625 L 6.671875 5.15625 C 6.617188 5.175781 6.570312 5.175781 6.53125 5.15625 C 6.488281 5.132812 6.460938 5.09375 6.453125 5.03125 C 6.441406 4.894531 6.445312 4.753906 6.46875 4.609375 L 6.46875 4.546875 C 6.644531 2.203125 6.78125 -0.144531 6.875 -2.5 C 6.894531 -3.070312 6.910156 -3.640625 6.921875 -4.203125 C 6.921875 -4.460938 6.921875 -4.722656 6.921875 -4.984375 C 7.003906 -7.691406 7.046875 -10.398438 7.046875 -13.109375 C 7.035156 -14.117188 6.984375 -15.128906 6.890625 -16.140625 C 6.890625 -16.296875 6.859375 -16.394531 6.796875 -16.4375 L 6.78125 -16.4375 C 6.757812 -16.4375 6.734375 -16.4375 6.703125 -16.4375 C 5.515625 -16.226562 4.332031 -16.015625 3.15625 -15.796875 C 2.070312 -15.609375 0.992188 -15.410156 -0.078125 -15.203125 C -0.828125 -15.054688 -1.578125 -14.914062 -2.328125 -14.78125 C -2.347656 -14.769531 -2.363281 -14.765625 -2.375 -14.765625 C -2.59375 -14.703125 -2.8125 -14.691406 -3.03125 -14.734375 C -3.0625 -14.734375 -3.09375 -14.738281 -3.125 -14.75 Z M -3.125 -14.75 "/></g></g></g><g fill="#000000" fill-opacity="1"><g transform="translate(111.788492, 81.611138)"><g><path d="M 3.53125 -2.65625 C 3.601562 -2.800781 3.648438 -2.867188 3.671875 -2.859375 C 3.703125 -2.847656 3.707031 -2.785156 3.6875 -2.671875 C 3.675781 -2.566406 3.65625 -2.453125 3.625 -2.328125 C 3.582031 -2.117188 3.5 -1.878906 3.375 -1.609375 C 3.257812 -1.347656 3.128906 -1.109375 2.984375 -0.890625 C 2.773438 -0.585938 2.507812 -0.359375 2.1875 -0.203125 C 1.875 -0.046875 1.585938 -0.00390625 1.328125 -0.078125 C 1.078125 -0.160156 0.929688 -0.40625 0.890625 -0.8125 C 0.878906 -1.15625 0.90625 -1.53125 0.96875 -1.9375 C 1 -2.101562 1.023438 -2.269531 1.046875 -2.4375 C 1.046875 -2.488281 1.03125 -2.53125 1 -2.5625 C 0.96875 -2.59375 0.929688 -2.609375 0.890625 -2.609375 C 0.859375 -2.609375 0.820312 -2.609375 0.78125 -2.609375 C 0.570312 -2.566406 0.363281 -2.566406 0.15625 -2.609375 C -0.09375 -2.679688 -0.238281 -2.804688 -0.28125 -2.984375 C -0.320312 -3.160156 -0.316406 -3.390625 -0.265625 -3.671875 C -0.242188 -3.878906 -0.171875 -4.03125 -0.046875 -4.125 C 0.078125 -4.226562 0.226562 -4.273438 0.40625 -4.265625 C 0.632812 -4.234375 0.742188 -4.140625 0.734375 -3.984375 C 0.734375 -3.828125 0.691406 -3.660156 0.609375 -3.484375 C 0.535156 -3.328125 0.492188 -3.195312 0.484375 -3.09375 C 0.484375 -3 0.570312 -2.960938 0.75 -2.984375 C 0.789062 -2.992188 0.835938 -3.007812 0.890625 -3.03125 C 0.953125 -3.050781 1.023438 -3.070312 1.109375 -3.09375 C 1.191406 -3.113281 1.304688 -3.117188 1.453125 -3.109375 C 1.609375 -3.109375 1.710938 -3.035156 1.765625 -2.890625 C 1.816406 -2.742188 1.835938 -2.5625 1.828125 -2.34375 C 1.828125 -2.132812 1.8125 -1.921875 1.78125 -1.703125 C 1.738281 -1.421875 1.71875 -1.179688 1.71875 -0.984375 C 1.71875 -0.785156 1.773438 -0.671875 1.890625 -0.640625 C 2.035156 -0.597656 2.257812 -0.734375 2.5625 -1.046875 C 2.863281 -1.367188 3.1875 -1.90625 3.53125 -2.65625 Z M 3.53125 -2.65625 "/></g></g></g><g fill="#000000" fill-opacity="1"><g transform="translate(115.174822, 81.611138)"><g><path d="M 4.921875 -2.65625 C 5.003906 -2.695312 5.082031 -2.726562 5.15625 -2.75 C 5.226562 -2.769531 5.273438 -2.765625 5.296875 -2.734375 C 5.316406 -2.710938 5.285156 -2.648438 5.203125 -2.546875 C 4.941406 -2.253906 4.632812 -1.988281 4.28125 -1.75 C 3.925781 -1.507812 3.566406 -1.304688 3.203125 -1.140625 C 2.910156 -1.015625 2.601562 -0.910156 2.28125 -0.828125 C 1.957031 -0.753906 1.632812 -0.738281 1.3125 -0.78125 C 1 -0.820312 0.710938 -0.960938 0.453125 -1.203125 C 0.140625 -1.515625 -0.0234375 -1.910156 -0.046875 -2.390625 C -0.078125 -2.867188 0.03125 -3.269531 0.28125 -3.59375 C 0.613281 -3.96875 1.03125 -4.207031 1.53125 -4.3125 C 2.039062 -4.414062 2.5 -4.332031 2.90625 -4.0625 C 3.101562 -3.925781 3.179688 -3.765625 3.140625 -3.578125 C 3.109375 -3.398438 3.007812 -3.234375 2.84375 -3.078125 C 2.6875 -2.921875 2.515625 -2.800781 2.328125 -2.71875 C 2.035156 -2.601562 1.769531 -2.578125 1.53125 -2.640625 C 1.300781 -2.710938 1.125 -2.804688 1 -2.921875 C 0.90625 -2.890625 0.847656 -2.757812 0.828125 -2.53125 C 0.765625 -2.101562 0.894531 -1.757812 1.21875 -1.5 C 1.488281 -1.289062 1.828125 -1.234375 2.234375 -1.328125 C 2.648438 -1.421875 3.070312 -1.582031 3.5 -1.8125 C 3.9375 -2.050781 4.320312 -2.273438 4.65625 -2.484375 C 4.757812 -2.535156 4.847656 -2.59375 4.921875 -2.65625 Z M 2.234375 -3.71875 C 2.191406 -3.789062 2.113281 -3.816406 2 -3.796875 C 1.882812 -3.785156 1.769531 -3.75 1.65625 -3.6875 C 1.539062 -3.632812 1.4375 -3.578125 1.34375 -3.515625 C 1.257812 -3.460938 1.222656 -3.421875 1.234375 -3.390625 C 1.234375 -3.378906 1.242188 -3.351562 1.265625 -3.3125 C 1.285156 -3.28125 1.316406 -3.242188 1.359375 -3.203125 C 1.398438 -3.160156 1.453125 -3.128906 1.515625 -3.109375 C 1.585938 -3.097656 1.679688 -3.101562 1.796875 -3.125 C 1.960938 -3.175781 2.078125 -3.238281 2.140625 -3.3125 C 2.210938 -3.394531 2.253906 -3.472656 2.265625 -3.546875 C 2.273438 -3.617188 2.265625 -3.675781 2.234375 -3.71875 Z M 2.234375 -3.71875 "/></g></g></g><g fill="#000000" fill-opacity="1"><g transform="translate(119.861463, 81.611138)"><g><path d="M 8.1875 -3.203125 C 8.25 -3.285156 8.316406 -3.347656 8.390625 -3.390625 C 8.472656 -3.429688 8.519531 -3.429688 8.53125 -3.390625 C 8.539062 -3.347656 8.5 -3.253906 8.40625 -3.109375 C 8.1875 -2.773438 7.863281 -2.460938 7.4375 -2.171875 C 7.019531 -1.878906 6.554688 -1.628906 6.046875 -1.421875 C 5.535156 -1.222656 5.035156 -1.085938 4.546875 -1.015625 C 4.054688 -0.953125 3.640625 -0.984375 3.296875 -1.109375 C 2.960938 -1.242188 2.757812 -1.503906 2.6875 -1.890625 C 2.394531 -1.421875 2.050781 -1.054688 1.65625 -0.796875 C 1.269531 -0.535156 0.90625 -0.425781 0.5625 -0.46875 C 0.164062 -0.519531 -0.0976562 -0.664062 -0.234375 -0.90625 C -0.367188 -1.15625 -0.410156 -1.4375 -0.359375 -1.75 C -0.316406 -2.070312 -0.222656 -2.378906 -0.078125 -2.671875 C 0.0234375 -2.878906 0.175781 -3.078125 0.375 -3.265625 C 0.582031 -3.460938 0.800781 -3.613281 1.03125 -3.71875 C 1.300781 -3.851562 1.578125 -3.910156 1.859375 -3.890625 C 2.140625 -3.878906 2.4375 -3.789062 2.75 -3.625 C 2.75 -3.625 2.753906 -3.632812 2.765625 -3.65625 C 2.765625 -3.6875 2.769531 -3.722656 2.78125 -3.765625 C 2.789062 -3.804688 2.816406 -3.84375 2.859375 -3.875 C 2.921875 -3.914062 2.992188 -3.945312 3.078125 -3.96875 C 3.160156 -4 3.242188 -4.007812 3.328125 -4 C 3.453125 -3.96875 3.53125 -3.898438 3.5625 -3.796875 C 3.59375 -3.691406 3.597656 -3.578125 3.578125 -3.453125 C 3.566406 -3.328125 3.546875 -3.21875 3.515625 -3.125 C 3.515625 -3.113281 3.515625 -3.097656 3.515625 -3.078125 C 3.378906 -2.546875 3.425781 -2.171875 3.65625 -1.953125 C 3.882812 -1.734375 4.210938 -1.628906 4.640625 -1.640625 C 5.078125 -1.660156 5.539062 -1.753906 6.03125 -1.921875 C 6.519531 -2.085938 6.960938 -2.285156 7.359375 -2.515625 C 7.753906 -2.753906 8.03125 -2.984375 8.1875 -3.203125 Z M 0.71875 -1.1875 C 0.882812 -1.070312 1.066406 -1.082031 1.265625 -1.21875 C 1.460938 -1.363281 1.65625 -1.566406 1.84375 -1.828125 C 2.03125 -2.085938 2.179688 -2.34375 2.296875 -2.59375 C 2.421875 -2.851562 2.492188 -3.050781 2.515625 -3.1875 C 2.117188 -3.394531 1.78125 -3.429688 1.5 -3.296875 C 1.226562 -3.171875 1.015625 -2.957031 0.859375 -2.65625 C 0.703125 -2.363281 0.613281 -2.070312 0.59375 -1.78125 C 0.570312 -1.488281 0.613281 -1.289062 0.71875 -1.1875 Z M 0.71875 -1.1875 "/></g></g></g><g fill="#000000" fill-opacity="1"><g transform="translate(127.773965, 81.611138)"><g><path d="M 2.71875 -6.4375 C 2.769531 -6.425781 2.800781 -6.390625 2.8125 -6.328125 C 2.832031 -6.265625 2.832031 -6.195312 2.8125 -6.125 C 2.800781 -6.0625 2.769531 -6.03125 2.71875 -6.03125 L 0.9375 -6.046875 L 0.9375 -6 C 0.925781 -5.738281 0.90625 -5.425781 0.875 -5.0625 C 0.832031 -4.289062 0.8125 -3.507812 0.8125 -2.71875 C 0.8125 -2.445312 0.832031 -2.070312 0.875 -1.59375 C 0.914062 -1.125 0.992188 -0.703125 1.109375 -0.328125 C 1.109375 -0.296875 1.128906 -0.25 1.171875 -0.1875 C 1.222656 -0.101562 1.269531 -0.015625 1.3125 0.078125 C 1.351562 0.179688 1.375 0.265625 1.375 0.328125 C 1.375 0.398438 1.320312 0.421875 1.21875 0.390625 C 0.90625 0.285156 0.664062 0.0351562 0.5 -0.359375 C 0.332031 -0.765625 0.210938 -1.234375 0.140625 -1.765625 C 0.0664062 -2.304688 0.03125 -2.832031 0.03125 -3.34375 C 0.03125 -3.851562 0.0351562 -4.269531 0.046875 -4.59375 C 0.0546875 -4.8125 0.0664062 -5.03125 0.078125 -5.25 C 0.0859375 -5.519531 0.09375 -5.789062 0.09375 -6.0625 L -1.25 -6.09375 C -1.363281 -6.09375 -1.425781 -6.113281 -1.4375 -6.15625 C -1.457031 -6.195312 -1.445312 -6.238281 -1.40625 -6.28125 C -1.363281 -6.332031 -1.3125 -6.363281 -1.25 -6.375 L 0.109375 -6.390625 L 0.203125 -7.703125 C 0.210938 -7.910156 0.226562 -8.125 0.25 -8.34375 C 0.25 -8.457031 0.253906 -8.570312 0.265625 -8.6875 C 0.265625 -8.851562 0.300781 -9.007812 0.375 -9.15625 C 0.476562 -9.289062 0.597656 -9.34375 0.734375 -9.3125 C 0.859375 -9.269531 0.925781 -9.179688 0.9375 -9.046875 C 0.957031 -8.835938 0.96875 -8.625 0.96875 -8.40625 C 0.96875 -8.289062 0.96875 -8.171875 0.96875 -8.046875 C 0.96875 -7.910156 0.96875 -7.773438 0.96875 -7.640625 L 0.9375 -6.40625 Z M 2.71875 -6.4375 "/></g></g></g><g fill="#000000" fill-opacity="1"><g transform="translate(129.782529, 81.611138)"><g><path d="M 1.640625 -2.015625 C 1.765625 -1.847656 1.84375 -1.675781 1.875 -1.5 C 1.914062 -1.332031 1.929688 -1.144531 1.921875 -0.9375 C 1.910156 -0.738281 1.84375 -0.5625 1.71875 -0.40625 C 1.601562 -0.25 1.40625 -0.148438 1.125 -0.109375 C 0.832031 -0.0859375 0.570312 -0.128906 0.34375 -0.234375 C 0.125 -0.347656 -0.0078125 -0.507812 -0.0625 -0.71875 C -0.125 -0.925781 -0.0546875 -1.171875 0.140625 -1.453125 C 0.273438 -1.597656 0.429688 -1.726562 0.609375 -1.84375 C 0.671875 -1.882812 0.734375 -1.929688 0.796875 -1.984375 C 0.578125 -2.222656 0.367188 -2.460938 0.171875 -2.703125 C -0.015625 -2.953125 -0.132812 -3.175781 -0.1875 -3.375 C -0.25 -3.601562 -0.210938 -3.816406 -0.078125 -4.015625 C 0.0546875 -4.210938 0.289062 -4.328125 0.625 -4.359375 C 0.78125 -4.367188 0.929688 -4.359375 1.078125 -4.328125 C 1.222656 -4.296875 1.351562 -4.226562 1.46875 -4.125 C 1.5 -4.101562 1.519531 -4.078125 1.53125 -4.046875 C 1.539062 -4.015625 1.535156 -3.972656 1.515625 -3.921875 C 1.472656 -3.847656 1.410156 -3.8125 1.328125 -3.8125 C 1.265625 -3.8125 1.207031 -3.816406 1.15625 -3.828125 C 1.09375 -3.859375 1.039062 -3.882812 1 -3.90625 C 0.96875 -3.925781 0.9375 -3.941406 0.90625 -3.953125 C 0.800781 -3.992188 0.71875 -3.988281 0.65625 -3.9375 C 0.601562 -3.882812 0.578125 -3.804688 0.578125 -3.703125 C 0.578125 -3.515625 0.648438 -3.3125 0.796875 -3.09375 C 0.953125 -2.882812 1.097656 -2.6875 1.234375 -2.5 C 1.296875 -2.4375 1.347656 -2.378906 1.390625 -2.328125 C 1.429688 -2.285156 1.515625 -2.179688 1.640625 -2.015625 Z M 0.890625 -0.53125 C 0.992188 -0.539062 1.0625 -0.597656 1.09375 -0.703125 C 1.125 -0.816406 1.132812 -0.941406 1.125 -1.078125 C 1.125 -1.210938 1.117188 -1.3125 1.109375 -1.375 C 1.085938 -1.414062 1.054688 -1.441406 1.015625 -1.453125 C 0.984375 -1.460938 0.953125 -1.460938 0.921875 -1.453125 C 0.804688 -1.347656 0.71875 -1.222656 0.65625 -1.078125 C 0.601562 -0.929688 0.609375 -0.800781 0.671875 -0.6875 C 0.691406 -0.644531 0.71875 -0.609375 0.75 -0.578125 C 0.789062 -0.554688 0.835938 -0.539062 0.890625 -0.53125 Z M 0.890625 -0.53125 "/></g></g></g><g fill="#000000" fill-opacity="1"><g transform="translate(46.277421, 104.134081)"><g><path d="M 11.546875 -12.015625 C 12.335938 -11.523438 12.273438 -10.945312 11.359375 -10.28125 C 10.441406 -9.632812 7.332031 -8.300781 2.03125 -6.28125 C 1.976562 -6.257812 1.941406 -6.234375 1.921875 -6.203125 C 1.898438 -6.171875 1.898438 -6.148438 1.921875 -6.140625 C 1.953125 -6.140625 1.984375 -6.140625 2.015625 -6.140625 C 2.023438 -6.140625 2.03125 -6.140625 2.03125 -6.140625 C 2.21875 -6.140625 2.398438 -6.148438 2.578125 -6.171875 C 2.773438 -6.191406 2.972656 -6.207031 3.171875 -6.21875 C 3.515625 -6.25 3.859375 -6.273438 4.203125 -6.296875 C 5.097656 -6.367188 5.984375 -6.316406 6.859375 -6.140625 C 7.378906 -6.035156 7.863281 -5.847656 8.3125 -5.578125 C 9.082031 -5.097656 9.519531 -4.414062 9.625 -3.53125 C 9.6875 -2.882812 9.628906 -2.242188 9.453125 -1.609375 C 9.203125 -0.710938 8.847656 0.132812 8.390625 0.9375 C 7.960938 1.71875 7.488281 2.46875 6.96875 3.1875 C 6.457031 3.90625 5.890625 4.578125 5.265625 5.203125 C 5.046875 5.441406 4.8125 5.660156 4.5625 5.859375 C 4.3125 6.054688 4.035156 6.222656 3.734375 6.359375 C 3.566406 6.429688 3.394531 6.492188 3.21875 6.546875 C 2.613281 6.691406 2.117188 6.519531 1.734375 6.03125 C 1.554688 5.789062 1.414062 5.523438 1.3125 5.234375 C 1.113281 4.691406 0.984375 4.132812 0.921875 3.5625 C 0.753906 2.257812 0.6875 1.15625 0.71875 0.25 C 0.78125 -1.863281 0.957031 -3.757812 1.25 -5.4375 C 1.257812 -5.53125 1.253906 -5.601562 1.234375 -5.65625 C 1.222656 -5.71875 1.175781 -5.769531 1.09375 -5.8125 C 1.03125 -5.851562 0.992188 -5.90625 0.984375 -5.96875 C 0.984375 -6.03125 1.007812 -6.09375 1.0625 -6.15625 C 1.0625 -6.164062 1.066406 -6.171875 1.078125 -6.171875 C 1.085938 -6.179688 1.097656 -6.1875 1.109375 -6.1875 C 1.253906 -6.257812 1.351562 -6.359375 1.40625 -6.484375 C 1.457031 -6.617188 1.492188 -6.753906 1.515625 -6.890625 C 1.523438 -6.929688 1.535156 -6.96875 1.546875 -7 C 1.734375 -7.882812 1.953125 -8.765625 2.203125 -9.640625 C 2.234375 -9.753906 2.269531 -9.867188 2.3125 -9.984375 C 2.351562 -10.054688 2.414062 -10.101562 2.5 -10.125 C 2.550781 -10.132812 2.59375 -10.125 2.625 -10.09375 C 2.664062 -10.070312 2.6875 -10.039062 2.6875 -10 C 2.664062 -9.914062 2.640625 -9.832031 2.609375 -9.75 C 2.597656 -9.71875 2.585938 -9.6875 2.578125 -9.65625 C 2.335938 -8.757812 2.128906 -7.859375 1.953125 -6.953125 C 1.929688 -6.785156 2 -6.734375 2.15625 -6.796875 C 3.070312 -7.191406 3.992188 -7.570312 4.921875 -7.9375 C 5.703125 -8.25 6.472656 -8.5625 7.234375 -8.875 C 8.003906 -9.195312 8.769531 -9.535156 9.53125 -9.890625 C 9.957031 -10.085938 10.375 -10.300781 10.78125 -10.53125 C 10.988281 -10.65625 11.175781 -10.796875 11.34375 -10.953125 C 11.601562 -11.191406 11.582031 -11.410156 11.28125 -11.609375 C 11.132812 -11.691406 10.976562 -11.765625 10.8125 -11.828125 C 10.40625 -11.972656 9.976562 -12.066406 9.53125 -12.109375 C 8.601562 -12.210938 7.664062 -12.222656 6.71875 -12.140625 C 4.625 -11.960938 2.582031 -11.550781 0.59375 -10.90625 C -0.113281 -10.6875 -0.800781 -10.40625 -1.46875 -10.0625 C -1.519531 -10.039062 -1.566406 -10.015625 -1.609375 -9.984375 C -1.785156 -9.898438 -1.957031 -9.804688 -2.125 -9.703125 C -2.300781 -9.597656 -2.460938 -9.476562 -2.609375 -9.34375 C -2.660156 -9.300781 -2.722656 -9.269531 -2.796875 -9.25 C -2.867188 -9.226562 -2.925781 -9.25 -2.96875 -9.3125 C -2.988281 -9.332031 -2.992188 -9.351562 -2.984375 -9.375 C -2.972656 -9.394531 -2.960938 -9.421875 -2.953125 -9.453125 C -2.878906 -9.535156 -2.796875 -9.609375 -2.703125 -9.671875 C -2.617188 -9.734375 -2.53125 -9.789062 -2.4375 -9.84375 C -1.832031 -10.21875 -1.203125 -10.539062 -0.546875 -10.8125 C 0.691406 -11.289062 1.984375 -11.6875 3.328125 -12 C 4.679688 -12.320312 5.898438 -12.515625 6.984375 -12.578125 C 8.078125 -12.640625 9.203125 -12.582031 10.359375 -12.40625 C 10.867188 -12.300781 11.265625 -12.171875 11.546875 -12.015625 Z M 2.046875 -5.640625 C 1.921875 -5.617188 1.851562 -5.546875 1.84375 -5.421875 C 1.820312 -5.253906 1.796875 -5.085938 1.765625 -4.921875 C 1.722656 -4.628906 1.6875 -4.34375 1.65625 -4.0625 C 1.59375 -3.375 1.535156 -2.695312 1.484375 -2.03125 C 1.441406 -1.375 1.425781 -0.742188 1.4375 -0.140625 C 1.425781 0.515625 1.4375 1.140625 1.46875 1.734375 C 1.5 2.335938 1.554688 2.925781 1.640625 3.5 C 1.710938 3.988281 1.832031 4.460938 2 4.921875 C 2.09375 5.171875 2.21875 5.398438 2.375 5.609375 C 2.695312 5.992188 3.082031 6.085938 3.53125 5.890625 C 3.78125 5.773438 4.007812 5.628906 4.21875 5.453125 C 4.46875 5.242188 4.703125 5.019531 4.921875 4.78125 C 6.160156 3.4375 7.175781 1.929688 7.96875 0.265625 C 8.28125 -0.359375 8.519531 -1.015625 8.6875 -1.703125 C 8.789062 -2.148438 8.835938 -2.601562 8.828125 -3.0625 C 8.796875 -3.59375 8.660156 -4.046875 8.421875 -4.421875 C 8.179688 -4.804688 7.820312 -5.113281 7.34375 -5.34375 C 6.914062 -5.53125 6.472656 -5.660156 6.015625 -5.734375 C 5.421875 -5.816406 4.828125 -5.84375 4.234375 -5.8125 C 3.648438 -5.78125 3.0625 -5.734375 2.46875 -5.671875 C 2.320312 -5.660156 2.179688 -5.648438 2.046875 -5.640625 Z M 2.046875 -5.640625 "/></g></g><g transform="translate(56.463627, 104.134081)"><g><path d="M 2.265625 -2.625 C 2.390625 -2.632812 2.472656 -2.609375 2.515625 -2.546875 C 2.554688 -2.484375 2.570312 -2.265625 2.5625 -1.890625 C 2.5625 -1.515625 2.546875 -1.078125 2.515625 -0.578125 C 2.484375 -0.078125 2.445312 0.382812 2.40625 0.8125 C 2.363281 1.238281 2.332031 1.535156 2.3125 1.703125 C 2.144531 2.671875 1.84375 3.476562 1.40625 4.125 C 0.96875 4.78125 0.46875 5.285156 -0.09375 5.640625 C -0.65625 6.003906 -1.207031 6.222656 -1.75 6.296875 C -2.289062 6.367188 -2.75 6.3125 -3.125 6.125 C -3.507812 5.945312 -3.738281 5.644531 -3.8125 5.21875 C -3.882812 4.800781 -3.726562 4.273438 -3.34375 3.640625 C -2.96875 3.003906 -2.296875 2.269531 -1.328125 1.4375 C -0.941406 1.113281 -0.410156 0.722656 0.265625 0.265625 C 0.953125 -0.179688 1.492188 -0.488281 1.890625 -0.65625 C 1.898438 -0.726562 1.90625 -0.804688 1.90625 -0.890625 C 1.738281 -0.703125 1.566406 -0.59375 1.390625 -0.5625 C 1.222656 -0.539062 1.070312 -0.539062 0.9375 -0.5625 C 0.925781 -0.5625 0.914062 -0.5625 0.90625 -0.5625 C 0.644531 -0.59375 0.441406 -0.710938 0.296875 -0.921875 C 0.148438 -1.128906 0.0546875 -1.363281 0.015625 -1.625 C -0.0234375 -1.894531 -0.015625 -2.132812 0.046875 -2.34375 C 0.109375 -2.550781 0.226562 -2.675781 0.40625 -2.71875 C 0.46875 -2.726562 0.539062 -2.734375 0.625 -2.734375 C 0.71875 -2.734375 0.789062 -2.722656 0.84375 -2.703125 C 0.90625 -2.679688 0.929688 -2.632812 0.921875 -2.5625 C 0.859375 -2.351562 0.820312 -2.125 0.8125 -1.875 C 0.8125 -1.625 0.835938 -1.40625 0.890625 -1.21875 C 0.941406 -1.03125 1.03125 -0.925781 1.15625 -0.90625 C 1.289062 -0.894531 1.472656 -1.019531 1.703125 -1.28125 C 1.804688 -1.414062 1.878906 -1.554688 1.921875 -1.703125 C 1.921875 -1.867188 1.921875 -2.023438 1.921875 -2.171875 C 1.910156 -2.304688 1.90625 -2.414062 1.90625 -2.5 C 1.9375 -2.550781 1.984375 -2.582031 2.046875 -2.59375 C 2.117188 -2.613281 2.179688 -2.625 2.234375 -2.625 C 2.242188 -2.625 2.253906 -2.625 2.265625 -2.625 Z M 1.875 0.046875 C 1.875 0.046875 1.875 0.0390625 1.875 0.03125 C 1.875 -0.0078125 1.875 -0.0546875 1.875 -0.109375 C 1.882812 -0.160156 1.882812 -0.203125 1.875 -0.234375 C 1.863281 -0.265625 1.835938 -0.269531 1.796875 -0.25 C 1.765625 -0.21875 1.71875 -0.1875 1.65625 -0.15625 C 1.320312 0.0703125 0.882812 0.390625 0.34375 0.796875 C -0.195312 1.203125 -0.742188 1.660156 -1.296875 2.171875 C -1.398438 2.273438 -1.550781 2.429688 -1.75 2.640625 C -1.957031 2.847656 -2.171875 3.082031 -2.390625 3.34375 C -2.609375 3.601562 -2.800781 3.875 -2.96875 4.15625 C -3.132812 4.4375 -3.238281 4.703125 -3.28125 4.953125 C -3.320312 5.203125 -3.265625 5.421875 -3.109375 5.609375 C -2.898438 5.816406 -2.601562 5.90625 -2.21875 5.875 C -1.832031 5.851562 -1.410156 5.710938 -0.953125 5.453125 C -0.492188 5.191406 -0.0546875 4.8125 0.359375 4.3125 C 0.785156 3.820312 1.140625 3.21875 1.421875 2.5 C 1.703125 1.789062 1.851562 0.972656 1.875 0.046875 Z M 1.875 0.046875 "/></g></g><g transform="translate(59.657204, 104.134081)"><g/></g><g transform="translate(61.667536, 104.134081)"><g><path d="M 11.21875 -2.40625 C 11.25 -2.394531 11.273438 -2.378906 11.296875 -2.359375 C 11.316406 -2.335938 11.320312 -2.3125 11.3125 -2.28125 C 11.300781 -2.257812 11.285156 -2.234375 11.265625 -2.203125 C 11.253906 -2.191406 11.242188 -2.179688 11.234375 -2.171875 C 11.234375 -2.171875 11.226562 -2.164062 11.21875 -2.15625 C 11.207031 -2.15625 11.203125 -2.15625 11.203125 -2.15625 C 11.015625 -2.164062 10.894531 -2.117188 10.84375 -2.015625 C 10.800781 -1.910156 10.773438 -1.773438 10.765625 -1.609375 C 10.710938 -0.472656 10.65625 0.660156 10.59375 1.796875 C 10.570312 2.046875 10.554688 2.296875 10.546875 2.546875 C 10.535156 2.679688 10.515625 2.816406 10.484375 2.953125 C 10.460938 3.054688 10.390625 3.109375 10.265625 3.109375 C 10.242188 3.109375 10.222656 3.101562 10.203125 3.09375 C 10.179688 3.09375 10.160156 3.078125 10.140625 3.046875 C 10.046875 2.847656 10.039062 1.9375 10.125 0.3125 C 10.195312 -1.113281 10.148438 -1.878906 9.984375 -1.984375 C 9.878906 -2.054688 9.613281 -2.078125 9.1875 -2.046875 L 1.984375 -1.53125 C 1.941406 -1.53125 1.898438 -1.53125 1.859375 -1.53125 C 1.847656 -1.53125 1.84375 -1.53125 1.84375 -1.53125 C 1.6875 -1.539062 1.457031 -0.953125 1.15625 0.234375 C 0.851562 1.429688 0.65625 2.300781 0.5625 2.84375 C 0.46875 3.382812 0.316406 3.6875 0.109375 3.75 C 0.078125 3.769531 0.046875 3.78125 0.015625 3.78125 C -0.00390625 3.789062 -0.0351562 3.789062 -0.078125 3.78125 C -0.109375 3.757812 -0.128906 3.734375 -0.140625 3.703125 C -0.160156 3.671875 -0.171875 3.640625 -0.171875 3.609375 C -0.171875 3.585938 -0.171875 3.570312 -0.171875 3.5625 C -0.171875 3.375 -0.15625 3.191406 -0.125 3.015625 C 0.113281 1.710938 0.445312 0.441406 0.875 -0.796875 C 0.882812 -0.835938 0.898438 -0.882812 0.921875 -0.9375 C 0.953125 -1.039062 0.984375 -1.148438 1.015625 -1.265625 C 1.046875 -1.390625 0.992188 -1.445312 0.859375 -1.4375 C 0.585938 -1.425781 0.320312 -1.410156 0.0625 -1.390625 C 0.0507812 -1.390625 0.0351562 -1.390625 0.015625 -1.390625 C -0.179688 -1.367188 -0.382812 -1.351562 -0.59375 -1.34375 C -0.96875 -1.3125 -1.34375 -1.285156 -1.71875 -1.265625 C -1.71875 -1.265625 -1.722656 -1.265625 -1.734375 -1.265625 C -1.960938 -1.234375 -2.191406 -1.238281 -2.421875 -1.28125 C -2.441406 -1.289062 -2.460938 -1.300781 -2.484375 -1.3125 C -2.515625 -1.332031 -2.523438 -1.351562 -2.515625 -1.375 C -2.515625 -1.4375 -2.5 -1.476562 -2.46875 -1.5 C -2.4375 -1.53125 -2.398438 -1.550781 -2.359375 -1.5625 C -2.316406 -1.570312 -2.273438 -1.578125 -2.234375 -1.578125 C -2.210938 -1.578125 -2.195312 -1.578125 -2.1875 -1.578125 C -1.832031 -1.597656 -1.476562 -1.625 -1.125 -1.65625 C -0.476562 -1.707031 0.175781 -1.75 0.84375 -1.78125 C 1.113281 -1.800781 1.289062 -1.929688 1.375 -2.171875 C 2.113281 -4.210938 2.988281 -6.179688 4 -8.078125 C 4.320312 -8.703125 4.671875 -9.3125 5.046875 -9.90625 C 5.429688 -10.507812 5.835938 -11.085938 6.265625 -11.640625 C 6.648438 -12.117188 7.070312 -12.554688 7.53125 -12.953125 C 7.78125 -13.171875 8.066406 -13.347656 8.390625 -13.484375 C 8.546875 -13.546875 8.71875 -13.582031 8.90625 -13.59375 C 9.25 -13.601562 9.539062 -13.46875 9.78125 -13.1875 C 9.976562 -12.957031 10.128906 -12.703125 10.234375 -12.421875 C 10.429688 -11.890625 10.566406 -11.351562 10.640625 -10.8125 C 10.765625 -9.96875 10.835938 -9.117188 10.859375 -8.265625 C 10.878906 -7.390625 10.882812 -6.515625 10.875 -5.640625 C 10.875 -4.765625 10.863281 -3.890625 10.84375 -3.015625 C 10.84375 -3.003906 10.84375 -2.988281 10.84375 -2.96875 C 10.84375 -2.925781 10.835938 -2.882812 10.828125 -2.84375 C 10.816406 -2.71875 10.828125 -2.597656 10.859375 -2.484375 C 10.890625 -2.453125 10.925781 -2.429688 10.96875 -2.421875 C 11.007812 -2.421875 11.046875 -2.421875 11.078125 -2.421875 C 11.128906 -2.421875 11.175781 -2.414062 11.21875 -2.40625 Z M 10.1875 -3.8125 C 10.195312 -3.957031 10.203125 -4.109375 10.203125 -4.265625 C 10.203125 -5.066406 10.195312 -5.863281 10.1875 -6.65625 C 10.175781 -7.457031 10.148438 -8.257812 10.109375 -9.0625 C 10.066406 -9.832031 9.972656 -10.609375 9.828125 -11.390625 C 9.753906 -11.753906 9.644531 -12.113281 9.5 -12.46875 C 9.414062 -12.65625 9.300781 -12.828125 9.15625 -12.984375 C 8.957031 -13.191406 8.738281 -13.253906 8.5 -13.171875 C 8.289062 -13.097656 8.109375 -12.988281 7.953125 -12.84375 C 7.648438 -12.570312 7.367188 -12.28125 7.109375 -11.96875 C 6.710938 -11.5 6.34375 -11.003906 6 -10.484375 C 5.664062 -9.972656 5.351562 -9.441406 5.0625 -8.890625 C 4.5 -7.847656 3.976562 -6.78125 3.5 -5.6875 C 3.019531 -4.601562 2.578125 -3.5 2.171875 -2.375 C 2.160156 -2.351562 2.148438 -2.335938 2.140625 -2.328125 C 2.117188 -2.273438 2.101562 -2.210938 2.09375 -2.140625 C 2.09375 -2.066406 2.144531 -2.03125 2.25 -2.03125 C 6.9375 -2.300781 9.488281 -2.445312 9.90625 -2.46875 C 10.019531 -2.46875 10.09375 -2.484375 10.125 -2.515625 C 10.164062 -2.554688 10.191406 -2.640625 10.203125 -2.765625 C 10.203125 -3.046875 10.195312 -3.328125 10.1875 -3.609375 C 10.1875 -3.671875 10.1875 -3.738281 10.1875 -3.8125 Z M 10.1875 -3.8125 "/></g></g><g transform="translate(73.274429, 104.134081)"><g><path d="M 4.828125 -1.484375 C 4.859375 -1.503906 4.914062 -1.554688 5 -1.640625 C 5.09375 -1.722656 5.1875 -1.800781 5.28125 -1.875 C 5.375 -1.945312 5.441406 -1.984375 5.484375 -1.984375 C 5.535156 -1.984375 5.523438 -1.921875 5.453125 -1.796875 C 5.453125 -1.773438 5.441406 -1.75 5.421875 -1.71875 C 5.398438 -1.695312 5.378906 -1.675781 5.359375 -1.65625 C 5.359375 -1.644531 5.351562 -1.640625 5.34375 -1.640625 C 4.9375 -1.203125 4.617188 -0.894531 4.390625 -0.71875 C 4.160156 -0.550781 3.929688 -0.476562 3.703125 -0.5 C 3.472656 -0.519531 3.316406 -0.625 3.234375 -0.8125 C 3.160156 -1.007812 3.128906 -1.25 3.140625 -1.53125 C 3.148438 -1.8125 3.171875 -2.097656 3.203125 -2.390625 C 3.242188 -2.679688 3.265625 -2.929688 3.265625 -3.140625 C 3.265625 -3.359375 3.207031 -3.484375 3.09375 -3.515625 C 3 -3.515625 2.894531 -3.40625 2.78125 -3.1875 C 2.675781 -2.976562 2.570312 -2.722656 2.46875 -2.421875 C 2.375 -2.128906 2.289062 -1.863281 2.21875 -1.625 C 2.15625 -1.425781 2.113281 -1.296875 2.09375 -1.234375 C 2.050781 -1.140625 1.984375 -1.078125 1.890625 -1.046875 C 1.804688 -1.023438 1.71875 -1.035156 1.625 -1.078125 C 1.5625 -1.109375 1.523438 -1.15625 1.515625 -1.21875 C 1.492188 -1.351562 1.488281 -1.5 1.5 -1.65625 C 1.5 -1.75 1.492188 -1.84375 1.484375 -1.9375 C 1.484375 -1.957031 1.484375 -1.988281 1.484375 -2.03125 C 1.492188 -2.070312 1.492188 -2.113281 1.484375 -2.15625 C 1.484375 -2.207031 1.476562 -2.25 1.46875 -2.28125 C 1.46875 -2.320312 1.453125 -2.34375 1.421875 -2.34375 C 1.378906 -2.34375 1.320312 -2.285156 1.25 -2.171875 C 1.1875 -2.066406 1.117188 -1.9375 1.046875 -1.78125 C 0.984375 -1.625 0.925781 -1.476562 0.875 -1.34375 C 0.832031 -1.238281 0.804688 -1.164062 0.796875 -1.125 C 0.785156 -1.101562 0.773438 -1.085938 0.765625 -1.078125 C 0.710938 -0.960938 0.660156 -0.851562 0.609375 -0.75 C 0.554688 -0.664062 0.484375 -0.613281 0.390625 -0.59375 C 0.160156 -0.5625 0.0390625 -0.648438 0.03125 -0.859375 C 0.0195312 -1.378906 0.00390625 -1.90625 -0.015625 -2.4375 C -0.00390625 -2.53125 0.0390625 -2.59375 0.125 -2.625 C 0.207031 -2.65625 0.289062 -2.65625 0.375 -2.625 C 0.457031 -2.59375 0.503906 -2.539062 0.515625 -2.46875 C 0.523438 -2.4375 0.53125 -2.398438 0.53125 -2.359375 C 0.550781 -2.128906 0.578125 -2.015625 0.609375 -2.015625 C 0.640625 -2.015625 0.710938 -2.113281 0.828125 -2.3125 C 0.890625 -2.414062 0.953125 -2.515625 1.015625 -2.609375 C 1.085938 -2.742188 1.1875 -2.859375 1.3125 -2.953125 C 1.445312 -3.046875 1.570312 -3.070312 1.6875 -3.03125 C 1.8125 -3 1.910156 -2.910156 1.984375 -2.765625 C 2.035156 -2.671875 2.078125 -2.632812 2.109375 -2.65625 C 2.109375 -2.65625 2.113281 -2.65625 2.125 -2.65625 C 2.132812 -2.695312 2.175781 -2.800781 2.25 -2.96875 C 2.332031 -3.132812 2.441406 -3.316406 2.578125 -3.515625 C 2.710938 -3.722656 2.867188 -3.890625 3.046875 -4.015625 C 3.160156 -4.097656 3.28125 -4.140625 3.40625 -4.140625 C 3.539062 -4.148438 3.660156 -4.113281 3.765625 -4.03125 C 3.867188 -3.957031 3.929688 -3.816406 3.953125 -3.609375 C 3.960938 -3.453125 3.953125 -3.222656 3.921875 -2.921875 C 3.890625 -2.628906 3.851562 -2.335938 3.8125 -2.046875 C 3.769531 -1.785156 3.742188 -1.582031 3.734375 -1.4375 C 3.722656 -1.132812 3.773438 -0.96875 3.890625 -0.9375 C 4.003906 -0.914062 4.148438 -0.960938 4.328125 -1.078125 C 4.503906 -1.203125 4.671875 -1.335938 4.828125 -1.484375 Z M 4.828125 -1.484375 "/></g></g><g transform="translate(78.403148, 104.134081)"><g><path d="M 5.859375 -2.28125 C 5.898438 -2.351562 5.945312 -2.398438 6 -2.421875 C 6.050781 -2.453125 6.082031 -2.453125 6.09375 -2.421875 C 6.101562 -2.398438 6.078125 -2.332031 6.015625 -2.21875 C 5.859375 -1.988281 5.628906 -1.769531 5.328125 -1.5625 C 5.023438 -1.351562 4.691406 -1.171875 4.328125 -1.015625 C 3.960938 -0.867188 3.601562 -0.769531 3.25 -0.71875 C 2.90625 -0.675781 2.609375 -0.703125 2.359375 -0.796875 C 2.117188 -0.890625 1.972656 -1.070312 1.921875 -1.34375 C 1.710938 -1.007812 1.46875 -0.75 1.1875 -0.5625 C 0.914062 -0.382812 0.65625 -0.3125 0.40625 -0.34375 C 0.113281 -0.375 -0.078125 -0.476562 -0.171875 -0.65625 C -0.265625 -0.832031 -0.296875 -1.03125 -0.265625 -1.25 C -0.234375 -1.476562 -0.164062 -1.695312 -0.0625 -1.90625 C 0.0195312 -2.0625 0.132812 -2.207031 0.28125 -2.34375 C 0.425781 -2.476562 0.578125 -2.582031 0.734375 -2.65625 C 0.929688 -2.75 1.128906 -2.789062 1.328125 -2.78125 C 1.523438 -2.78125 1.738281 -2.71875 1.96875 -2.59375 C 1.96875 -2.59375 1.96875 -2.597656 1.96875 -2.609375 C 1.96875 -2.628906 1.972656 -2.65625 1.984375 -2.6875 C 1.992188 -2.71875 2.015625 -2.75 2.046875 -2.78125 C 2.085938 -2.800781 2.140625 -2.820312 2.203125 -2.84375 C 2.265625 -2.863281 2.320312 -2.867188 2.375 -2.859375 C 2.46875 -2.835938 2.523438 -2.785156 2.546875 -2.703125 C 2.566406 -2.628906 2.570312 -2.546875 2.5625 -2.453125 C 2.550781 -2.367188 2.535156 -2.296875 2.515625 -2.234375 C 2.515625 -2.222656 2.515625 -2.210938 2.515625 -2.203125 C 2.421875 -1.816406 2.453125 -1.546875 2.609375 -1.390625 C 2.773438 -1.242188 3.015625 -1.175781 3.328125 -1.1875 C 3.640625 -1.195312 3.96875 -1.257812 4.3125 -1.375 C 4.65625 -1.5 4.96875 -1.640625 5.25 -1.796875 C 5.539062 -1.960938 5.742188 -2.125 5.859375 -2.28125 Z M 0.515625 -0.84375 C 0.640625 -0.769531 0.769531 -0.78125 0.90625 -0.875 C 1.039062 -0.976562 1.175781 -1.117188 1.3125 -1.296875 C 1.445312 -1.484375 1.554688 -1.671875 1.640625 -1.859375 C 1.734375 -2.046875 1.785156 -2.1875 1.796875 -2.28125 C 1.515625 -2.425781 1.273438 -2.453125 1.078125 -2.359375 C 0.878906 -2.265625 0.722656 -2.109375 0.609375 -1.890625 C 0.503906 -1.679688 0.441406 -1.472656 0.421875 -1.265625 C 0.410156 -1.066406 0.441406 -0.925781 0.515625 -0.84375 Z M 0.515625 -0.84375 "/></g></g><g transform="translate(84.062151, 104.134081)"><g><path d="M 5.84375 -2.40625 C 5.957031 -2.457031 6.019531 -2.460938 6.03125 -2.421875 C 6.050781 -2.359375 5.988281 -2.238281 5.84375 -2.0625 C 5.707031 -1.882812 5.515625 -1.703125 5.265625 -1.515625 C 4.660156 -1.097656 4.15625 -0.847656 3.75 -0.765625 C 3.34375 -0.679688 3.007812 -0.707031 2.75 -0.84375 C 2.488281 -0.976562 2.296875 -1.160156 2.171875 -1.390625 C 2.015625 -1.648438 1.921875 -1.910156 1.890625 -2.171875 C 1.835938 -2.441406 1.765625 -2.597656 1.671875 -2.640625 C 1.585938 -2.679688 1.492188 -2.640625 1.390625 -2.515625 C 1.296875 -2.398438 1.203125 -2.25 1.109375 -2.0625 C 1.015625 -1.875 0.9375 -1.691406 0.875 -1.515625 C 0.820312 -1.335938 0.789062 -1.203125 0.78125 -1.109375 C 0.757812 -1.054688 0.742188 -1.003906 0.734375 -0.953125 C 0.710938 -0.878906 0.6875 -0.804688 0.65625 -0.734375 C 0.570312 -0.535156 0.4375 -0.460938 0.25 -0.515625 C 0.144531 -0.535156 0.0859375 -0.601562 0.078125 -0.71875 C 0.0664062 -0.789062 0.0625 -0.867188 0.0625 -0.953125 C 0.0625 -1.015625 0.0546875 -1.078125 0.046875 -1.140625 C 0.0351562 -1.617188 0.0234375 -2.097656 0.015625 -2.578125 C 0.015625 -2.640625 0.0390625 -2.679688 0.09375 -2.703125 C 0.15625 -2.722656 0.222656 -2.734375 0.296875 -2.734375 C 0.367188 -2.734375 0.429688 -2.722656 0.484375 -2.703125 C 0.535156 -2.679688 0.566406 -2.65625 0.578125 -2.625 C 0.585938 -2.539062 0.59375 -2.46875 0.59375 -2.40625 C 0.59375 -2.320312 0.597656 -2.265625 0.609375 -2.234375 C 0.617188 -2.203125 0.640625 -2.203125 0.671875 -2.234375 C 0.710938 -2.273438 0.78125 -2.359375 0.875 -2.484375 C 1.019531 -2.710938 1.203125 -2.910156 1.421875 -3.078125 C 1.523438 -3.148438 1.640625 -3.203125 1.765625 -3.234375 C 1.898438 -3.265625 2.03125 -3.269531 2.15625 -3.25 C 2.289062 -3.21875 2.394531 -3.140625 2.46875 -3.015625 C 2.539062 -2.898438 2.597656 -2.769531 2.640625 -2.625 C 2.679688 -2.476562 2.710938 -2.335938 2.734375 -2.203125 C 2.734375 -2.171875 2.738281 -2.144531 2.75 -2.125 C 2.769531 -1.957031 2.804688 -1.800781 2.859375 -1.65625 C 2.910156 -1.519531 2.988281 -1.410156 3.09375 -1.328125 C 3.207031 -1.253906 3.375 -1.226562 3.59375 -1.25 C 4.050781 -1.28125 4.414062 -1.375 4.6875 -1.53125 C 4.96875 -1.695312 5.203125 -1.867188 5.390625 -2.046875 C 5.410156 -2.066406 5.429688 -2.085938 5.453125 -2.109375 C 5.503906 -2.140625 5.539062 -2.171875 5.5625 -2.203125 C 5.632812 -2.273438 5.726562 -2.34375 5.84375 -2.40625 Z M 5.84375 -2.40625 "/></g></g><g transform="translate(89.570776, 104.134081)"><g><path d="M 5.640625 -8.15625 C 5.742188 -7.320312 5.726562 -6.546875 5.59375 -5.828125 C 5.457031 -5.109375 5.207031 -4.425781 4.84375 -3.78125 C 4.488281 -3.144531 4.039062 -2.523438 3.5 -1.921875 C 3.445312 -1.867188 3.421875 -1.820312 3.421875 -1.78125 C 3.421875 -1.75 3.445312 -1.703125 3.5 -1.640625 C 3.601562 -1.492188 3.71875 -1.347656 3.84375 -1.203125 C 3.976562 -1.066406 4.128906 -0.953125 4.296875 -0.859375 C 4.421875 -0.722656 4.4375 -0.628906 4.34375 -0.578125 C 4.257812 -0.535156 4.097656 -0.566406 3.859375 -0.671875 C 3.628906 -0.773438 3.363281 -0.988281 3.0625 -1.3125 C 3 -1.382812 2.929688 -1.394531 2.859375 -1.34375 C 2.773438 -1.28125 2.691406 -1.222656 2.609375 -1.171875 C 2.535156 -1.117188 2.460938 -1.066406 2.390625 -1.015625 C 2.148438 -0.847656 1.890625 -0.707031 1.609375 -0.59375 C 1.316406 -0.457031 1.015625 -0.40625 0.703125 -0.4375 C 0.203125 -0.5 -0.0507812 -0.773438 -0.0625 -1.265625 C -0.0820312 -1.617188 -0.015625 -1.929688 0.140625 -2.203125 C 0.296875 -2.484375 0.507812 -2.6875 0.78125 -2.8125 C 1.0625 -2.945312 1.382812 -2.972656 1.75 -2.890625 C 1.789062 -2.878906 1.84375 -2.867188 1.90625 -2.859375 C 1.945312 -2.847656 2 -2.832031 2.0625 -2.8125 C 2.019531 -2.894531 1.984375 -2.96875 1.953125 -3.03125 C 1.898438 -3.144531 1.859375 -3.242188 1.828125 -3.328125 C 1.585938 -3.816406 1.390625 -4.378906 1.234375 -5.015625 C 1.085938 -5.660156 1.015625 -6.3125 1.015625 -6.96875 C 1.015625 -7.632812 1.125 -8.253906 1.34375 -8.828125 C 1.570312 -9.410156 1.941406 -9.890625 2.453125 -10.265625 C 2.765625 -10.484375 3.09375 -10.597656 3.4375 -10.609375 C 3.789062 -10.628906 4.117188 -10.554688 4.421875 -10.390625 C 4.734375 -10.222656 4.988281 -9.96875 5.1875 -9.625 C 5.4375 -9.164062 5.585938 -8.675781 5.640625 -8.15625 Z M 2.34375 -1.578125 C 2.414062 -1.640625 2.421875 -1.710938 2.359375 -1.796875 C 2.328125 -1.828125 2.289062 -1.863281 2.25 -1.90625 C 2.15625 -2.03125 2.046875 -2.148438 1.921875 -2.265625 C 1.804688 -2.390625 1.679688 -2.484375 1.546875 -2.546875 C 1.410156 -2.617188 1.28125 -2.625 1.15625 -2.5625 C 0.96875 -2.476562 0.8125 -2.328125 0.6875 -2.109375 C 0.570312 -1.890625 0.503906 -1.660156 0.484375 -1.421875 C 0.460938 -1.191406 0.503906 -1.015625 0.609375 -0.890625 C 0.722656 -0.773438 0.921875 -0.765625 1.203125 -0.859375 C 1.609375 -1.046875 1.988281 -1.285156 2.34375 -1.578125 Z M 3.21875 -2.453125 C 3.78125 -3.097656 4.195312 -3.738281 4.46875 -4.375 C 4.738281 -5.019531 4.925781 -5.765625 5.03125 -6.609375 C 5.0625 -6.816406 5.078125 -7.09375 5.078125 -7.4375 C 5.078125 -7.78125 5.046875 -8.132812 4.984375 -8.5 C 4.921875 -8.863281 4.8125 -9.195312 4.65625 -9.5 C 4.507812 -9.800781 4.300781 -10.019531 4.03125 -10.15625 C 3.757812 -10.289062 3.414062 -10.289062 3 -10.15625 C 2.53125 -9.882812 2.179688 -9.519531 1.953125 -9.0625 C 1.734375 -8.613281 1.609375 -8.113281 1.578125 -7.5625 C 1.546875 -7.007812 1.582031 -6.445312 1.6875 -5.875 C 1.789062 -5.300781 1.9375 -4.753906 2.125 -4.234375 C 2.3125 -3.722656 2.507812 -3.273438 2.71875 -2.890625 C 2.75 -2.835938 2.773438 -2.789062 2.796875 -2.75 C 2.859375 -2.59375 2.953125 -2.453125 3.078125 -2.328125 C 3.085938 -2.335938 3.101562 -2.351562 3.125 -2.375 C 3.15625 -2.394531 3.1875 -2.421875 3.21875 -2.453125 Z M 3.21875 -2.453125 "/></g></g><g transform="translate(94.418523, 104.134081)"><g><path d="M 5.859375 -2.28125 C 5.898438 -2.351562 5.945312 -2.398438 6 -2.421875 C 6.050781 -2.453125 6.082031 -2.453125 6.09375 -2.421875 C 6.101562 -2.398438 6.078125 -2.332031 6.015625 -2.21875 C 5.859375 -1.988281 5.628906 -1.769531 5.328125 -1.5625 C 5.023438 -1.351562 4.691406 -1.171875 4.328125 -1.015625 C 3.960938 -0.867188 3.601562 -0.769531 3.25 -0.71875 C 2.90625 -0.675781 2.609375 -0.703125 2.359375 -0.796875 C 2.117188 -0.890625 1.972656 -1.070312 1.921875 -1.34375 C 1.710938 -1.007812 1.46875 -0.75 1.1875 -0.5625 C 0.914062 -0.382812 0.65625 -0.3125 0.40625 -0.34375 C 0.113281 -0.375 -0.078125 -0.476562 -0.171875 -0.65625 C -0.265625 -0.832031 -0.296875 -1.03125 -0.265625 -1.25 C -0.234375 -1.476562 -0.164062 -1.695312 -0.0625 -1.90625 C 0.0195312 -2.0625 0.132812 -2.207031 0.28125 -2.34375 C 0.425781 -2.476562 0.578125 -2.582031 0.734375 -2.65625 C 0.929688 -2.75 1.128906 -2.789062 1.328125 -2.78125 C 1.523438 -2.78125 1.738281 -2.71875 1.96875 -2.59375 C 1.96875 -2.59375 1.96875 -2.597656 1.96875 -2.609375 C 1.96875 -2.628906 1.972656 -2.65625 1.984375 -2.6875 C 1.992188 -2.71875 2.015625 -2.75 2.046875 -2.78125 C 2.085938 -2.800781 2.140625 -2.820312 2.203125 -2.84375 C 2.265625 -2.863281 2.320312 -2.867188 2.375 -2.859375 C 2.46875 -2.835938 2.523438 -2.785156 2.546875 -2.703125 C 2.566406 -2.628906 2.570312 -2.546875 2.5625 -2.453125 C 2.550781 -2.367188 2.535156 -2.296875 2.515625 -2.234375 C 2.515625 -2.222656 2.515625 -2.210938 2.515625 -2.203125 C 2.421875 -1.816406 2.453125 -1.546875 2.609375 -1.390625 C 2.773438 -1.242188 3.015625 -1.175781 3.328125 -1.1875 C 3.640625 -1.195312 3.96875 -1.257812 4.3125 -1.375 C 4.65625 -1.5 4.96875 -1.640625 5.25 -1.796875 C 5.539062 -1.960938 5.742188 -2.125 5.859375 -2.28125 Z M 0.515625 -0.84375 C 0.640625 -0.769531 0.769531 -0.78125 0.90625 -0.875 C 1.039062 -0.976562 1.175781 -1.117188 1.3125 -1.296875 C 1.445312 -1.484375 1.554688 -1.671875 1.640625 -1.859375 C 1.734375 -2.046875 1.785156 -2.1875 1.796875 -2.28125 C 1.515625 -2.425781 1.273438 -2.453125 1.078125 -2.359375 C 0.878906 -2.265625 0.722656 -2.109375 0.609375 -1.890625 C 0.503906 -1.679688 0.441406 -1.472656 0.421875 -1.265625 C 0.410156 -1.066406 0.441406 -0.925781 0.515625 -0.84375 Z M 0.515625 -0.84375 "/></g></g><g transform="translate(100.077527, 104.134081)"><g/></g><g transform="translate(102.087858, 104.134081)"><g><path d="M 2.171875 -10.734375 C 2.492188 -10.691406 2.769531 -10.46875 3 -10.0625 C 3.238281 -9.65625 3.398438 -9.125 3.484375 -8.46875 C 3.566406 -7.820312 3.539062 -7.125 3.40625 -6.375 C 3.269531 -5.625 2.984375 -4.882812 2.546875 -4.15625 C 2.117188 -3.425781 1.515625 -2.769531 0.734375 -2.1875 C 0.753906 -1.882812 0.796875 -1.582031 0.859375 -1.28125 C 0.929688 -0.988281 1.035156 -0.757812 1.171875 -0.59375 C 1.296875 -0.445312 1.441406 -0.398438 1.609375 -0.453125 C 1.773438 -0.503906 1.941406 -0.613281 2.109375 -0.78125 C 2.273438 -0.957031 2.425781 -1.144531 2.5625 -1.34375 C 2.695312 -1.539062 2.796875 -1.71875 2.859375 -1.875 C 2.921875 -1.976562 2.972656 -2.03125 3.015625 -2.03125 C 3.066406 -2.03125 3.082031 -1.976562 3.0625 -1.875 C 2.96875 -1.601562 2.851562 -1.34375 2.71875 -1.09375 C 2.59375 -0.851562 2.421875 -0.632812 2.203125 -0.4375 C 2.035156 -0.28125 1.84375 -0.175781 1.625 -0.125 C 1.257812 -0.0703125 0.960938 -0.164062 0.734375 -0.40625 C 0.515625 -0.65625 0.351562 -1.007812 0.25 -1.46875 C 0.175781 -1.75 0.125 -2.171875 0.09375 -2.734375 C 0.0703125 -3.304688 0.0703125 -3.941406 0.09375 -4.640625 C 0.125 -5.347656 0.1875 -6.066406 0.28125 -6.796875 C 0.375 -7.523438 0.5 -8.191406 0.65625 -8.796875 C 0.820312 -9.398438 1.03125 -9.878906 1.28125 -10.234375 C 1.53125 -10.597656 1.828125 -10.765625 2.171875 -10.734375 Z M 0.734375 -2.671875 C 1.429688 -3.316406 1.953125 -3.992188 2.296875 -4.703125 C 2.648438 -5.421875 2.875 -6.125 2.96875 -6.8125 C 3.0625 -7.507812 3.066406 -8.132812 2.984375 -8.6875 C 2.910156 -9.238281 2.789062 -9.671875 2.625 -9.984375 C 2.457031 -10.304688 2.296875 -10.453125 2.140625 -10.421875 C 1.941406 -10.367188 1.765625 -10.164062 1.609375 -9.8125 C 1.460938 -9.46875 1.335938 -9.03125 1.234375 -8.5 C 1.128906 -7.96875 1.039062 -7.398438 0.96875 -6.796875 C 0.90625 -6.191406 0.851562 -5.601562 0.8125 -5.03125 C 0.769531 -4.46875 0.742188 -3.972656 0.734375 -3.546875 C 0.722656 -3.128906 0.722656 -2.835938 0.734375 -2.671875 Z M 0.734375 -2.671875 "/></g></g><g transform="translate(104.90153, 104.134081)"><g><path d="M 2.171875 -10.734375 C 2.492188 -10.691406 2.769531 -10.46875 3 -10.0625 C 3.238281 -9.65625 3.398438 -9.125 3.484375 -8.46875 C 3.566406 -7.820312 3.539062 -7.125 3.40625 -6.375 C 3.269531 -5.625 2.984375 -4.882812 2.546875 -4.15625 C 2.117188 -3.425781 1.515625 -2.769531 0.734375 -2.1875 C 0.753906 -1.882812 0.796875 -1.582031 0.859375 -1.28125 C 0.929688 -0.988281 1.035156 -0.757812 1.171875 -0.59375 C 1.296875 -0.445312 1.441406 -0.398438 1.609375 -0.453125 C 1.773438 -0.503906 1.941406 -0.613281 2.109375 -0.78125 C 2.273438 -0.957031 2.425781 -1.144531 2.5625 -1.34375 C 2.695312 -1.539062 2.796875 -1.71875 2.859375 -1.875 C 2.921875 -1.976562 2.972656 -2.03125 3.015625 -2.03125 C 3.066406 -2.03125 3.082031 -1.976562 3.0625 -1.875 C 2.96875 -1.601562 2.851562 -1.34375 2.71875 -1.09375 C 2.59375 -0.851562 2.421875 -0.632812 2.203125 -0.4375 C 2.035156 -0.28125 1.84375 -0.175781 1.625 -0.125 C 1.257812 -0.0703125 0.960938 -0.164062 0.734375 -0.40625 C 0.515625 -0.65625 0.351562 -1.007812 0.25 -1.46875 C 0.175781 -1.75 0.125 -2.171875 0.09375 -2.734375 C 0.0703125 -3.304688 0.0703125 -3.941406 0.09375 -4.640625 C 0.125 -5.347656 0.1875 -6.066406 0.28125 -6.796875 C 0.375 -7.523438 0.5 -8.191406 0.65625 -8.796875 C 0.820312 -9.398438 1.03125 -9.878906 1.28125 -10.234375 C 1.53125 -10.597656 1.828125 -10.765625 2.171875 -10.734375 Z M 0.734375 -2.671875 C 1.429688 -3.316406 1.953125 -3.992188 2.296875 -4.703125 C 2.648438 -5.421875 2.875 -6.125 2.96875 -6.8125 C 3.0625 -7.507812 3.066406 -8.132812 2.984375 -8.6875 C 2.910156 -9.238281 2.789062 -9.671875 2.625 -9.984375 C 2.457031 -10.304688 2.296875 -10.453125 2.140625 -10.421875 C 1.941406 -10.367188 1.765625 -10.164062 1.609375 -9.8125 C 1.460938 -9.46875 1.335938 -9.03125 1.234375 -8.5 C 1.128906 -7.96875 1.039062 -7.398438 0.96875 -6.796875 C 0.90625 -6.191406 0.851562 -5.601562 0.8125 -5.03125 C 0.769531 -4.46875 0.742188 -3.972656 0.734375 -3.546875 C 0.722656 -3.128906 0.722656 -2.835938 0.734375 -2.671875 Z M 0.734375 -2.671875 "/></g></g><g transform="translate(107.715203, 104.134081)"><g><path d="M 5.390625 -2.484375 C 5.421875 -2.472656 5.414062 -2.414062 5.375 -2.3125 C 5.34375 -2.207031 5.257812 -2.078125 5.125 -1.921875 C 4.976562 -1.753906 4.738281 -1.566406 4.40625 -1.359375 C 4.070312 -1.148438 3.679688 -0.957031 3.234375 -0.78125 C 2.796875 -0.601562 2.351562 -0.476562 1.90625 -0.40625 C 1.457031 -0.332031 1.050781 -0.347656 0.6875 -0.453125 C 0.289062 -0.578125 0.0664062 -0.832031 0.015625 -1.21875 C -0.015625 -1.445312 -0.00390625 -1.664062 0.046875 -1.875 C 0.117188 -2.09375 0.234375 -2.285156 0.390625 -2.453125 C 0.546875 -2.628906 0.734375 -2.757812 0.953125 -2.84375 C 1.171875 -2.914062 1.394531 -2.941406 1.625 -2.921875 C 1.851562 -2.910156 2.039062 -2.84375 2.1875 -2.71875 C 2.207031 -2.707031 2.21875 -2.679688 2.21875 -2.640625 C 2.21875 -2.609375 2.210938 -2.578125 2.203125 -2.546875 C 2.171875 -2.441406 2.117188 -2.390625 2.046875 -2.390625 C 1.984375 -2.398438 1.910156 -2.429688 1.828125 -2.484375 C 1.765625 -2.515625 1.695312 -2.539062 1.625 -2.5625 C 1.550781 -2.59375 1.472656 -2.601562 1.390625 -2.59375 C 1.160156 -2.5625 0.96875 -2.441406 0.8125 -2.234375 C 0.695312 -2.066406 0.613281 -1.878906 0.5625 -1.671875 C 0.519531 -1.472656 0.539062 -1.289062 0.625 -1.125 C 0.738281 -0.914062 0.929688 -0.789062 1.203125 -0.75 C 1.484375 -0.707031 1.804688 -0.726562 2.171875 -0.8125 C 2.535156 -0.894531 2.898438 -1.007812 3.265625 -1.15625 C 3.640625 -1.3125 3.984375 -1.472656 4.296875 -1.640625 C 4.609375 -1.816406 4.847656 -1.976562 5.015625 -2.125 C 5.191406 -2.28125 5.296875 -2.378906 5.328125 -2.421875 C 5.335938 -2.441406 5.347656 -2.457031 5.359375 -2.46875 C 5.367188 -2.476562 5.378906 -2.484375 5.390625 -2.484375 Z M 5.390625 -2.484375 "/></g></g></g><g clip-path="url(#id5)"><g clip-path="url(#id6)"><g clip-path="url(#id7)"><g clip-path="url(#id8)"><path fill="#000000" d="M 63.792969 46.367188 C 63.914062 44.5 66.308594 44.601562 67.558594 44.011719 C 68.589844 43.527344 69.347656 42.464844 70.355469 41.894531 C 72.253906 40.808594 75.472656 41 77.109375 42.453125 C 78.777344 43.933594 79.601562 46.472656 79.671875 48.640625 C 79.699219 49.433594 79.46875 50.214844 79.488281 51.015625 C 79.527344 52.492188 79.875 54.308594 80.339844 55.714844 C 80.765625 57.015625 82.957031 58.6875 82.507812 60.144531 C 82.242188 61 81.335938 61.652344 80.679688 62.207031 C 78.898438 63.707031 76.796875 64.617188 74.578125 65.222656 C 73.753906 65.445312 72.132812 65.609375 71.320312 65.246094 C 70.894531 65.054688 70.808594 64.417969 70.652344 64.03125 C 70.230469 63.015625 69.867188 61.710938 69.070312 60.929688 C 67.085938 58.976562 64.796875 57.324219 62.683594 55.507812 C 61.722656 54.683594 60.460938 53.789062 59.839844 52.65625 C 59.195312 51.476562 58.769531 49.453125 59.464844 48.230469 C 60.277344 46.796875 62.058594 46.355469 63.582031 46.382812 M 68.484375 43.96875 C 70.328125 44.03125 72.203125 46.28125 72.664062 47.945312 C 72.828125 48.476562 73.285156 49.402344 72.808594 49.859375 C 72.53125 47.875 71.367188 45.113281 69.25 44.425781 C 67.789062 43.953125 64.9375 44.585938 64.21875 46.074219 C 63.773438 46.996094 64.085938 48.171875 64.457031 49.070312 C 65.054688 50.535156 66.621094 51.179688 67.574219 52.3125 C 66.398438 52.304688 64.484375 50.234375 64.132812 49.160156 C 63.773438 48.078125 63.988281 46.796875 62.507812 46.804688 C 59.542969 46.820312 59.253906 49.605469 59.953125 51.746094 C 60.292969 52.523438 61.078125 53.609375 61.714844 54.191406 C 63.144531 55.492188 64.589844 56.929688 66.210938 57.988281 C 66.726562 58.324219 68.433594 59.941406 68.925781 58.863281 C 69.097656 58.496094 68.65625 58.164062 68.421875 57.941406 C 67.621094 57.175781 66.761719 56.511719 65.972656 55.726562 C 67.1875 55.957031 67.902344 57.644531 69.21875 58.003906 C 69.910156 58.191406 70.949219 57.351562 70.875 56.621094 C 70.800781 55.875 70.101562 55.050781 69.589844 54.554688 C 70.53125 54.914062 70.628906 56.058594 71.441406 56.398438 C 71.867188 56.574219 72.453125 56.195312 72.808594 56 C 73.1875 55.785156 73.804688 55.566406 74.011719 55.160156 C 74.164062 54.855469 73.960938 54.425781 73.878906 54.128906 C 73.695312 53.453125 73.601562 52.761719 73.597656 52.0625 C 73.597656 52.0625 74 54.304688 74.597656 54.738281 C 75.160156 55.152344 76.839844 54.515625 76.8125 53.882812 L 76.445312 51.84375 C 76.84375 52.40625 76.828125 53.136719 77.222656 53.679688 C 77.460938 54.003906 78.386719 54.304688 78.484375 53.691406 C 78.574219 53.140625 78.214844 52.316406 78.117188 51.761719 C 77.984375 50.988281 78.003906 50.074219 77.996094 49.28125 C 77.996094 49.28125 78.371094 51.640625 78.65625 52.730469 C 78.777344 53.203125 79.210938 54.21875 79.402344 53.644531 C 79.511719 52.609375 79.246094 52.082031 79.21875 51.054688 C 79.199219 50.289062 79.351562 49.308594 79.34375 48.542969 C 79.316406 46.535156 78.511719 44.363281 77.074219 42.929688 C 75.21875 41.082031 71.59375 41.144531 69.660156 42.789062 C 69.257812 43.128906 68.652344 43.453125 68.484375 43.96875 M 74.925781 45.933594 L 74.886719 46.066406 C 74.433594 44.8125 73.144531 43.324219 71.695312 43.371094 C 72.886719 42.453125 75.078125 44.738281 74.925781 45.933594 M 61.925781 48.457031 C 61.828125 49.234375 61.722656 49.957031 62.082031 50.695312 C 62.308594 51.300781 62.90625 51.90625 63.210938 52.480469 C 62.089844 51.972656 60.96875 49.554688 61.925781 48.457031 M 71.054688 64.386719 C 73.851562 61.792969 78.316406 59.613281 82.210938 59.574219 C 81.78125 58.242188 80.585938 57.285156 80.109375 55.960938 C 79.945312 55.515625 79.871094 54.628906 79.417969 54.355469 C 78.722656 53.9375 77.449219 54.445312 76.742188 54.648438 C 74.40625 55.316406 71.949219 56.453125 70.199219 58.160156 C 69.753906 58.597656 68.996094 59.089844 68.804688 59.703125 C 68.632812 60.25 69.371094 60.65625 69.640625 61.050781 C 70.265625 61.960938 70.765625 63.324219 71.054688 64.386719 M 71.835938 64.289062 C 71.488281 64.667969 71.28125 64.957031 71.707031 65.078125 C 74.140625 65.503906 76.550781 64.296875 78.53125 62.921875 C 79.039062 62.566406 80.558594 61.722656 80.28125 60.941406 C 79.992188 60.121094 78.625 60.636719 78.089844 60.78125 C 75.785156 61.515625 73.652344 62.5625 71.835938 64.289062 Z M 71.835938 64.289062 " fill-opacity="1" fill-rule="nonzero"/></g></g></g></g></svg>