<svg xmlns="http://www.w3.org/2000/svg" xmlns:xlink="http://www.w3.org/1999/xlink" width="500" zoomAndPan="magnify" viewBox="0 0 375 374.999991" height="500" preserveAspectRatio="xMidYMid meet" version="1.0"><defs><g/><clipPath id="57996a2b96"><path d="M 35 109 L 96 109 L 96 171 L 35 171 Z M 35 109 " clip-rule="nonzero"/></clipPath><clipPath id="960e7ed151"><path d="M 31.234375 118.429688 L 82.988281 104.304688 L 99.285156 164.023438 L 47.53125 178.148438 Z M 31.234375 118.429688 " clip-rule="nonzero"/></clipPath><clipPath id="c969ce54e1"><path d="M 82.957031 104.3125 L 31.203125 118.4375 L 47.5 178.15625 L 99.253906 164.03125 Z M 82.957031 104.3125 " clip-rule="nonzero"/></clipPath><clipPath id="c79a4b9dab"><path d="M 154 109 L 215 109 L 215 171 L 154 171 Z M 154 109 " clip-rule="nonzero"/></clipPath><clipPath id="558a9bf7f8"><path d="M 150.277344 118.429688 L 202.035156 104.304688 L 218.332031 164.023438 L 166.574219 178.148438 Z M 150.277344 118.429688 " clip-rule="nonzero"/></clipPath><clipPath id="dab4e6aa8e"><path d="M 202.003906 104.3125 L 150.246094 118.4375 L 166.542969 178.15625 L 218.300781 164.03125 Z M 202.003906 104.3125 " clip-rule="nonzero"/></clipPath></defs><g clip-path="url(#57996a2b96)"><g clip-path="url(#960e7ed151)"><g clip-path="url(#c969ce54e1)"><path fill="#ffffff" d="M 47.5625 122.238281 C 47.867188 117.488281 53.96875 117.742188 57.144531 116.246094 C 59.773438 115.007812 61.703125 112.308594 64.261719 110.847656 C 69.105469 108.09375 77.300781 108.574219 81.46875 112.273438 C 85.714844 116.046875 87.804688 122.507812 87.988281 128.023438 C 88.054688 130.050781 87.472656 132.039062 87.523438 134.070312 C 87.617188 137.832031 88.507812 142.464844 89.683594 146.035156 C 90.777344 149.351562 96.351562 153.609375 95.207031 157.320312 C 94.535156 159.496094 92.21875 161.15625 90.550781 162.566406 C 86.015625 166.390625 80.671875 168.707031 75.023438 170.246094 C 72.921875 170.816406 68.789062 171.230469 66.722656 170.304688 C 65.644531 169.820312 65.421875 168.191406 65.019531 167.214844 C 63.953125 164.628906 63.027344 161.304688 61 159.3125 C 55.941406 154.34375 50.109375 150.136719 44.734375 145.511719 C 42.289062 143.410156 39.078125 141.132812 37.5 138.25 C 35.855469 135.246094 34.773438 130.09375 36.539062 126.984375 C 38.613281 123.328125 43.144531 122.207031 47.019531 122.28125 M 59.5 116.136719 C 64.195312 116.292969 68.976562 122.019531 70.140625 126.261719 C 70.5625 127.609375 71.726562 129.96875 70.515625 131.132812 C 69.804688 126.082031 66.839844 119.046875 61.449219 117.300781 C 57.734375 116.09375 50.480469 117.707031 48.644531 121.492188 C 47.507812 123.84375 48.3125 126.832031 49.246094 129.121094 C 50.769531 132.851562 54.757812 134.492188 57.183594 137.378906 C 54.191406 137.359375 49.324219 132.082031 48.421875 129.347656 C 47.511719 126.597656 48.058594 123.332031 44.285156 123.351562 C 36.742188 123.390625 36 130.480469 37.785156 135.9375 C 38.648438 137.910156 40.648438 140.679688 42.269531 142.15625 C 45.90625 145.46875 49.585938 149.132812 53.714844 151.824219 C 55.03125 152.683594 59.375 156.796875 60.632812 154.054688 C 61.0625 153.117188 59.941406 152.273438 59.347656 151.707031 C 57.304688 149.761719 55.121094 148.066406 53.109375 146.070312 C 56.203125 146.65625 58.023438 150.953125 61.375 151.863281 C 63.128906 152.34375 65.773438 150.203125 65.589844 148.34375 C 65.398438 146.445312 63.621094 144.351562 62.320312 143.082031 C 64.710938 144 64.96875 146.914062 67.035156 147.777344 C 68.121094 148.230469 69.609375 147.261719 70.507812 146.761719 C 71.476562 146.222656 73.050781 145.664062 73.574219 144.625 C 73.964844 143.851562 73.449219 142.761719 73.242188 141.996094 C 72.773438 140.277344 72.535156 138.519531 72.523438 136.746094 C 72.523438 136.746094 73.542969 142.445312 75.066406 143.554688 C 76.503906 144.605469 80.78125 142.988281 80.703125 141.375 L 79.769531 136.1875 C 80.789062 137.621094 80.75 139.472656 81.753906 140.851562 C 82.359375 141.6875 84.71875 142.445312 84.96875 140.890625 C 85.191406 139.484375 84.277344 137.386719 84.03125 135.972656 C 83.691406 134 83.742188 131.675781 83.71875 129.664062 C 83.71875 129.664062 84.675781 135.667969 85.398438 138.441406 C 85.710938 139.648438 86.808594 142.234375 87.304688 140.765625 C 87.578125 138.132812 86.902344 136.785156 86.835938 134.179688 C 86.785156 132.222656 87.171875 129.726562 87.148438 127.777344 C 87.082031 122.671875 85.035156 117.132812 81.371094 113.484375 C 76.648438 108.785156 67.417969 108.945312 62.5 113.128906 C 61.476562 113.996094 59.933594 114.824219 59.5 116.136719 M 75.902344 121.136719 L 75.808594 121.476562 C 74.652344 118.277344 71.371094 114.496094 67.679688 114.617188 C 70.710938 112.273438 76.292969 118.097656 75.902344 121.136719 M 42.808594 127.5625 C 42.558594 129.542969 42.289062 131.375 43.203125 133.253906 C 43.777344 134.796875 45.300781 136.339844 46.082031 137.800781 C 43.226562 136.515625 40.367188 130.355469 42.808594 127.5625 M 66.050781 168.117188 C 73.167969 161.515625 84.539062 155.964844 94.449219 155.867188 C 93.351562 152.472656 90.3125 150.039062 89.097656 146.667969 C 88.6875 145.527344 88.492188 143.273438 87.339844 142.578125 C 85.574219 141.515625 82.328125 142.808594 80.523438 143.324219 C 74.585938 145.023438 68.324219 147.914062 63.871094 152.269531 C 62.738281 153.375 60.808594 154.628906 60.316406 156.191406 C 59.878906 157.582031 61.761719 158.621094 62.453125 159.625 C 64.042969 161.941406 65.308594 165.410156 66.050781 168.117188 M 68.042969 167.867188 C 67.148438 168.835938 66.621094 169.566406 67.710938 169.875 C 73.902344 170.960938 80.035156 167.890625 85.078125 164.386719 C 86.378906 163.488281 90.242188 161.332031 89.542969 159.347656 C 88.800781 157.253906 85.324219 158.570312 83.960938 158.941406 C 78.089844 160.804688 72.664062 163.476562 68.042969 167.867188 Z M 68.042969 167.867188 " fill-opacity="1" fill-rule="nonzero"/></g></g></g><g fill="#ffffff" fill-opacity="1"><g transform="translate(71.798892, 210.939699)"><g><path d="M 30.1875 -56.125 C 32.351562 -55.050781 34.101562 -53.671875 35.4375 -51.984375 C 36.78125 -50.296875 37.71875 -48.347656 38.25 -46.140625 C 38.351562 -45.660156 38.394531 -45.175781 38.375 -44.6875 C 38.375 -44.5625 38.375 -44.445312 38.375 -44.34375 C 38.375 -43.945312 38.164062 -43.671875 37.75 -43.515625 C 37.550781 -43.410156 37.359375 -43.382812 37.171875 -43.4375 C 36.992188 -43.488281 36.878906 -43.609375 36.828125 -43.796875 C 36.722656 -44.160156 36.628906 -44.53125 36.546875 -44.90625 C 36.523438 -44.988281 36.503906 -45.082031 36.484375 -45.1875 C 35.785156 -48.019531 34.316406 -50.453125 32.078125 -52.484375 C 29.117188 -55.179688 25.582031 -56.238281 21.46875 -55.65625 C 17.90625 -55.144531 14.648438 -53.929688 11.703125 -52.015625 C 7.703125 -49.484375 4.394531 -46.328125 1.78125 -42.546875 C 0.988281 -41.429688 0.320312 -40.269531 -0.21875 -39.0625 C -2.039062 -35.050781 -2.140625 -31.019531 -0.515625 -26.96875 C -0.00390625 -25.644531 0.628906 -24.394531 1.390625 -23.21875 C 2.148438 -22.039062 2.96875 -20.90625 3.84375 -19.8125 C 5.832031 -17.34375 7.960938 -15.003906 10.234375 -12.796875 C 11.453125 -11.617188 12.675781 -10.453125 13.90625 -9.296875 C 15.644531 -7.617188 17.367188 -5.9375 19.078125 -4.25 C 21.234375 -2.144531 23.1875 0.09375 24.9375 2.46875 C 25.5 3.226562 26.015625 4.015625 26.484375 4.828125 C 26.953125 5.648438 27.316406 6.519531 27.578125 7.4375 C 28.347656 9.882812 27.570312 11.78125 25.25 13.125 C 24.03125 13.875 22.710938 14.320312 21.296875 14.46875 C 14.953125 14.96875 9.910156 12.847656 6.171875 8.109375 C 5.222656 6.867188 4.625 5.550781 4.375 4.15625 C 4.125 2.757812 4.132812 1.328125 4.40625 -0.140625 C 4.976562 -3.460938 6.40625 -6.441406 8.6875 -9.078125 C 8.914062 -9.335938 9.132812 -9.597656 9.34375 -9.859375 C 9.414062 -9.972656 9.503906 -10.082031 9.609375 -10.1875 C 9.390625 -10.601562 9.113281 -10.945312 8.78125 -11.21875 C 8.675781 -11.320312 8.582031 -11.410156 8.5 -11.484375 C 6.101562 -13.847656 3.863281 -16.320312 1.78125 -18.90625 C 0.332031 -20.6875 -0.898438 -22.585938 -1.921875 -24.609375 C -4.503906 -29.785156 -4.441406 -34.9375 -1.734375 -40.0625 C -0.242188 -42.769531 1.566406 -45.195312 3.703125 -47.34375 C 5.847656 -49.5 8.273438 -51.414062 10.984375 -53.09375 C 13.628906 -54.75 16.503906 -55.945312 19.609375 -56.6875 C 20.890625 -57 22.1875 -57.191406 23.5 -57.265625 C 24.820312 -57.347656 26.140625 -57.269531 27.453125 -57.03125 C 28.410156 -56.84375 29.320312 -56.539062 30.1875 -56.125 Z M 10.28125 -9.015625 C 10.113281 -8.847656 9.957031 -8.660156 9.8125 -8.453125 C 8.8125 -7.128906 8.046875 -5.722656 7.515625 -4.234375 C 6.984375 -2.742188 6.617188 -1.195312 6.421875 0.40625 C 6.066406 3.65625 7.128906 6.429688 9.609375 8.734375 C 11.992188 10.960938 14.863281 12.347656 18.21875 12.890625 C 19.75 13.179688 21.273438 13.140625 22.796875 12.765625 C 25.140625 12.160156 26.039062 10.753906 25.5 8.546875 C 25.226562 7.515625 24.804688 6.519531 24.234375 5.5625 C 23.359375 4.09375 22.351562 2.695312 21.21875 1.375 C 19.832031 -0.269531 18.367188 -1.863281 16.828125 -3.40625 C 15.285156 -4.945312 13.722656 -6.46875 12.140625 -7.96875 C 11.785156 -8.289062 11.429688 -8.617188 11.078125 -8.953125 C 10.992188 -9.035156 10.890625 -9.097656 10.765625 -9.140625 C 10.722656 -9.179688 10.671875 -9.210938 10.609375 -9.234375 C 10.566406 -9.210938 10.523438 -9.191406 10.484375 -9.171875 C 10.398438 -9.128906 10.332031 -9.078125 10.28125 -9.015625 Z M 10.28125 -9.015625 "/></g></g></g><g fill="#ffffff" fill-opacity="1"><g transform="translate(97.642579, 210.939699)"><g><path d="M 1.375 -1.25 C 1.175781 -1.238281 0.960938 -1.375 0.734375 -1.65625 C 0.515625 -1.9375 0.320312 -2.421875 0.15625 -3.109375 C -0.0078125 -3.796875 -0.0703125 -4.753906 -0.03125 -5.984375 C -0.03125 -6.097656 -0.03125 -6.25 -0.03125 -6.4375 C -0.03125 -6.90625 -0.0078125 -7.457031 0.03125 -8.09375 C 0.0703125 -8.726562 0.160156 -9.296875 0.296875 -9.796875 C 0.441406 -10.304688 0.660156 -10.613281 0.953125 -10.71875 C 1.828125 -10.945312 2.300781 -10.632812 2.375 -9.78125 C 2.375 -9.519531 2.367188 -9.253906 2.359375 -8.984375 C 2.335938 -8.859375 2.328125 -8.726562 2.328125 -8.59375 C 2.304688 -8.195312 2.285156 -7.8125 2.265625 -7.4375 C 2.265625 -7.101562 2.253906 -6.78125 2.234375 -6.46875 C 2.234375 -6.257812 2.234375 -5.957031 2.234375 -5.5625 C 2.253906 -5.007812 2.257812 -4.40625 2.25 -3.75 C 2.238281 -3.101562 2.164062 -2.535156 2.03125 -2.046875 C 1.894531 -1.566406 1.675781 -1.300781 1.375 -1.25 Z M 2.203125 -13.640625 C 2.097656 -13.535156 1.953125 -13.46875 1.765625 -13.4375 C 1.585938 -13.40625 1.445312 -13.421875 1.34375 -13.484375 C 1.238281 -13.585938 1.164062 -13.703125 1.125 -13.828125 C 1.09375 -13.953125 1.078125 -14.101562 1.078125 -14.28125 C 1.097656 -14.332031 1.109375 -14.375 1.109375 -14.40625 C 1.128906 -14.570312 1.171875 -14.738281 1.234375 -14.90625 C 1.421875 -15.382812 1.800781 -15.585938 2.375 -15.515625 C 2.582031 -15.503906 2.738281 -15.425781 2.84375 -15.28125 C 2.945312 -15.132812 2.984375 -14.972656 2.953125 -14.796875 C 2.804688 -14.347656 2.554688 -13.960938 2.203125 -13.640625 Z M 2.203125 -13.640625 "/></g></g></g><g fill="#ffffff" fill-opacity="1"><g transform="translate(101.47754, 210.939699)"><g><path d="M 20.78125 -8.546875 C 21.195312 -8.734375 21.4375 -8.765625 21.5 -8.640625 C 21.570312 -8.398438 21.347656 -7.960938 20.828125 -7.328125 C 20.316406 -6.691406 19.617188 -6.046875 18.734375 -5.390625 C 16.597656 -3.898438 14.800781 -3.007812 13.34375 -2.71875 C 11.894531 -2.425781 10.707031 -2.515625 9.78125 -2.984375 C 8.863281 -3.460938 8.175781 -4.117188 7.71875 -4.953125 C 7.1875 -5.878906 6.851562 -6.800781 6.71875 -7.71875 C 6.539062 -8.707031 6.296875 -9.265625 5.984375 -9.390625 C 5.679688 -9.523438 5.351562 -9.382812 5 -8.96875 C 4.644531 -8.5625 4.300781 -8.019531 3.96875 -7.34375 C 3.632812 -6.675781 3.359375 -6.019531 3.140625 -5.375 C 2.921875 -4.738281 2.804688 -4.257812 2.796875 -3.9375 C 2.722656 -3.75 2.660156 -3.566406 2.609375 -3.390625 C 2.523438 -3.128906 2.429688 -2.875 2.328125 -2.625 C 2.054688 -1.914062 1.582031 -1.65625 0.90625 -1.84375 C 0.53125 -1.914062 0.3125 -2.144531 0.25 -2.53125 C 0.226562 -2.800781 0.21875 -3.082031 0.21875 -3.375 C 0.21875 -3.59375 0.207031 -3.832031 0.1875 -4.09375 C 0.144531 -5.78125 0.101562 -7.484375 0.0625 -9.203125 C 0.0625 -9.410156 0.160156 -9.550781 0.359375 -9.625 C 0.554688 -9.707031 0.78125 -9.742188 1.03125 -9.734375 C 1.289062 -9.734375 1.519531 -9.695312 1.71875 -9.625 C 1.914062 -9.550781 2.023438 -9.445312 2.046875 -9.3125 C 2.085938 -9.03125 2.109375 -8.789062 2.109375 -8.59375 C 2.109375 -8.300781 2.128906 -8.085938 2.171875 -7.953125 C 2.210938 -7.828125 2.300781 -7.832031 2.4375 -7.96875 C 2.570312 -8.101562 2.800781 -8.390625 3.125 -8.828125 C 3.644531 -9.648438 4.300781 -10.351562 5.09375 -10.9375 C 5.4375 -11.195312 5.84375 -11.382812 6.3125 -11.5 C 6.789062 -11.625 7.253906 -11.644531 7.703125 -11.5625 C 8.171875 -11.4375 8.535156 -11.164062 8.796875 -10.75 C 9.066406 -10.34375 9.269531 -9.875 9.40625 -9.34375 C 9.539062 -8.8125 9.644531 -8.320312 9.71875 -7.875 C 9.738281 -7.75 9.753906 -7.644531 9.765625 -7.5625 C 9.867188 -6.957031 10.007812 -6.40625 10.1875 -5.90625 C 10.363281 -5.414062 10.644531 -5.03125 11.03125 -4.75 C 11.425781 -4.46875 12.007812 -4.359375 12.78125 -4.421875 C 14.425781 -4.546875 15.734375 -4.890625 16.703125 -5.453125 C 17.679688 -6.023438 18.503906 -6.632812 19.171875 -7.28125 C 19.273438 -7.363281 19.363281 -7.445312 19.4375 -7.53125 C 19.59375 -7.632812 19.722656 -7.738281 19.828125 -7.84375 C 20.066406 -8.101562 20.382812 -8.335938 20.78125 -8.546875 Z M 20.78125 -8.546875 "/></g></g></g><g fill="#ffffff" fill-opacity="1"><g transform="translate(121.103515, 210.939699)"><g><path d="M 15.203125 -5.546875 C 14.148438 -4.128906 13.144531 -3.222656 12.1875 -2.828125 C 11.226562 -2.429688 10.363281 -2.335938 9.59375 -2.546875 C 8.820312 -2.765625 8.15625 -3.101562 7.59375 -3.5625 C 7.03125 -4.019531 6.609375 -4.410156 6.328125 -4.734375 C 6.242188 -4.835938 6.171875 -4.921875 6.109375 -4.984375 C 7.929688 -1.628906 9.140625 1.335938 9.734375 3.921875 C 10.328125 6.503906 10.476562 8.644531 10.1875 10.34375 C 9.90625 12.039062 9.335938 13.238281 8.484375 13.9375 C 7.640625 14.632812 6.6875 14.78125 5.625 14.375 C 4.5625 13.976562 3.539062 12.972656 2.5625 11.359375 C 1.59375 9.742188 0.84375 7.460938 0.3125 4.515625 C -0.207031 1.566406 -0.34375 -2.09375 -0.09375 -6.46875 C 0.15625 -10.851562 0.953125 -16.015625 2.296875 -21.953125 C 2.628906 -23.347656 3.097656 -24.984375 3.703125 -26.859375 C 4.316406 -28.734375 5.078125 -30.515625 5.984375 -32.203125 C 6.890625 -33.898438 7.972656 -35.21875 9.234375 -36.15625 C 9.773438 -36.53125 10.378906 -36.773438 11.046875 -36.890625 C 12.734375 -37.179688 13.925781 -36.988281 14.625 -36.3125 C 15.332031 -35.632812 15.664062 -34.617188 15.625 -33.265625 C 15.582031 -31.921875 15.265625 -30.378906 14.671875 -28.640625 C 14.085938 -26.910156 13.359375 -25.109375 12.484375 -23.234375 C 11.609375 -21.359375 10.679688 -19.5625 9.703125 -17.84375 C 8.734375 -16.132812 7.84375 -14.632812 7.03125 -13.34375 C 6.226562 -12.050781 5.597656 -11.101562 5.140625 -10.5 C 5.023438 -10.3125 4.890625 -10.113281 4.734375 -9.90625 C 4.660156 -9.800781 4.582031 -9.691406 4.5 -9.578125 C 5.976562 -7.441406 7.285156 -5.976562 8.421875 -5.1875 C 9.566406 -4.40625 10.554688 -4.0625 11.390625 -4.15625 C 12.222656 -4.25 12.929688 -4.550781 13.515625 -5.0625 C 14.097656 -5.582031 14.570312 -6.101562 14.9375 -6.625 C 15.132812 -6.875 15.304688 -7.070312 15.453125 -7.21875 C 15.597656 -7.363281 15.710938 -7.425781 15.796875 -7.40625 C 16.097656 -7.332031 16.160156 -7.109375 15.984375 -6.734375 C 15.804688 -6.367188 15.546875 -5.972656 15.203125 -5.546875 Z M 3.03125 -12.03125 C 2.957031 -11.425781 2.976562 -11.039062 3.09375 -10.875 C 3.21875 -10.707031 3.488281 -10.925781 3.90625 -11.53125 C 4.53125 -12.394531 5.304688 -13.582031 6.234375 -15.09375 C 7.160156 -16.601562 8.125 -18.28125 9.125 -20.125 C 10.125 -21.96875 11.03125 -23.828125 11.84375 -25.703125 C 12.65625 -27.578125 13.234375 -29.328125 13.578125 -30.953125 C 13.929688 -32.585938 13.921875 -33.945312 13.546875 -35.03125 C 13.390625 -35.5 13.101562 -35.78125 12.6875 -35.875 C 12.269531 -35.976562 11.820312 -35.90625 11.34375 -35.65625 C 10.351562 -35.082031 9.441406 -34.0625 8.609375 -32.59375 C 7.785156 -31.132812 7.050781 -29.4375 6.40625 -27.5 C 5.769531 -25.5625 5.21875 -23.582031 4.75 -21.5625 C 4.289062 -19.550781 3.914062 -17.703125 3.625 -16.015625 C 3.332031 -14.328125 3.132812 -13 3.03125 -12.03125 Z M 6.796875 13.359375 C 7.660156 12.972656 8.144531 12.109375 8.25 10.765625 C 8.351562 9.421875 8.207031 7.816406 7.8125 5.953125 C 7.414062 4.097656 6.890625 2.210938 6.234375 0.296875 C 5.578125 -1.609375 4.910156 -3.316406 4.234375 -4.828125 C 3.566406 -6.335938 3.007812 -7.410156 2.5625 -8.046875 C 2.300781 -4.679688 2.300781 -1.65625 2.5625 1.03125 C 2.820312 3.71875 3.21875 6 3.75 7.875 C 4.28125 9.75 4.832031 11.15625 5.40625 12.09375 C 5.988281 13.03125 6.453125 13.453125 6.796875 13.359375 Z M 6.796875 13.359375 "/></g></g></g><g fill="#ffffff" fill-opacity="1"><g transform="translate(135.865294, 210.939699)"><g><path d="M 3.15625 -2.53125 C 2.332031 -2.550781 1.660156 -2.921875 1.140625 -3.640625 C 0.617188 -4.367188 0.289062 -5.285156 0.15625 -6.390625 C 0.03125 -7.492188 0.144531 -8.625 0.5 -9.78125 C 0.582031 -10.144531 0.8125 -10.40625 1.1875 -10.5625 C 1.445312 -10.644531 1.71875 -10.628906 2 -10.515625 C 2.28125 -10.398438 2.429688 -10.207031 2.453125 -9.9375 C 2.453125 -9.695312 2.425781 -9.453125 2.375 -9.203125 C 2.34375 -9.015625 2.316406 -8.835938 2.296875 -8.671875 C 2.253906 -7.992188 2.269531 -7.25 2.34375 -6.4375 C 2.414062 -5.632812 2.625 -4.941406 2.96875 -4.359375 C 3.332031 -3.910156 3.726562 -3.851562 4.15625 -4.1875 C 4.59375 -4.53125 4.972656 -5.066406 5.296875 -5.796875 C 5.554688 -6.367188 5.753906 -6.9375 5.890625 -7.5 C 6.035156 -8.070312 6.128906 -8.515625 6.171875 -8.828125 C 6.210938 -8.953125 6.234375 -9.035156 6.234375 -9.078125 C 6.296875 -9.328125 6.359375 -9.578125 6.421875 -9.828125 C 6.515625 -10.160156 6.613281 -10.488281 6.71875 -10.8125 C 6.90625 -11.445312 7.363281 -11.71875 8.09375 -11.625 C 8.519531 -11.582031 8.757812 -11.363281 8.8125 -10.96875 C 8.851562 -10.4375 8.863281 -9.898438 8.84375 -9.359375 C 8.820312 -9.128906 8.8125 -8.898438 8.8125 -8.671875 C 8.75 -7.722656 8.726562 -6.710938 8.75 -5.640625 C 8.769531 -4.578125 8.945312 -3.695312 9.28125 -3 C 9.3125 -2.914062 9.320312 -2.789062 9.3125 -2.625 C 9.3125 -2.457031 9.265625 -2.296875 9.171875 -2.140625 C 9.078125 -1.992188 8.925781 -1.898438 8.71875 -1.859375 C 8.507812 -1.828125 8.226562 -1.914062 7.875 -2.125 C 7.363281 -2.457031 7.035156 -2.90625 6.890625 -3.46875 C 6.742188 -4.039062 6.671875 -4.59375 6.671875 -5.125 C 6.648438 -5.4375 6.628906 -5.710938 6.609375 -5.953125 C 6.421875 -4.867188 5.992188 -4.03125 5.328125 -3.4375 C 4.671875 -2.851562 3.945312 -2.550781 3.15625 -2.53125 Z M 3.15625 -2.53125 "/></g></g></g><g fill="#ffffff" fill-opacity="1"><g transform="translate(146.439634, 210.939699)"><g><path d="M 7.75 -38.234375 C 8.882812 -38.085938 9.867188 -37.285156 10.703125 -35.828125 C 11.546875 -34.367188 12.117188 -32.488281 12.421875 -30.1875 C 12.722656 -27.882812 12.625 -25.394531 12.125 -22.71875 C 11.625 -20.039062 10.609375 -17.398438 9.078125 -14.796875 C 7.554688 -12.203125 5.398438 -9.875 2.609375 -7.8125 C 2.691406 -6.726562 2.851562 -5.660156 3.09375 -4.609375 C 3.34375 -3.554688 3.707031 -2.71875 4.1875 -2.09375 C 4.625 -1.601562 5.132812 -1.453125 5.71875 -1.640625 C 6.3125 -1.828125 6.90625 -2.21875 7.5 -2.8125 C 8.101562 -3.40625 8.648438 -4.054688 9.140625 -4.765625 C 9.628906 -5.484375 9.984375 -6.113281 10.203125 -6.65625 C 10.390625 -7.050781 10.578125 -7.25 10.765625 -7.25 C 10.953125 -7.25 11 -7.050781 10.90625 -6.65625 C 10.582031 -5.707031 10.179688 -4.789062 9.703125 -3.90625 C 9.234375 -3.03125 8.617188 -2.238281 7.859375 -1.53125 C 7.273438 -0.976562 6.578125 -0.617188 5.765625 -0.453125 C 4.484375 -0.265625 3.441406 -0.601562 2.640625 -1.46875 C 1.847656 -2.34375 1.257812 -3.585938 0.875 -5.203125 C 0.625 -6.210938 0.453125 -7.726562 0.359375 -9.75 C 0.265625 -11.769531 0.265625 -14.035156 0.359375 -16.546875 C 0.453125 -19.066406 0.664062 -21.617188 1 -24.203125 C 1.332031 -26.785156 1.785156 -29.160156 2.359375 -31.328125 C 2.941406 -33.492188 3.675781 -35.210938 4.5625 -36.484375 C 5.445312 -37.753906 6.507812 -38.335938 7.75 -38.234375 Z M 2.640625 -9.515625 C 5.117188 -11.804688 6.976562 -14.226562 8.21875 -16.78125 C 9.457031 -19.332031 10.238281 -21.832031 10.5625 -24.28125 C 10.894531 -26.738281 10.921875 -28.953125 10.640625 -30.921875 C 10.367188 -32.898438 9.9375 -34.453125 9.34375 -35.578125 C 8.757812 -36.710938 8.1875 -37.226562 7.625 -37.125 C 6.914062 -36.914062 6.296875 -36.191406 5.765625 -34.953125 C 5.234375 -33.710938 4.78125 -32.144531 4.40625 -30.25 C 4.03125 -28.351562 3.71875 -26.328125 3.46875 -24.171875 C 3.226562 -22.023438 3.035156 -19.941406 2.890625 -17.921875 C 2.753906 -15.910156 2.664062 -14.15625 2.625 -12.65625 C 2.59375 -11.15625 2.597656 -10.109375 2.640625 -9.515625 Z M 2.640625 -9.515625 "/></g></g></g><g fill="#ffffff" fill-opacity="1"><g transform="translate(156.464109, 210.939699)"><g><path d="M 7.75 -38.234375 C 8.882812 -38.085938 9.867188 -37.285156 10.703125 -35.828125 C 11.546875 -34.367188 12.117188 -32.488281 12.421875 -30.1875 C 12.722656 -27.882812 12.625 -25.394531 12.125 -22.71875 C 11.625 -20.039062 10.609375 -17.398438 9.078125 -14.796875 C 7.554688 -12.203125 5.398438 -9.875 2.609375 -7.8125 C 2.691406 -6.726562 2.851562 -5.660156 3.09375 -4.609375 C 3.34375 -3.554688 3.707031 -2.71875 4.1875 -2.09375 C 4.625 -1.601562 5.132812 -1.453125 5.71875 -1.640625 C 6.3125 -1.828125 6.90625 -2.21875 7.5 -2.8125 C 8.101562 -3.40625 8.648438 -4.054688 9.140625 -4.765625 C 9.628906 -5.484375 9.984375 -6.113281 10.203125 -6.65625 C 10.390625 -7.050781 10.578125 -7.25 10.765625 -7.25 C 10.953125 -7.25 11 -7.050781 10.90625 -6.65625 C 10.582031 -5.707031 10.179688 -4.789062 9.703125 -3.90625 C 9.234375 -3.03125 8.617188 -2.238281 7.859375 -1.53125 C 7.273438 -0.976562 6.578125 -0.617188 5.765625 -0.453125 C 4.484375 -0.265625 3.441406 -0.601562 2.640625 -1.46875 C 1.847656 -2.34375 1.257812 -3.585938 0.875 -5.203125 C 0.625 -6.210938 0.453125 -7.726562 0.359375 -9.75 C 0.265625 -11.769531 0.265625 -14.035156 0.359375 -16.546875 C 0.453125 -19.066406 0.664062 -21.617188 1 -24.203125 C 1.332031 -26.785156 1.785156 -29.160156 2.359375 -31.328125 C 2.941406 -33.492188 3.675781 -35.210938 4.5625 -36.484375 C 5.445312 -37.753906 6.507812 -38.335938 7.75 -38.234375 Z M 2.640625 -9.515625 C 5.117188 -11.804688 6.976562 -14.226562 8.21875 -16.78125 C 9.457031 -19.332031 10.238281 -21.832031 10.5625 -24.28125 C 10.894531 -26.738281 10.921875 -28.953125 10.640625 -30.921875 C 10.367188 -32.898438 9.9375 -34.453125 9.34375 -35.578125 C 8.757812 -36.710938 8.1875 -37.226562 7.625 -37.125 C 6.914062 -36.914062 6.296875 -36.191406 5.765625 -34.953125 C 5.234375 -33.710938 4.78125 -32.144531 4.40625 -30.25 C 4.03125 -28.351562 3.71875 -26.328125 3.46875 -24.171875 C 3.226562 -22.023438 3.035156 -19.941406 2.890625 -17.921875 C 2.753906 -15.910156 2.664062 -14.15625 2.625 -12.65625 C 2.59375 -11.15625 2.597656 -10.109375 2.640625 -9.515625 Z M 2.640625 -9.515625 "/></g></g></g><g fill="#ffffff" fill-opacity="1"><g transform="translate(166.488583, 210.939699)"><g><path d="M 8.0625 -9.3125 C 8.5 -9.363281 8.800781 -9.285156 8.96875 -9.078125 C 9.101562 -8.847656 9.160156 -8.0625 9.140625 -6.71875 C 9.128906 -5.375 9.066406 -3.8125 8.953125 -2.03125 C 8.835938 -0.25 8.707031 1.394531 8.5625 2.90625 C 8.414062 4.425781 8.300781 5.488281 8.21875 6.09375 C 7.613281 9.539062 6.535156 12.421875 4.984375 14.734375 C 3.441406 17.054688 1.675781 18.847656 -0.3125 20.109375 C -2.3125 21.378906 -4.28125 22.144531 -6.21875 22.40625 C -8.15625 22.675781 -9.800781 22.488281 -11.15625 21.84375 C -12.507812 21.195312 -13.3125 20.125 -13.5625 18.625 C -13.820312 17.132812 -13.28125 15.25 -11.9375 12.96875 C -10.59375 10.695312 -8.195312 8.078125 -4.75 5.109375 C -3.375 3.960938 -1.472656 2.582031 0.953125 0.96875 C 3.378906 -0.644531 5.300781 -1.738281 6.71875 -2.3125 C 6.75 -2.582031 6.773438 -2.875 6.796875 -3.1875 C 6.210938 -2.519531 5.613281 -2.132812 5 -2.03125 C 4.394531 -1.925781 3.832031 -1.914062 3.3125 -2 C 3.269531 -2 3.242188 -2 3.234375 -2 C 2.296875 -2.125 1.5625 -2.554688 1.03125 -3.296875 C 0.507812 -4.035156 0.175781 -4.875 0.03125 -5.8125 C -0.113281 -6.75 -0.0703125 -7.585938 0.15625 -8.328125 C 0.382812 -9.078125 0.804688 -9.523438 1.421875 -9.671875 C 1.679688 -9.710938 1.960938 -9.734375 2.265625 -9.734375 C 2.578125 -9.742188 2.835938 -9.707031 3.046875 -9.625 C 3.253906 -9.550781 3.332031 -9.390625 3.28125 -9.140625 C 3.070312 -8.390625 2.953125 -7.566406 2.921875 -6.671875 C 2.898438 -5.773438 2.976562 -4.988281 3.15625 -4.3125 C 3.34375 -3.644531 3.671875 -3.285156 4.140625 -3.234375 C 4.617188 -3.179688 5.265625 -3.617188 6.078125 -4.546875 C 6.453125 -5.023438 6.710938 -5.53125 6.859375 -6.0625 C 6.859375 -6.644531 6.847656 -7.195312 6.828125 -7.71875 C 6.804688 -8.195312 6.796875 -8.597656 6.796875 -8.921875 C 6.898438 -9.085938 7.066406 -9.191406 7.296875 -9.234375 C 7.535156 -9.285156 7.75 -9.3125 7.9375 -9.3125 C 7.988281 -9.3125 8.03125 -9.3125 8.0625 -9.3125 Z M 6.671875 0.171875 C 6.671875 0.148438 6.671875 0.125 6.671875 0.09375 C 6.691406 -0.0195312 6.703125 -0.175781 6.703125 -0.375 C 6.710938 -0.570312 6.695312 -0.726562 6.65625 -0.84375 C 6.625 -0.957031 6.546875 -0.972656 6.421875 -0.890625 C 6.273438 -0.785156 6.109375 -0.671875 5.921875 -0.546875 C 4.722656 0.253906 3.15625 1.378906 1.21875 2.828125 C -0.707031 4.273438 -2.644531 5.910156 -4.59375 7.734375 C -4.976562 8.109375 -5.523438 8.660156 -6.234375 9.390625 C -6.953125 10.117188 -7.703125 10.957031 -8.484375 11.90625 C -9.273438 12.851562 -9.96875 13.828125 -10.5625 14.828125 C -11.15625 15.828125 -11.523438 16.769531 -11.671875 17.65625 C -11.816406 18.539062 -11.613281 19.304688 -11.0625 19.953125 C -10.34375 20.722656 -9.296875 21.054688 -7.921875 20.953125 C -6.546875 20.847656 -5.039062 20.328125 -3.40625 19.390625 C -1.769531 18.460938 -0.203125 17.125 1.296875 15.375 C 2.804688 13.632812 4.054688 11.488281 5.046875 8.9375 C 6.046875 6.394531 6.585938 3.472656 6.671875 0.171875 Z M 6.671875 0.171875 "/></g></g></g><g fill="#ffffff" fill-opacity="1"><g transform="translate(177.866573, 210.939699)"><g/></g></g><g fill="#ffffff" fill-opacity="1"><g transform="translate(185.028926, 210.939699)"><g><path d="M 30.1875 -56.125 C 32.351562 -55.050781 34.101562 -53.671875 35.4375 -51.984375 C 36.78125 -50.296875 37.71875 -48.347656 38.25 -46.140625 C 38.351562 -45.660156 38.394531 -45.175781 38.375 -44.6875 C 38.375 -44.5625 38.375 -44.445312 38.375 -44.34375 C 38.375 -43.945312 38.164062 -43.671875 37.75 -43.515625 C 37.550781 -43.410156 37.359375 -43.382812 37.171875 -43.4375 C 36.992188 -43.488281 36.878906 -43.609375 36.828125 -43.796875 C 36.722656 -44.160156 36.628906 -44.53125 36.546875 -44.90625 C 36.523438 -44.988281 36.503906 -45.082031 36.484375 -45.1875 C 35.785156 -48.019531 34.316406 -50.453125 32.078125 -52.484375 C 29.117188 -55.179688 25.582031 -56.238281 21.46875 -55.65625 C 17.90625 -55.144531 14.648438 -53.929688 11.703125 -52.015625 C 7.703125 -49.484375 4.394531 -46.328125 1.78125 -42.546875 C 0.988281 -41.429688 0.320312 -40.269531 -0.21875 -39.0625 C -2.039062 -35.050781 -2.140625 -31.019531 -0.515625 -26.96875 C -0.00390625 -25.644531 0.628906 -24.394531 1.390625 -23.21875 C 2.148438 -22.039062 2.96875 -20.90625 3.84375 -19.8125 C 5.832031 -17.34375 7.960938 -15.003906 10.234375 -12.796875 C 11.453125 -11.617188 12.675781 -10.453125 13.90625 -9.296875 C 15.644531 -7.617188 17.367188 -5.9375 19.078125 -4.25 C 21.234375 -2.144531 23.1875 0.09375 24.9375 2.46875 C 25.5 3.226562 26.015625 4.015625 26.484375 4.828125 C 26.953125 5.648438 27.316406 6.519531 27.578125 7.4375 C 28.347656 9.882812 27.570312 11.78125 25.25 13.125 C 24.03125 13.875 22.710938 14.320312 21.296875 14.46875 C 14.953125 14.96875 9.910156 12.847656 6.171875 8.109375 C 5.222656 6.867188 4.625 5.550781 4.375 4.15625 C 4.125 2.757812 4.132812 1.328125 4.40625 -0.140625 C 4.976562 -3.460938 6.40625 -6.441406 8.6875 -9.078125 C 8.914062 -9.335938 9.132812 -9.597656 9.34375 -9.859375 C 9.414062 -9.972656 9.503906 -10.082031 9.609375 -10.1875 C 9.390625 -10.601562 9.113281 -10.945312 8.78125 -11.21875 C 8.675781 -11.320312 8.582031 -11.410156 8.5 -11.484375 C 6.101562 -13.847656 3.863281 -16.320312 1.78125 -18.90625 C 0.332031 -20.6875 -0.898438 -22.585938 -1.921875 -24.609375 C -4.503906 -29.785156 -4.441406 -34.9375 -1.734375 -40.0625 C -0.242188 -42.769531 1.566406 -45.195312 3.703125 -47.34375 C 5.847656 -49.5 8.273438 -51.414062 10.984375 -53.09375 C 13.628906 -54.75 16.503906 -55.945312 19.609375 -56.6875 C 20.890625 -57 22.1875 -57.191406 23.5 -57.265625 C 24.820312 -57.347656 26.140625 -57.269531 27.453125 -57.03125 C 28.410156 -56.84375 29.320312 -56.539062 30.1875 -56.125 Z M 10.28125 -9.015625 C 10.113281 -8.847656 9.957031 -8.660156 9.8125 -8.453125 C 8.8125 -7.128906 8.046875 -5.722656 7.515625 -4.234375 C 6.984375 -2.742188 6.617188 -1.195312 6.421875 0.40625 C 6.066406 3.65625 7.128906 6.429688 9.609375 8.734375 C 11.992188 10.960938 14.863281 12.347656 18.21875 12.890625 C 19.75 13.179688 21.273438 13.140625 22.796875 12.765625 C 25.140625 12.160156 26.039062 10.753906 25.5 8.546875 C 25.226562 7.515625 24.804688 6.519531 24.234375 5.5625 C 23.359375 4.09375 22.351562 2.695312 21.21875 1.375 C 19.832031 -0.269531 18.367188 -1.863281 16.828125 -3.40625 C 15.285156 -4.945312 13.722656 -6.46875 12.140625 -7.96875 C 11.785156 -8.289062 11.429688 -8.617188 11.078125 -8.953125 C 10.992188 -9.035156 10.890625 -9.097656 10.765625 -9.140625 C 10.722656 -9.179688 10.671875 -9.210938 10.609375 -9.234375 C 10.566406 -9.210938 10.523438 -9.191406 10.484375 -9.171875 C 10.398438 -9.128906 10.332031 -9.078125 10.28125 -9.015625 Z M 10.28125 -9.015625 "/></g></g></g><g fill="#ffffff" fill-opacity="1"><g transform="translate(210.872614, 210.939699)"><g><path d="M 18.40625 -7.71875 C 18.457031 -7.695312 18.519531 -7.65625 18.59375 -7.59375 C 18.664062 -7.53125 18.710938 -7.457031 18.734375 -7.375 C 18.753906 -7.289062 18.703125 -7.210938 18.578125 -7.140625 C 17.804688 -6.734375 16.875 -6.566406 15.78125 -6.640625 C 14.6875 -6.710938 13.820312 -7.070312 13.1875 -7.71875 C 13.144531 -7.382812 13.09375 -7.0625 13.03125 -6.75 C 12.925781 -6.0625 12.820312 -5.398438 12.71875 -4.765625 C 12.570312 -4.046875 12.320312 -3.351562 11.96875 -2.6875 C 11.5 -1.914062 10.890625 -1.40625 10.140625 -1.15625 C 9.398438 -0.914062 8.695312 -0.878906 8.03125 -1.046875 C 7.332031 -1.179688 6.765625 -1.523438 6.328125 -2.078125 C 6.140625 -2.316406 5.960938 -2.5625 5.796875 -2.8125 C 5.722656 -2.90625 5.648438 -3.003906 5.578125 -3.109375 C 5.390625 -3.097656 5.242188 -3.046875 5.140625 -2.953125 C 5.035156 -2.859375 4.941406 -2.757812 4.859375 -2.65625 C 4.785156 -2.550781 4.695312 -2.46875 4.59375 -2.40625 C 3.875 -1.894531 3.15625 -1.722656 2.4375 -1.890625 C 1.726562 -2.066406 1.179688 -2.550781 0.796875 -3.34375 C 0.640625 -3.707031 0.519531 -4.085938 0.4375 -4.484375 C 0.25 -5.253906 0.128906 -6.019531 0.078125 -6.78125 C 0.0234375 -7.539062 0.0078125 -8.316406 0.03125 -9.109375 C 0.0703125 -9.585938 0.253906 -9.894531 0.578125 -10.03125 C 0.898438 -10.175781 1.21875 -10.160156 1.53125 -9.984375 C 1.851562 -9.816406 2.035156 -9.484375 2.078125 -8.984375 C 2.097656 -8.648438 2.109375 -8.320312 2.109375 -8 C 2.085938 -6.789062 2.222656 -5.609375 2.515625 -4.453125 C 2.597656 -4.179688 2.691406 -3.925781 2.796875 -3.6875 C 2.859375 -3.5625 2.945312 -3.492188 3.0625 -3.484375 C 3.175781 -3.472656 3.273438 -3.53125 3.359375 -3.65625 C 3.671875 -4.082031 3.898438 -4.550781 4.046875 -5.0625 C 4.203125 -5.570312 4.34375 -6.09375 4.46875 -6.625 C 4.46875 -6.6875 4.476562 -6.75 4.5 -6.8125 C 4.53125 -7.03125 4.582031 -7.269531 4.65625 -7.53125 C 4.6875 -7.84375 4.75 -8.148438 4.84375 -8.453125 C 4.988281 -8.972656 5.390625 -9.191406 6.046875 -9.109375 C 6.597656 -9.066406 6.890625 -8.789062 6.921875 -8.28125 C 6.921875 -7.070312 7.050781 -5.890625 7.3125 -4.734375 C 7.394531 -4.316406 7.515625 -3.910156 7.671875 -3.515625 C 7.828125 -3.128906 8.0625 -2.769531 8.375 -2.4375 C 8.707031 -2.125 9.050781 -2.125 9.40625 -2.4375 C 9.914062 -2.9375 10.253906 -3.515625 10.421875 -4.171875 C 10.835938 -5.484375 11.023438 -6.828125 10.984375 -8.203125 C 10.984375 -8.304688 10.984375 -8.410156 10.984375 -8.515625 C 10.929688 -9.097656 10.921875 -9.664062 10.953125 -10.21875 C 10.972656 -11.007812 11.394531 -11.3125 12.21875 -11.125 C 12.40625 -11.082031 12.578125 -11.019531 12.734375 -10.9375 C 12.890625 -10.851562 13.003906 -10.695312 13.078125 -10.46875 C 13.734375 -9.0625 14.410156 -8.148438 15.109375 -7.734375 C 15.804688 -7.328125 16.441406 -7.175781 17.015625 -7.28125 C 17.597656 -7.382812 18.015625 -7.507812 18.265625 -7.65625 C 18.328125 -7.675781 18.375 -7.695312 18.40625 -7.71875 Z M 18.40625 -7.71875 "/></g></g></g><g fill="#ffffff" fill-opacity="1"><g transform="translate(228.059441, 210.939699)"><g><path d="M 12.546875 -6.75 C 12.734375 -6.851562 12.921875 -6.929688 13.109375 -6.984375 C 13.296875 -7.035156 13.414062 -7.03125 13.46875 -6.96875 C 13.519531 -6.90625 13.441406 -6.75 13.234375 -6.5 C 12.566406 -5.757812 11.785156 -5.082031 10.890625 -4.46875 C 9.992188 -3.851562 9.082031 -3.332031 8.15625 -2.90625 C 7.40625 -2.570312 6.613281 -2.304688 5.78125 -2.109375 C 4.957031 -1.910156 4.140625 -1.867188 3.328125 -1.984375 C 2.523438 -2.097656 1.796875 -2.457031 1.140625 -3.0625 C 0.347656 -3.851562 -0.078125 -4.851562 -0.140625 -6.0625 C -0.210938 -7.28125 0.0664062 -8.304688 0.703125 -9.140625 C 1.546875 -10.085938 2.613281 -10.695312 3.90625 -10.96875 C 5.195312 -11.238281 6.363281 -11.03125 7.40625 -10.34375 C 7.90625 -10 8.109375 -9.59375 8.015625 -9.125 C 7.921875 -8.664062 7.671875 -8.234375 7.265625 -7.828125 C 6.859375 -7.421875 6.40625 -7.113281 5.90625 -6.90625 C 5.164062 -6.613281 4.5 -6.554688 3.90625 -6.734375 C 3.320312 -6.910156 2.863281 -7.144531 2.53125 -7.4375 C 2.300781 -7.34375 2.15625 -7.007812 2.09375 -6.4375 C 1.945312 -5.363281 2.285156 -4.488281 3.109375 -3.8125 C 3.796875 -3.289062 4.660156 -3.144531 5.703125 -3.375 C 6.753906 -3.613281 7.828125 -4.03125 8.921875 -4.625 C 10.015625 -5.21875 10.988281 -5.78125 11.84375 -6.3125 C 12.101562 -6.457031 12.335938 -6.601562 12.546875 -6.75 Z M 5.703125 -9.46875 C 5.578125 -9.644531 5.375 -9.710938 5.09375 -9.671875 C 4.8125 -9.640625 4.519531 -9.550781 4.21875 -9.40625 C 3.925781 -9.269531 3.664062 -9.125 3.4375 -8.96875 C 3.21875 -8.8125 3.125 -8.703125 3.15625 -8.640625 C 3.15625 -8.609375 3.179688 -8.539062 3.234375 -8.4375 C 3.285156 -8.34375 3.363281 -8.242188 3.46875 -8.140625 C 3.570312 -8.046875 3.707031 -7.976562 3.875 -7.9375 C 4.050781 -7.894531 4.273438 -7.90625 4.546875 -7.96875 C 4.984375 -8.09375 5.285156 -8.25 5.453125 -8.4375 C 5.628906 -8.632812 5.726562 -8.828125 5.75 -9.015625 C 5.78125 -9.210938 5.765625 -9.363281 5.703125 -9.46875 Z M 5.703125 -9.46875 "/></g></g></g><g fill="#ffffff" fill-opacity="1"><g transform="translate(240.001395, 210.939699)"><g><path d="M 12.546875 -6.75 C 12.734375 -6.851562 12.921875 -6.929688 13.109375 -6.984375 C 13.296875 -7.035156 13.414062 -7.03125 13.46875 -6.96875 C 13.519531 -6.90625 13.441406 -6.75 13.234375 -6.5 C 12.566406 -5.757812 11.785156 -5.082031 10.890625 -4.46875 C 9.992188 -3.851562 9.082031 -3.332031 8.15625 -2.90625 C 7.40625 -2.570312 6.613281 -2.304688 5.78125 -2.109375 C 4.957031 -1.910156 4.140625 -1.867188 3.328125 -1.984375 C 2.523438 -2.097656 1.796875 -2.457031 1.140625 -3.0625 C 0.347656 -3.851562 -0.078125 -4.851562 -0.140625 -6.0625 C -0.210938 -7.28125 0.0664062 -8.304688 0.703125 -9.140625 C 1.546875 -10.085938 2.613281 -10.695312 3.90625 -10.96875 C 5.195312 -11.238281 6.363281 -11.03125 7.40625 -10.34375 C 7.90625 -10 8.109375 -9.59375 8.015625 -9.125 C 7.921875 -8.664062 7.671875 -8.234375 7.265625 -7.828125 C 6.859375 -7.421875 6.40625 -7.113281 5.90625 -6.90625 C 5.164062 -6.613281 4.5 -6.554688 3.90625 -6.734375 C 3.320312 -6.910156 2.863281 -7.144531 2.53125 -7.4375 C 2.300781 -7.34375 2.15625 -7.007812 2.09375 -6.4375 C 1.945312 -5.363281 2.285156 -4.488281 3.109375 -3.8125 C 3.796875 -3.289062 4.660156 -3.144531 5.703125 -3.375 C 6.753906 -3.613281 7.828125 -4.03125 8.921875 -4.625 C 10.015625 -5.21875 10.988281 -5.78125 11.84375 -6.3125 C 12.101562 -6.457031 12.335938 -6.601562 12.546875 -6.75 Z M 5.703125 -9.46875 C 5.578125 -9.644531 5.375 -9.710938 5.09375 -9.671875 C 4.8125 -9.640625 4.519531 -9.550781 4.21875 -9.40625 C 3.925781 -9.269531 3.664062 -9.125 3.4375 -8.96875 C 3.21875 -8.8125 3.125 -8.703125 3.15625 -8.640625 C 3.15625 -8.609375 3.179688 -8.539062 3.234375 -8.4375 C 3.285156 -8.34375 3.363281 -8.242188 3.46875 -8.140625 C 3.570312 -8.046875 3.707031 -7.976562 3.875 -7.9375 C 4.050781 -7.894531 4.273438 -7.90625 4.546875 -7.96875 C 4.984375 -8.09375 5.285156 -8.25 5.453125 -8.4375 C 5.628906 -8.632812 5.726562 -8.828125 5.75 -9.015625 C 5.78125 -9.210938 5.765625 -9.363281 5.703125 -9.46875 Z M 5.703125 -9.46875 "/></g></g></g><g fill="#ffffff" fill-opacity="1"><g transform="translate(251.94335, 210.939699)"><g><path d="M 6.921875 -16.375 C 7.046875 -16.351562 7.128906 -16.265625 7.171875 -16.109375 C 7.210938 -15.953125 7.210938 -15.789062 7.171875 -15.625 C 7.128906 -15.457031 7.046875 -15.375 6.921875 -15.375 L 2.375 -15.40625 L 2.375 -15.28125 C 2.351562 -14.613281 2.304688 -13.816406 2.234375 -12.890625 C 2.140625 -10.921875 2.09375 -8.925781 2.09375 -6.90625 C 2.09375 -6.21875 2.140625 -5.269531 2.234375 -4.0625 C 2.328125 -2.851562 2.519531 -1.773438 2.8125 -0.828125 C 2.820312 -0.765625 2.878906 -0.648438 2.984375 -0.484375 C 3.109375 -0.273438 3.226562 -0.0390625 3.34375 0.21875 C 3.457031 0.476562 3.507812 0.6875 3.5 0.84375 C 3.488281 1.007812 3.359375 1.0625 3.109375 1 C 2.304688 0.738281 1.691406 0.0976562 1.265625 -0.921875 C 0.847656 -1.953125 0.546875 -3.148438 0.359375 -4.515625 C 0.179688 -5.878906 0.0859375 -7.210938 0.078125 -8.515625 C 0.078125 -9.816406 0.09375 -10.875 0.125 -11.6875 C 0.15625 -12.238281 0.179688 -12.796875 0.203125 -13.359375 C 0.210938 -14.054688 0.226562 -14.75 0.25 -15.4375 L -3.1875 -15.5 C -3.476562 -15.5 -3.644531 -15.550781 -3.6875 -15.65625 C -3.726562 -15.769531 -3.695312 -15.882812 -3.59375 -16 C -3.488281 -16.125 -3.351562 -16.195312 -3.1875 -16.21875 L 0.28125 -16.265625 L 0.5 -19.59375 C 0.539062 -20.132812 0.585938 -20.679688 0.640625 -21.234375 C 0.640625 -21.523438 0.644531 -21.816406 0.65625 -22.109375 C 0.65625 -22.535156 0.757812 -22.9375 0.96875 -23.3125 C 1.21875 -23.644531 1.519531 -23.769531 1.875 -23.6875 C 2.1875 -23.582031 2.359375 -23.363281 2.390625 -23.03125 C 2.429688 -22.5 2.453125 -21.960938 2.453125 -21.421875 C 2.453125 -21.109375 2.453125 -20.796875 2.453125 -20.484375 C 2.453125 -20.140625 2.453125 -19.789062 2.453125 -19.4375 L 2.375 -16.296875 Z M 6.921875 -16.375 "/></g></g></g><g fill="#ffffff" fill-opacity="1"><g transform="translate(257.061331, 210.939699)"><g/></g></g><g fill="#ffffff" fill-opacity="1"><g transform="translate(264.223684, 210.939699)"><g><path d="M -7.953125 -37.546875 C -8.054688 -37.546875 -8.160156 -37.5625 -8.265625 -37.59375 C -8.335938 -37.59375 -8.410156 -37.609375 -8.484375 -37.640625 C -8.554688 -37.679688 -8.613281 -37.753906 -8.65625 -37.859375 C -8.738281 -38.128906 -8.675781 -38.332031 -8.46875 -38.46875 C -8.226562 -38.675781 -7.972656 -38.816406 -7.703125 -38.890625 C -5.503906 -39.179688 -3.332031 -39.582031 -1.1875 -40.09375 C 0.226562 -40.40625 1.644531 -40.691406 3.0625 -40.953125 C 5.882812 -41.453125 8.691406 -41.960938 11.484375 -42.484375 C 14.390625 -43.046875 17.300781 -43.585938 20.21875 -44.109375 C 24.351562 -44.796875 28.5 -45.453125 32.65625 -46.078125 C 37.476562 -46.796875 42.316406 -47.15625 47.171875 -47.15625 C 47.878906 -47.15625 48.582031 -47.117188 49.28125 -47.046875 L 49.5 -47.046875 C 49.601562 -47.046875 49.695312 -47.015625 49.78125 -46.953125 L 50.03125 -46.953125 C 50.300781 -46.929688 50.453125 -46.773438 50.484375 -46.484375 C 50.484375 -46.335938 50.445312 -46.222656 50.375 -46.140625 C 50.3125 -46.054688 50.21875 -45.984375 50.09375 -45.921875 C 49.851562 -45.867188 49.625 -45.84375 49.40625 -45.84375 C 45.488281 -45.75 41.597656 -45.472656 37.734375 -45.015625 C 33.878906 -44.566406 30.023438 -44.023438 26.171875 -43.390625 C 25.941406 -43.347656 25.722656 -43.300781 25.515625 -43.25 C 23.960938 -43.007812 22.40625 -42.753906 20.84375 -42.484375 C 20.382812 -42.421875 20.09375 -42.316406 19.96875 -42.171875 C 19.84375 -42.023438 19.8125 -41.75 19.875 -41.34375 C 20.1875 -37.800781 20.34375 -34.25 20.34375 -30.6875 C 20.34375 -27.132812 20.300781 -23.578125 20.21875 -20.015625 C 20.175781 -18.554688 20.144531 -17.09375 20.125 -15.625 C 19.976562 -8.550781 19.578125 -1.488281 18.921875 5.5625 C 18.816406 6.882812 18.695312 8.195312 18.5625 9.5 L 18.453125 11.3125 C 18.421875 11.382812 18.40625 11.460938 18.40625 11.546875 C 18.40625 11.941406 18.328125 12.328125 18.171875 12.703125 C 18.046875 12.984375 17.832031 13.15625 17.53125 13.21875 C 17.375 13.257812 17.242188 13.253906 17.140625 13.203125 C 17.109375 13.179688 17.082031 13.15625 17.0625 13.125 L 16.984375 13.125 C 16.847656 13.175781 16.726562 13.175781 16.625 13.125 C 16.519531 13.070312 16.457031 12.96875 16.4375 12.8125 C 16.40625 12.46875 16.414062 12.109375 16.46875 11.734375 L 16.46875 11.578125 C 16.914062 5.609375 17.253906 -0.375 17.484375 -6.375 C 17.546875 -7.820312 17.585938 -9.257812 17.609375 -10.6875 C 17.609375 -11.351562 17.617188 -12.015625 17.640625 -12.671875 C 17.828125 -19.578125 17.921875 -26.472656 17.921875 -33.359375 C 17.898438 -35.941406 17.773438 -38.515625 17.546875 -41.078125 C 17.535156 -41.472656 17.453125 -41.734375 17.296875 -41.859375 L 17.265625 -41.859375 C 17.203125 -41.859375 17.132812 -41.847656 17.0625 -41.828125 C 14.03125 -41.316406 11.015625 -40.78125 8.015625 -40.21875 C 5.273438 -39.726562 2.535156 -39.222656 -0.203125 -38.703125 C -2.117188 -38.328125 -4.03125 -37.960938 -5.9375 -37.609375 C -5.96875 -37.597656 -6.003906 -37.59375 -6.046875 -37.59375 C -6.609375 -37.4375 -7.164062 -37.398438 -7.71875 -37.484375 C -7.8125 -37.484375 -7.890625 -37.503906 -7.953125 -37.546875 Z M -7.953125 -37.546875 "/></g></g></g><g fill="#ffffff" fill-opacity="1"><g transform="translate(288.868946, 210.939699)"><g><path d="M 9 -6.75 C 9.175781 -7.113281 9.296875 -7.28125 9.359375 -7.25 C 9.421875 -7.226562 9.4375 -7.082031 9.40625 -6.8125 C 9.375 -6.550781 9.316406 -6.25 9.234375 -5.90625 C 9.109375 -5.382812 8.894531 -4.785156 8.59375 -4.109375 C 8.300781 -3.429688 7.96875 -2.8125 7.59375 -2.25 C 7.050781 -1.476562 6.378906 -0.894531 5.578125 -0.5 C 4.773438 -0.113281 4.046875 -0.0195312 3.390625 -0.21875 C 2.734375 -0.414062 2.351562 -1.035156 2.25 -2.078125 C 2.238281 -2.941406 2.316406 -3.890625 2.484375 -4.921875 C 2.535156 -5.347656 2.597656 -5.769531 2.671875 -6.1875 C 2.671875 -6.34375 2.628906 -6.457031 2.546875 -6.53125 C 2.472656 -6.613281 2.375 -6.644531 2.25 -6.625 C 2.164062 -6.625 2.070312 -6.625 1.96875 -6.625 C 1.457031 -6.539062 0.929688 -6.550781 0.390625 -6.65625 C -0.242188 -6.84375 -0.613281 -7.160156 -0.71875 -7.609375 C -0.820312 -8.054688 -0.8125 -8.640625 -0.6875 -9.359375 C -0.625 -9.878906 -0.429688 -10.265625 -0.109375 -10.515625 C 0.203125 -10.773438 0.578125 -10.882812 1.015625 -10.84375 C 1.617188 -10.78125 1.910156 -10.546875 1.890625 -10.140625 C 1.867188 -9.742188 1.753906 -9.316406 1.546875 -8.859375 C 1.359375 -8.472656 1.257812 -8.148438 1.25 -7.890625 C 1.238281 -7.628906 1.460938 -7.535156 1.921875 -7.609375 C 2.023438 -7.640625 2.132812 -7.675781 2.25 -7.71875 C 2.425781 -7.78125 2.617188 -7.835938 2.828125 -7.890625 C 3.046875 -7.941406 3.332031 -7.953125 3.6875 -7.921875 C 4.09375 -7.898438 4.363281 -7.707031 4.5 -7.34375 C 4.632812 -6.988281 4.691406 -6.535156 4.671875 -5.984375 C 4.660156 -5.441406 4.613281 -4.890625 4.53125 -4.328125 C 4.425781 -3.617188 4.375 -3.015625 4.375 -2.515625 C 4.375 -2.015625 4.519531 -1.722656 4.8125 -1.640625 C 5.195312 -1.535156 5.769531 -1.882812 6.53125 -2.6875 C 7.300781 -3.488281 8.125 -4.84375 9 -6.75 Z M 9 -6.75 "/></g></g></g><g fill="#ffffff" fill-opacity="1"><g transform="translate(297.497608, 210.939699)"><g><path d="M 12.546875 -6.75 C 12.734375 -6.851562 12.921875 -6.929688 13.109375 -6.984375 C 13.296875 -7.035156 13.414062 -7.03125 13.46875 -6.96875 C 13.519531 -6.90625 13.441406 -6.75 13.234375 -6.5 C 12.566406 -5.757812 11.785156 -5.082031 10.890625 -4.46875 C 9.992188 -3.851562 9.082031 -3.332031 8.15625 -2.90625 C 7.40625 -2.570312 6.613281 -2.304688 5.78125 -2.109375 C 4.957031 -1.910156 4.140625 -1.867188 3.328125 -1.984375 C 2.523438 -2.097656 1.796875 -2.457031 1.140625 -3.0625 C 0.347656 -3.851562 -0.078125 -4.851562 -0.140625 -6.0625 C -0.210938 -7.28125 0.0664062 -8.304688 0.703125 -9.140625 C 1.546875 -10.085938 2.613281 -10.695312 3.90625 -10.96875 C 5.195312 -11.238281 6.363281 -11.03125 7.40625 -10.34375 C 7.90625 -10 8.109375 -9.59375 8.015625 -9.125 C 7.921875 -8.664062 7.671875 -8.234375 7.265625 -7.828125 C 6.859375 -7.421875 6.40625 -7.113281 5.90625 -6.90625 C 5.164062 -6.613281 4.5 -6.554688 3.90625 -6.734375 C 3.320312 -6.910156 2.863281 -7.144531 2.53125 -7.4375 C 2.300781 -7.34375 2.15625 -7.007812 2.09375 -6.4375 C 1.945312 -5.363281 2.285156 -4.488281 3.109375 -3.8125 C 3.796875 -3.289062 4.660156 -3.144531 5.703125 -3.375 C 6.753906 -3.613281 7.828125 -4.03125 8.921875 -4.625 C 10.015625 -5.21875 10.988281 -5.78125 11.84375 -6.3125 C 12.101562 -6.457031 12.335938 -6.601562 12.546875 -6.75 Z M 5.703125 -9.46875 C 5.578125 -9.644531 5.375 -9.710938 5.09375 -9.671875 C 4.8125 -9.640625 4.519531 -9.550781 4.21875 -9.40625 C 3.925781 -9.269531 3.664062 -9.125 3.4375 -8.96875 C 3.21875 -8.8125 3.125 -8.703125 3.15625 -8.640625 C 3.15625 -8.609375 3.179688 -8.539062 3.234375 -8.4375 C 3.285156 -8.34375 3.363281 -8.242188 3.46875 -8.140625 C 3.570312 -8.046875 3.707031 -7.976562 3.875 -7.9375 C 4.050781 -7.894531 4.273438 -7.90625 4.546875 -7.96875 C 4.984375 -8.09375 5.285156 -8.25 5.453125 -8.4375 C 5.628906 -8.632812 5.726562 -8.828125 5.75 -9.015625 C 5.78125 -9.210938 5.765625 -9.363281 5.703125 -9.46875 Z M 5.703125 -9.46875 "/></g></g></g><g fill="#ffffff" fill-opacity="1"><g transform="translate(309.439563, 210.939699)"><g><path d="M 20.84375 -8.15625 C 21.007812 -8.375 21.1875 -8.535156 21.375 -8.640625 C 21.5625 -8.742188 21.671875 -8.742188 21.703125 -8.640625 C 21.742188 -8.535156 21.644531 -8.285156 21.40625 -7.890625 C 20.851562 -7.066406 20.035156 -6.28125 18.953125 -5.53125 C 17.878906 -4.789062 16.691406 -4.15625 15.390625 -3.625 C 14.085938 -3.101562 12.816406 -2.757812 11.578125 -2.59375 C 10.335938 -2.425781 9.285156 -2.507812 8.421875 -2.84375 C 7.566406 -3.175781 7.035156 -3.828125 6.828125 -4.796875 C 6.097656 -3.617188 5.238281 -2.695312 4.25 -2.03125 C 3.257812 -1.375 2.316406 -1.097656 1.421875 -1.203125 C 0.410156 -1.335938 -0.257812 -1.710938 -0.59375 -2.328125 C -0.9375 -2.953125 -1.050781 -3.671875 -0.9375 -4.484375 C -0.832031 -5.296875 -0.59375 -6.0625 -0.21875 -6.78125 C 0.0703125 -7.332031 0.472656 -7.847656 0.984375 -8.328125 C 1.503906 -8.804688 2.046875 -9.179688 2.609375 -9.453125 C 3.316406 -9.804688 4.023438 -9.96875 4.734375 -9.9375 C 5.441406 -9.90625 6.195312 -9.671875 7 -9.234375 C 7 -9.234375 7.007812 -9.253906 7.03125 -9.296875 C 7.03125 -9.378906 7.046875 -9.472656 7.078125 -9.578125 C 7.117188 -9.691406 7.191406 -9.796875 7.296875 -9.890625 C 7.429688 -9.984375 7.609375 -10.0625 7.828125 -10.125 C 8.046875 -10.1875 8.257812 -10.203125 8.46875 -10.171875 C 8.800781 -10.097656 9.003906 -9.925781 9.078125 -9.65625 C 9.160156 -9.394531 9.175781 -9.101562 9.125 -8.78125 C 9.070312 -8.457031 9.019531 -8.1875 8.96875 -7.96875 C 8.945312 -7.914062 8.9375 -7.875 8.9375 -7.84375 C 8.601562 -6.476562 8.722656 -5.519531 9.296875 -4.96875 C 9.878906 -4.414062 10.722656 -4.160156 11.828125 -4.203125 C 12.941406 -4.242188 14.117188 -4.476562 15.359375 -4.90625 C 16.597656 -5.332031 17.722656 -5.835938 18.734375 -6.421875 C 19.753906 -7.003906 20.457031 -7.582031 20.84375 -8.15625 Z M 1.828125 -3.03125 C 2.265625 -2.738281 2.726562 -2.769531 3.21875 -3.125 C 3.71875 -3.476562 4.207031 -3.984375 4.6875 -4.640625 C 5.164062 -5.304688 5.554688 -5.96875 5.859375 -6.625 C 6.171875 -7.28125 6.347656 -7.78125 6.390625 -8.125 C 5.398438 -8.65625 4.550781 -8.75 3.84375 -8.40625 C 3.144531 -8.0625 2.597656 -7.515625 2.203125 -6.765625 C 1.804688 -6.015625 1.578125 -5.269531 1.515625 -4.53125 C 1.453125 -3.789062 1.554688 -3.289062 1.828125 -3.03125 Z M 1.828125 -3.03125 "/></g></g></g><g fill="#ffffff" fill-opacity="1"><g transform="translate(329.601304, 210.939699)"><g><path d="M 6.921875 -16.375 C 7.046875 -16.351562 7.128906 -16.265625 7.171875 -16.109375 C 7.210938 -15.953125 7.210938 -15.789062 7.171875 -15.625 C 7.128906 -15.457031 7.046875 -15.375 6.921875 -15.375 L 2.375 -15.40625 L 2.375 -15.28125 C 2.351562 -14.613281 2.304688 -13.816406 2.234375 -12.890625 C 2.140625 -10.921875 2.09375 -8.925781 2.09375 -6.90625 C 2.09375 -6.21875 2.140625 -5.269531 2.234375 -4.0625 C 2.328125 -2.851562 2.519531 -1.773438 2.8125 -0.828125 C 2.820312 -0.765625 2.878906 -0.648438 2.984375 -0.484375 C 3.109375 -0.273438 3.226562 -0.0390625 3.34375 0.21875 C 3.457031 0.476562 3.507812 0.6875 3.5 0.84375 C 3.488281 1.007812 3.359375 1.0625 3.109375 1 C 2.304688 0.738281 1.691406 0.0976562 1.265625 -0.921875 C 0.847656 -1.953125 0.546875 -3.148438 0.359375 -4.515625 C 0.179688 -5.878906 0.0859375 -7.210938 0.078125 -8.515625 C 0.078125 -9.816406 0.09375 -10.875 0.125 -11.6875 C 0.15625 -12.238281 0.179688 -12.796875 0.203125 -13.359375 C 0.210938 -14.054688 0.226562 -14.75 0.25 -15.4375 L -3.1875 -15.5 C -3.476562 -15.5 -3.644531 -15.550781 -3.6875 -15.65625 C -3.726562 -15.769531 -3.695312 -15.882812 -3.59375 -16 C -3.488281 -16.125 -3.351562 -16.195312 -3.1875 -16.21875 L 0.28125 -16.265625 L 0.5 -19.59375 C 0.539062 -20.132812 0.585938 -20.679688 0.640625 -21.234375 C 0.640625 -21.523438 0.644531 -21.816406 0.65625 -22.109375 C 0.65625 -22.535156 0.757812 -22.9375 0.96875 -23.3125 C 1.21875 -23.644531 1.519531 -23.769531 1.875 -23.6875 C 2.1875 -23.582031 2.359375 -23.363281 2.390625 -23.03125 C 2.429688 -22.5 2.453125 -21.960938 2.453125 -21.421875 C 2.453125 -21.109375 2.453125 -20.796875 2.453125 -20.484375 C 2.453125 -20.140625 2.453125 -19.789062 2.453125 -19.4375 L 2.375 -16.296875 Z M 6.921875 -16.375 "/></g></g></g><g fill="#ffffff" fill-opacity="1"><g transform="translate(334.719285, 210.939699)"><g><path d="M 4.171875 -5.125 C 4.492188 -4.71875 4.703125 -4.289062 4.796875 -3.84375 C 4.890625 -3.40625 4.921875 -2.925781 4.890625 -2.40625 C 4.867188 -1.894531 4.703125 -1.4375 4.390625 -1.03125 C 4.085938 -0.625 3.570312 -0.378906 2.84375 -0.296875 C 2.125 -0.242188 1.476562 -0.351562 0.90625 -0.625 C 0.34375 -0.90625 -0.0078125 -1.304688 -0.15625 -1.828125 C -0.300781 -2.359375 -0.128906 -2.976562 0.359375 -3.6875 C 0.691406 -4.070312 1.085938 -4.410156 1.546875 -4.703125 C 1.710938 -4.804688 1.878906 -4.921875 2.046875 -5.046875 C 1.492188 -5.648438 0.96875 -6.265625 0.46875 -6.890625 C -0.03125 -7.523438 -0.351562 -8.09375 -0.5 -8.59375 C -0.644531 -9.164062 -0.546875 -9.703125 -0.203125 -10.203125 C 0.140625 -10.710938 0.734375 -11.007812 1.578125 -11.09375 C 1.992188 -11.132812 2.378906 -11.113281 2.734375 -11.03125 C 3.097656 -10.945312 3.4375 -10.769531 3.75 -10.5 C 3.8125 -10.4375 3.859375 -10.363281 3.890625 -10.28125 C 3.921875 -10.207031 3.90625 -10.109375 3.84375 -9.984375 C 3.738281 -9.796875 3.585938 -9.703125 3.390625 -9.703125 C 3.234375 -9.703125 3.085938 -9.71875 2.953125 -9.75 C 2.796875 -9.820312 2.65625 -9.882812 2.53125 -9.9375 C 2.445312 -9.988281 2.367188 -10.03125 2.296875 -10.0625 C 2.023438 -10.164062 1.816406 -10.148438 1.671875 -10.015625 C 1.523438 -9.890625 1.453125 -9.691406 1.453125 -9.421875 C 1.472656 -8.941406 1.671875 -8.425781 2.046875 -7.875 C 2.421875 -7.332031 2.789062 -6.832031 3.15625 -6.375 C 3.3125 -6.21875 3.4375 -6.0625 3.53125 -5.90625 C 3.632812 -5.800781 3.847656 -5.539062 4.171875 -5.125 Z M 2.25 -1.359375 C 2.53125 -1.367188 2.710938 -1.515625 2.796875 -1.796875 C 2.878906 -2.085938 2.90625 -2.398438 2.875 -2.734375 C 2.851562 -3.078125 2.832031 -3.332031 2.8125 -3.5 C 2.78125 -3.601562 2.71875 -3.664062 2.625 -3.6875 C 2.53125 -3.71875 2.441406 -3.71875 2.359375 -3.6875 C 2.046875 -3.4375 1.816406 -3.125 1.671875 -2.75 C 1.523438 -2.375 1.535156 -2.046875 1.703125 -1.765625 C 1.765625 -1.660156 1.84375 -1.566406 1.9375 -1.484375 C 2.03125 -1.410156 2.132812 -1.367188 2.25 -1.359375 Z M 2.25 -1.359375 "/></g></g></g><g fill="#ffffff" fill-opacity="1"><g transform="translate(122.054015, 270.738748)"><g><path d="M 29.375 -30.546875 C 31.382812 -29.304688 31.222656 -27.84375 28.890625 -26.15625 C 26.566406 -24.5 18.65625 -21.101562 5.15625 -15.96875 C 5.03125 -15.925781 4.9375 -15.863281 4.875 -15.78125 C 4.820312 -15.695312 4.828125 -15.644531 4.890625 -15.625 C 4.960938 -15.613281 5.046875 -15.609375 5.140625 -15.609375 C 5.148438 -15.609375 5.15625 -15.609375 5.15625 -15.609375 C 5.632812 -15.617188 6.109375 -15.648438 6.578125 -15.703125 C 7.078125 -15.742188 7.582031 -15.785156 8.09375 -15.828125 C 8.9375 -15.898438 9.796875 -15.96875 10.671875 -16.03125 C 12.953125 -16.207031 15.210938 -16.066406 17.453125 -15.609375 C 18.765625 -15.359375 20 -14.882812 21.15625 -14.1875 C 23.101562 -12.976562 24.207031 -11.238281 24.46875 -8.96875 C 24.625 -7.320312 24.476562 -5.703125 24.03125 -4.109375 C 23.414062 -1.816406 22.523438 0.347656 21.359375 2.390625 C 20.265625 4.378906 19.054688 6.285156 17.734375 8.109375 C 16.421875 9.929688 14.976562 11.644531 13.40625 13.25 C 12.820312 13.84375 12.210938 14.390625 11.578125 14.890625 C 10.953125 15.398438 10.257812 15.820312 9.5 16.15625 C 9.070312 16.351562 8.628906 16.515625 8.171875 16.640625 C 6.640625 17.023438 5.382812 16.597656 4.40625 15.359375 C 3.945312 14.742188 3.585938 14.066406 3.328125 13.328125 C 2.835938 11.929688 2.507812 10.515625 2.34375 9.078125 C 1.914062 5.753906 1.738281 2.9375 1.8125 0.625 C 1.988281 -4.75 2.4375 -9.570312 3.15625 -13.84375 C 3.207031 -14.0625 3.210938 -14.242188 3.171875 -14.390625 C 3.128906 -14.535156 3.003906 -14.671875 2.796875 -14.796875 C 2.617188 -14.890625 2.523438 -15.015625 2.515625 -15.171875 C 2.503906 -15.328125 2.570312 -15.488281 2.71875 -15.65625 C 2.71875 -15.675781 2.726562 -15.6875 2.75 -15.6875 C 2.757812 -15.707031 2.78125 -15.722656 2.8125 -15.734375 C 3.175781 -15.929688 3.425781 -16.1875 3.5625 -16.5 C 3.695312 -16.820312 3.796875 -17.171875 3.859375 -17.546875 C 3.878906 -17.628906 3.898438 -17.707031 3.921875 -17.78125 C 4.390625 -20.0625 4.945312 -22.304688 5.59375 -24.515625 C 5.664062 -24.816406 5.765625 -25.101562 5.890625 -25.375 C 5.992188 -25.570312 6.15625 -25.691406 6.375 -25.734375 C 6.5 -25.765625 6.609375 -25.742188 6.703125 -25.671875 C 6.796875 -25.609375 6.832031 -25.523438 6.8125 -25.421875 C 6.757812 -25.203125 6.703125 -24.988281 6.640625 -24.78125 C 6.609375 -24.707031 6.585938 -24.628906 6.578125 -24.546875 C 5.960938 -22.285156 5.429688 -19.992188 4.984375 -17.671875 C 4.910156 -17.253906 5.078125 -17.128906 5.484375 -17.296875 C 7.828125 -18.285156 10.171875 -19.242188 12.515625 -20.171875 C 14.492188 -20.972656 16.457031 -21.78125 18.40625 -22.59375 C 20.351562 -23.40625 22.296875 -24.253906 24.234375 -25.140625 C 25.316406 -25.648438 26.375 -26.203125 27.40625 -26.796875 C 27.9375 -27.109375 28.421875 -27.460938 28.859375 -27.859375 C 29.515625 -28.460938 29.457031 -29.019531 28.6875 -29.53125 C 28.320312 -29.75 27.929688 -29.929688 27.515625 -30.078125 C 26.460938 -30.453125 25.378906 -30.6875 24.265625 -30.78125 C 21.890625 -31.0625 19.492188 -31.097656 17.078125 -30.890625 C 11.765625 -30.441406 6.570312 -29.390625 1.5 -27.734375 C -0.300781 -27.171875 -2.039062 -26.457031 -3.71875 -25.59375 C -3.851562 -25.539062 -3.976562 -25.476562 -4.09375 -25.40625 C -4.550781 -25.1875 -5 -24.945312 -5.4375 -24.6875 C -5.875 -24.425781 -6.273438 -24.117188 -6.640625 -23.765625 C -6.773438 -23.640625 -6.929688 -23.5625 -7.109375 -23.53125 C -7.285156 -23.46875 -7.429688 -23.515625 -7.546875 -23.671875 C -7.597656 -23.734375 -7.609375 -23.789062 -7.578125 -23.84375 C -7.554688 -23.90625 -7.53125 -23.96875 -7.5 -24.03125 C -7.3125 -24.25 -7.109375 -24.441406 -6.890625 -24.609375 C -6.671875 -24.773438 -6.441406 -24.921875 -6.203125 -25.046875 C -4.660156 -25.992188 -3.050781 -26.804688 -1.375 -27.484375 C 1.769531 -28.722656 5.054688 -29.742188 8.484375 -30.546875 C 11.921875 -31.359375 15.023438 -31.84375 17.796875 -32 C 20.566406 -32.15625 23.414062 -32.007812 26.34375 -31.5625 C 27.632812 -31.300781 28.644531 -30.960938 29.375 -30.546875 Z M 5.203125 -14.328125 C 4.878906 -14.296875 4.703125 -14.113281 4.671875 -13.78125 C 4.628906 -13.363281 4.566406 -12.941406 4.484375 -12.515625 C 4.390625 -11.785156 4.296875 -11.050781 4.203125 -10.3125 C 4.046875 -8.570312 3.910156 -6.859375 3.796875 -5.171875 C 3.691406 -3.492188 3.644531 -1.882812 3.65625 -0.34375 C 3.625 1.320312 3.648438 2.914062 3.734375 4.4375 C 3.816406 5.957031 3.96875 7.445312 4.1875 8.90625 C 4.363281 10.15625 4.664062 11.363281 5.09375 12.53125 C 5.3125 13.15625 5.628906 13.726562 6.046875 14.25 C 6.859375 15.238281 7.84375 15.484375 9 14.984375 C 9.632812 14.703125 10.21875 14.328125 10.75 13.859375 C 11.363281 13.328125 11.953125 12.753906 12.515625 12.140625 C 15.660156 8.734375 18.242188 4.914062 20.265625 0.6875 C 21.066406 -0.90625 21.671875 -2.578125 22.078125 -4.328125 C 22.367188 -5.472656 22.488281 -6.628906 22.4375 -7.796875 C 22.363281 -9.148438 22.019531 -10.3125 21.40625 -11.28125 C 20.800781 -12.25 19.890625 -13.019531 18.671875 -13.59375 C 17.585938 -14.0625 16.457031 -14.390625 15.28125 -14.578125 C 13.769531 -14.796875 12.265625 -14.867188 10.765625 -14.796875 C 9.273438 -14.722656 7.785156 -14.601562 6.296875 -14.4375 C 5.921875 -14.40625 5.554688 -14.367188 5.203125 -14.328125 Z M 5.203125 -14.328125 "/></g></g></g><g fill="#ffffff" fill-opacity="1"><g transform="translate(147.976255, 270.738748)"><g><path d="M 5.765625 -6.65625 C 6.066406 -6.6875 6.28125 -6.628906 6.40625 -6.484375 C 6.507812 -6.328125 6.550781 -5.765625 6.53125 -4.796875 C 6.519531 -3.835938 6.472656 -2.722656 6.390625 -1.453125 C 6.316406 -0.179688 6.226562 0.992188 6.125 2.078125 C 6.019531 3.160156 5.9375 3.914062 5.875 4.34375 C 5.445312 6.8125 4.675781 8.875 3.5625 10.53125 C 2.457031 12.1875 1.195312 13.460938 -0.21875 14.359375 C -1.644531 15.265625 -3.050781 15.8125 -4.4375 16 C -5.820312 16.195312 -7 16.066406 -7.96875 15.609375 C -8.9375 15.148438 -9.507812 14.382812 -9.6875 13.3125 C -9.875 12.238281 -9.488281 10.890625 -8.53125 9.265625 C -7.570312 7.640625 -5.859375 5.765625 -3.390625 3.640625 C -2.410156 2.828125 -1.054688 1.84375 0.671875 0.6875 C 2.410156 -0.457031 3.785156 -1.238281 4.796875 -1.65625 C 4.816406 -1.84375 4.835938 -2.050781 4.859375 -2.28125 C 4.441406 -1.800781 4.015625 -1.523438 3.578125 -1.453125 C 3.140625 -1.378906 2.734375 -1.375 2.359375 -1.4375 C 2.335938 -1.4375 2.320312 -1.4375 2.3125 -1.4375 C 1.644531 -1.519531 1.125 -1.820312 0.75 -2.34375 C 0.375 -2.875 0.132812 -3.472656 0.03125 -4.140625 C -0.0703125 -4.816406 -0.046875 -5.421875 0.109375 -5.953125 C 0.273438 -6.484375 0.578125 -6.800781 1.015625 -6.90625 C 1.203125 -6.9375 1.40625 -6.953125 1.625 -6.953125 C 1.84375 -6.960938 2.023438 -6.9375 2.171875 -6.875 C 2.316406 -6.820312 2.375 -6.707031 2.34375 -6.53125 C 2.195312 -6 2.113281 -5.410156 2.09375 -4.765625 C 2.070312 -4.128906 2.125 -3.566406 2.25 -3.078125 C 2.382812 -2.597656 2.617188 -2.335938 2.953125 -2.296875 C 3.296875 -2.265625 3.757812 -2.582031 4.34375 -3.25 C 4.613281 -3.582031 4.796875 -3.941406 4.890625 -4.328125 C 4.890625 -4.742188 4.882812 -5.140625 4.875 -5.515625 C 4.863281 -5.847656 4.859375 -6.132812 4.859375 -6.375 C 4.929688 -6.488281 5.050781 -6.5625 5.21875 -6.59375 C 5.382812 -6.632812 5.535156 -6.65625 5.671875 -6.65625 C 5.703125 -6.65625 5.734375 -6.65625 5.765625 -6.65625 Z M 4.765625 0.125 C 4.765625 0.101562 4.765625 0.0859375 4.765625 0.078125 C 4.773438 -0.015625 4.78125 -0.128906 4.78125 -0.265625 C 4.789062 -0.410156 4.78125 -0.519531 4.75 -0.59375 C 4.726562 -0.675781 4.671875 -0.691406 4.578125 -0.640625 C 4.484375 -0.566406 4.367188 -0.484375 4.234375 -0.390625 C 3.378906 0.179688 2.257812 0.984375 0.875 2.015625 C -0.507812 3.054688 -1.894531 4.226562 -3.28125 5.53125 C -3.5625 5.789062 -3.957031 6.179688 -4.46875 6.703125 C -4.976562 7.234375 -5.507812 7.832031 -6.0625 8.5 C -6.625 9.175781 -7.113281 9.867188 -7.53125 10.578125 C -7.957031 11.296875 -8.222656 11.972656 -8.328125 12.609375 C -8.429688 13.242188 -8.289062 13.789062 -7.90625 14.25 C -7.382812 14.800781 -6.632812 15.039062 -5.65625 14.96875 C -4.675781 14.894531 -3.601562 14.523438 -2.4375 13.859375 C -1.269531 13.191406 -0.148438 12.234375 0.921875 10.984375 C 2.003906 9.734375 2.898438 8.203125 3.609375 6.390625 C 4.316406 4.578125 4.703125 2.488281 4.765625 0.125 Z M 4.765625 0.125 "/></g></g></g><g fill="#ffffff" fill-opacity="1"><g transform="translate(156.10339, 270.738748)"><g/></g></g><g fill="#ffffff" fill-opacity="1"><g transform="translate(161.219357, 270.738748)"><g><path d="M 28.53125 -6.109375 C 28.601562 -6.078125 28.664062 -6.039062 28.71875 -6 C 28.769531 -5.957031 28.785156 -5.898438 28.765625 -5.828125 C 28.742188 -5.742188 28.703125 -5.664062 28.640625 -5.59375 C 28.628906 -5.582031 28.613281 -5.5625 28.59375 -5.53125 C 28.582031 -5.519531 28.566406 -5.507812 28.546875 -5.5 C 28.523438 -5.488281 28.503906 -5.484375 28.484375 -5.484375 C 28.015625 -5.503906 27.71875 -5.378906 27.59375 -5.109375 C 27.46875 -4.847656 27.394531 -4.507812 27.375 -4.09375 C 27.25 -1.195312 27.097656 1.691406 26.921875 4.578125 C 26.890625 5.210938 26.851562 5.851562 26.8125 6.5 C 26.789062 6.84375 26.742188 7.175781 26.671875 7.5 C 26.597656 7.757812 26.414062 7.898438 26.125 7.921875 C 26.0625 7.921875 26 7.910156 25.9375 7.890625 C 25.882812 7.867188 25.835938 7.816406 25.796875 7.734375 C 25.546875 7.234375 25.53125 4.925781 25.75 0.8125 C 25.9375 -2.820312 25.820312 -4.769531 25.40625 -5.03125 C 25.125 -5.21875 24.441406 -5.273438 23.359375 -5.203125 L 5.046875 -3.890625 C 4.941406 -3.890625 4.832031 -3.890625 4.71875 -3.890625 C 4.695312 -3.890625 4.679688 -3.890625 4.671875 -3.890625 C 4.285156 -3.910156 3.707031 -2.40625 2.9375 0.625 C 2.175781 3.65625 1.671875 5.859375 1.421875 7.234375 C 1.179688 8.609375 0.800781 9.382812 0.28125 9.5625 C 0.207031 9.582031 0.132812 9.597656 0.0625 9.609375 C -0.0078125 9.628906 -0.09375 9.625 -0.1875 9.59375 C -0.28125 9.550781 -0.34375 9.488281 -0.375 9.40625 C -0.414062 9.332031 -0.4375 9.257812 -0.4375 9.1875 C -0.4375 9.132812 -0.4375 9.085938 -0.4375 9.046875 C -0.425781 8.578125 -0.378906 8.113281 -0.296875 7.65625 C 0.304688 4.34375 1.144531 1.113281 2.21875 -2.03125 C 2.257812 -2.132812 2.300781 -2.242188 2.34375 -2.359375 C 2.4375 -2.640625 2.519531 -2.921875 2.59375 -3.203125 C 2.675781 -3.535156 2.546875 -3.691406 2.203125 -3.671875 C 1.515625 -3.640625 0.835938 -3.597656 0.171875 -3.546875 C 0.128906 -3.535156 0.0859375 -3.53125 0.046875 -3.53125 C -0.460938 -3.488281 -0.972656 -3.445312 -1.484375 -3.40625 C -2.453125 -3.332031 -3.414062 -3.265625 -4.375 -3.203125 C -4.382812 -3.203125 -4.394531 -3.203125 -4.40625 -3.203125 C -4.988281 -3.128906 -5.570312 -3.148438 -6.15625 -3.265625 C -6.21875 -3.285156 -6.273438 -3.3125 -6.328125 -3.34375 C -6.390625 -3.382812 -6.421875 -3.441406 -6.421875 -3.515625 C -6.410156 -3.648438 -6.363281 -3.753906 -6.28125 -3.828125 C -6.1875 -3.898438 -6.085938 -3.945312 -5.984375 -3.96875 C -5.878906 -3.988281 -5.773438 -4 -5.671875 -4 C -5.628906 -4 -5.59375 -4 -5.5625 -4 C -4.675781 -4.070312 -3.78125 -4.140625 -2.875 -4.203125 C -1.207031 -4.335938 0.460938 -4.453125 2.140625 -4.546875 C 2.816406 -4.585938 3.269531 -4.914062 3.5 -5.53125 C 5.382812 -10.707031 7.601562 -15.71875 10.15625 -20.5625 C 10.988281 -22.144531 11.882812 -23.695312 12.84375 -25.21875 C 13.8125 -26.75 14.84375 -28.207031 15.9375 -29.59375 C 16.90625 -30.820312 17.972656 -31.945312 19.140625 -32.96875 C 19.785156 -33.519531 20.515625 -33.960938 21.328125 -34.296875 C 21.742188 -34.460938 22.1875 -34.554688 22.65625 -34.578125 C 23.519531 -34.597656 24.253906 -34.253906 24.859375 -33.546875 C 25.367188 -32.953125 25.757812 -32.296875 26.03125 -31.578125 C 26.53125 -30.234375 26.878906 -28.867188 27.078125 -27.484375 C 27.378906 -25.335938 27.5625 -23.1875 27.625 -21.03125 C 27.6875 -18.800781 27.703125 -16.570312 27.671875 -14.34375 C 27.648438 -12.113281 27.617188 -9.894531 27.578125 -7.6875 C 27.578125 -7.632812 27.578125 -7.585938 27.578125 -7.546875 C 27.566406 -7.441406 27.554688 -7.335938 27.546875 -7.234375 C 27.523438 -6.910156 27.546875 -6.597656 27.609375 -6.296875 C 27.703125 -6.222656 27.796875 -6.179688 27.890625 -6.171875 C 27.992188 -6.160156 28.085938 -6.15625 28.171875 -6.15625 C 28.296875 -6.164062 28.414062 -6.148438 28.53125 -6.109375 Z M 25.921875 -9.671875 C 25.929688 -10.066406 25.9375 -10.460938 25.9375 -10.859375 C 25.9375 -12.890625 25.925781 -14.921875 25.90625 -16.953125 C 25.882812 -18.984375 25.816406 -21.015625 25.703125 -23.046875 C 25.597656 -25.015625 25.359375 -26.984375 24.984375 -28.953125 C 24.804688 -29.878906 24.53125 -30.789062 24.15625 -31.6875 C 23.945312 -32.175781 23.660156 -32.617188 23.296875 -33.015625 C 22.796875 -33.554688 22.234375 -33.710938 21.609375 -33.484375 C 21.085938 -33.296875 20.625 -33.019531 20.21875 -32.65625 C 19.457031 -31.988281 18.742188 -31.253906 18.078125 -30.453125 C 17.066406 -29.253906 16.132812 -28 15.28125 -26.6875 C 14.425781 -25.375 13.625 -24.015625 12.875 -22.609375 C 11.457031 -19.972656 10.140625 -17.269531 8.921875 -14.5 C 7.703125 -11.726562 6.566406 -8.910156 5.515625 -6.046875 C 5.492188 -5.992188 5.472656 -5.945312 5.453125 -5.90625 C 5.398438 -5.789062 5.363281 -5.632812 5.34375 -5.4375 C 5.320312 -5.25 5.441406 -5.160156 5.703125 -5.171875 C 17.640625 -5.847656 24.140625 -6.210938 25.203125 -6.265625 C 25.503906 -6.273438 25.695312 -6.320312 25.78125 -6.40625 C 25.875 -6.5 25.925781 -6.703125 25.9375 -7.015625 C 25.9375 -7.734375 25.929688 -8.457031 25.921875 -9.1875 C 25.921875 -9.34375 25.921875 -9.503906 25.921875 -9.671875 Z M 25.921875 -9.671875 "/></g></g></g><g fill="#ffffff" fill-opacity="1"><g transform="translate(190.757014, 270.738748)"><g><path d="M 12.28125 -3.75 C 12.28125 -3.75 12.285156 -3.757812 12.296875 -3.78125 C 12.359375 -3.84375 12.503906 -3.972656 12.734375 -4.171875 C 12.960938 -4.378906 13.195312 -4.578125 13.4375 -4.765625 C 13.6875 -4.953125 13.867188 -5.046875 13.984375 -5.046875 C 14.097656 -5.054688 14.066406 -4.890625 13.890625 -4.546875 C 13.878906 -4.503906 13.847656 -4.453125 13.796875 -4.390625 C 13.742188 -4.335938 13.691406 -4.273438 13.640625 -4.203125 C 13.628906 -4.179688 13.617188 -4.164062 13.609375 -4.15625 C 12.554688 -3.0625 11.738281 -2.296875 11.15625 -1.859375 C 10.570312 -1.421875 10 -1.226562 9.4375 -1.28125 C 8.84375 -1.34375 8.441406 -1.613281 8.234375 -2.09375 C 8.035156 -2.582031 7.945312 -3.179688 7.96875 -3.890625 C 8 -4.609375 8.0625 -5.332031 8.15625 -6.0625 C 8.257812 -6.820312 8.3125 -7.46875 8.3125 -8 C 8.3125 -8.539062 8.160156 -8.847656 7.859375 -8.921875 C 7.628906 -8.929688 7.375 -8.660156 7.09375 -8.109375 C 6.820312 -7.566406 6.554688 -6.921875 6.296875 -6.171875 C 6.035156 -5.421875 5.820312 -4.742188 5.65625 -4.140625 C 5.488281 -3.640625 5.375 -3.304688 5.3125 -3.140625 C 5.21875 -2.898438 5.050781 -2.75 4.8125 -2.6875 C 4.582031 -2.625 4.351562 -2.640625 4.125 -2.734375 C 3.957031 -2.804688 3.867188 -2.925781 3.859375 -3.09375 C 3.804688 -3.445312 3.789062 -3.816406 3.8125 -4.203125 C 3.8125 -4.453125 3.800781 -4.695312 3.78125 -4.9375 C 3.78125 -5 3.78125 -5.070312 3.78125 -5.15625 C 3.800781 -5.269531 3.804688 -5.382812 3.796875 -5.5 C 3.785156 -5.625 3.769531 -5.726562 3.75 -5.8125 C 3.726562 -5.90625 3.691406 -5.957031 3.640625 -5.96875 C 3.515625 -5.96875 3.367188 -5.828125 3.203125 -5.546875 C 3.035156 -5.273438 2.863281 -4.9375 2.6875 -4.53125 C 2.519531 -4.125 2.367188 -3.753906 2.234375 -3.421875 C 2.128906 -3.140625 2.054688 -2.945312 2.015625 -2.84375 C 1.984375 -2.800781 1.960938 -2.765625 1.953125 -2.734375 C 1.816406 -2.453125 1.675781 -2.179688 1.53125 -1.921875 C 1.40625 -1.703125 1.222656 -1.566406 0.984375 -1.515625 C 0.410156 -1.441406 0.109375 -1.664062 0.078125 -2.1875 C 0.0351562 -3.507812 0.00390625 -4.84375 -0.015625 -6.1875 C -0.00390625 -6.445312 0.101562 -6.613281 0.3125 -6.6875 C 0.519531 -6.757812 0.734375 -6.757812 0.953125 -6.6875 C 1.179688 -6.613281 1.304688 -6.476562 1.328125 -6.28125 C 1.335938 -6.195312 1.34375 -6.097656 1.34375 -5.984375 C 1.40625 -5.421875 1.476562 -5.140625 1.5625 -5.140625 C 1.644531 -5.140625 1.832031 -5.382812 2.125 -5.875 C 2.269531 -6.132812 2.425781 -6.390625 2.59375 -6.640625 C 2.78125 -6.984375 3.03125 -7.273438 3.34375 -7.515625 C 3.6875 -7.742188 4.007812 -7.8125 4.3125 -7.71875 C 4.625 -7.632812 4.875 -7.410156 5.0625 -7.046875 C 5.175781 -6.804688 5.273438 -6.707031 5.359375 -6.75 C 5.359375 -6.75 5.367188 -6.753906 5.390625 -6.765625 C 5.410156 -6.859375 5.523438 -7.117188 5.734375 -7.546875 C 5.941406 -7.972656 6.21875 -8.441406 6.5625 -8.953125 C 6.914062 -9.460938 7.304688 -9.878906 7.734375 -10.203125 C 8.023438 -10.410156 8.335938 -10.523438 8.671875 -10.546875 C 9.015625 -10.566406 9.316406 -10.472656 9.578125 -10.265625 C 9.835938 -10.054688 9.992188 -9.695312 10.046875 -9.1875 C 10.066406 -8.769531 10.035156 -8.179688 9.953125 -7.421875 C 9.878906 -6.671875 9.785156 -5.9375 9.671875 -5.21875 C 9.585938 -4.539062 9.53125 -4.015625 9.5 -3.640625 C 9.46875 -2.878906 9.597656 -2.460938 9.890625 -2.390625 C 10.191406 -2.328125 10.5625 -2.445312 11 -2.75 C 11.445312 -3.050781 11.875 -3.382812 12.28125 -3.75 Z M 12.28125 -3.75 "/></g></g></g><g fill="#ffffff" fill-opacity="1"><g transform="translate(203.808771, 270.738748)"><g><path d="M 14.890625 -5.828125 C 15.003906 -5.984375 15.128906 -6.097656 15.265625 -6.171875 C 15.398438 -6.242188 15.476562 -6.242188 15.5 -6.171875 C 15.53125 -6.097656 15.457031 -5.921875 15.28125 -5.640625 C 14.882812 -5.046875 14.300781 -4.484375 13.53125 -3.953125 C 12.769531 -3.421875 11.921875 -2.96875 10.984375 -2.59375 C 10.054688 -2.21875 9.148438 -1.96875 8.265625 -1.84375 C 7.378906 -1.726562 6.628906 -1.789062 6.015625 -2.03125 C 5.398438 -2.269531 5.019531 -2.734375 4.875 -3.421875 C 4.351562 -2.585938 3.738281 -1.929688 3.03125 -1.453125 C 2.320312 -0.984375 1.648438 -0.785156 1.015625 -0.859375 C 0.285156 -0.953125 -0.195312 -1.222656 -0.4375 -1.671875 C -0.675781 -2.117188 -0.753906 -2.628906 -0.671875 -3.203125 C -0.585938 -3.773438 -0.414062 -4.320312 -0.15625 -4.84375 C 0.0507812 -5.238281 0.335938 -5.609375 0.703125 -5.953125 C 1.078125 -6.296875 1.460938 -6.5625 1.859375 -6.75 C 2.367188 -7 2.875 -7.113281 3.375 -7.09375 C 3.882812 -7.070312 4.425781 -6.90625 5 -6.59375 C 5 -6.59375 5.007812 -6.609375 5.03125 -6.640625 C 5.03125 -6.703125 5.039062 -6.769531 5.0625 -6.84375 C 5.082031 -6.925781 5.128906 -7 5.203125 -7.0625 C 5.304688 -7.132812 5.4375 -7.191406 5.59375 -7.234375 C 5.75 -7.273438 5.898438 -7.285156 6.046875 -7.265625 C 6.285156 -7.210938 6.429688 -7.085938 6.484375 -6.890625 C 6.546875 -6.703125 6.554688 -6.492188 6.515625 -6.265625 C 6.484375 -6.046875 6.445312 -5.851562 6.40625 -5.6875 C 6.394531 -5.65625 6.390625 -5.625 6.390625 -5.59375 C 6.140625 -4.625 6.222656 -3.941406 6.640625 -3.546875 C 7.054688 -3.148438 7.660156 -2.96875 8.453125 -3 C 9.242188 -3.03125 10.082031 -3.195312 10.96875 -3.5 C 11.851562 -3.800781 12.65625 -4.160156 13.375 -4.578125 C 14.101562 -5.003906 14.609375 -5.421875 14.890625 -5.828125 Z M 1.3125 -2.171875 C 1.613281 -1.960938 1.941406 -1.984375 2.296875 -2.234375 C 2.660156 -2.484375 3.007812 -2.84375 3.34375 -3.3125 C 3.6875 -3.789062 3.96875 -4.265625 4.1875 -4.734375 C 4.40625 -5.203125 4.53125 -5.554688 4.5625 -5.796875 C 3.851562 -6.179688 3.25 -6.25 2.75 -6 C 2.25 -5.757812 1.851562 -5.367188 1.5625 -4.828125 C 1.28125 -4.296875 1.117188 -3.765625 1.078125 -3.234375 C 1.035156 -2.710938 1.113281 -2.359375 1.3125 -2.171875 Z M 1.3125 -2.171875 "/></g></g></g><g fill="#ffffff" fill-opacity="1"><g transform="translate(218.210015, 270.738748)"><g><path d="M 14.84375 -6.109375 C 15.132812 -6.234375 15.304688 -6.253906 15.359375 -6.171875 C 15.410156 -5.992188 15.25 -5.675781 14.875 -5.21875 C 14.507812 -4.769531 14.015625 -4.3125 13.390625 -3.84375 C 11.859375 -2.78125 10.570312 -2.144531 9.53125 -1.9375 C 8.488281 -1.726562 7.640625 -1.796875 6.984375 -2.140625 C 6.328125 -2.484375 5.835938 -2.945312 5.515625 -3.53125 C 5.128906 -4.195312 4.890625 -4.859375 4.796875 -5.515625 C 4.671875 -6.222656 4.5 -6.625 4.28125 -6.71875 C 4.0625 -6.8125 3.820312 -6.707031 3.5625 -6.40625 C 3.3125 -6.113281 3.066406 -5.726562 2.828125 -5.25 C 2.597656 -4.769531 2.40625 -4.300781 2.25 -3.84375 C 2.09375 -3.382812 2.007812 -3.039062 2 -2.8125 C 1.945312 -2.675781 1.898438 -2.546875 1.859375 -2.421875 C 1.796875 -2.234375 1.726562 -2.050781 1.65625 -1.875 C 1.46875 -1.375 1.128906 -1.1875 0.640625 -1.3125 C 0.367188 -1.363281 0.21875 -1.53125 0.1875 -1.8125 C 0.164062 -2 0.15625 -2.195312 0.15625 -2.40625 C 0.15625 -2.570312 0.144531 -2.742188 0.125 -2.921875 C 0.101562 -4.128906 0.078125 -5.347656 0.046875 -6.578125 C 0.046875 -6.722656 0.113281 -6.820312 0.25 -6.875 C 0.394531 -6.9375 0.554688 -6.960938 0.734375 -6.953125 C 0.921875 -6.953125 1.082031 -6.925781 1.21875 -6.875 C 1.363281 -6.820312 1.441406 -6.75 1.453125 -6.65625 C 1.492188 -6.457031 1.515625 -6.285156 1.515625 -6.140625 C 1.515625 -5.929688 1.523438 -5.78125 1.546875 -5.6875 C 1.578125 -5.59375 1.640625 -5.59375 1.734375 -5.6875 C 1.835938 -5.789062 2.003906 -5.992188 2.234375 -6.296875 C 2.609375 -6.890625 3.078125 -7.394531 3.640625 -7.8125 C 3.890625 -8 4.179688 -8.132812 4.515625 -8.21875 C 4.859375 -8.300781 5.1875 -8.316406 5.5 -8.265625 C 5.832031 -8.171875 6.09375 -7.972656 6.28125 -7.671875 C 6.476562 -7.378906 6.625 -7.046875 6.71875 -6.671875 C 6.820312 -6.296875 6.894531 -5.945312 6.9375 -5.625 C 6.945312 -5.53125 6.960938 -5.453125 6.984375 -5.390625 C 7.054688 -4.960938 7.15625 -4.570312 7.28125 -4.21875 C 7.40625 -3.875 7.609375 -3.597656 7.890625 -3.390625 C 8.171875 -3.191406 8.582031 -3.113281 9.125 -3.15625 C 10.300781 -3.25 11.238281 -3.5 11.9375 -3.90625 C 12.632812 -4.3125 13.222656 -4.742188 13.703125 -5.203125 C 13.773438 -5.253906 13.835938 -5.3125 13.890625 -5.375 C 13.992188 -5.445312 14.082031 -5.519531 14.15625 -5.59375 C 14.332031 -5.78125 14.5625 -5.953125 14.84375 -6.109375 Z M 14.84375 -6.109375 "/></g></g></g><g fill="#ffffff" fill-opacity="1"><g transform="translate(232.228569, 270.738748)"><g><path d="M 14.359375 -20.75 C 14.617188 -18.632812 14.570312 -16.660156 14.21875 -14.828125 C 13.875 -12.992188 13.242188 -11.257812 12.328125 -9.625 C 11.421875 -8 10.269531 -6.421875 8.875 -4.890625 C 8.75 -4.753906 8.6875 -4.640625 8.6875 -4.546875 C 8.6875 -4.453125 8.75 -4.328125 8.875 -4.171875 C 9.164062 -3.796875 9.472656 -3.429688 9.796875 -3.078125 C 10.117188 -2.734375 10.492188 -2.441406 10.921875 -2.203125 C 11.242188 -1.847656 11.296875 -1.609375 11.078125 -1.484375 C 10.859375 -1.367188 10.445312 -1.441406 9.84375 -1.703125 C 9.25 -1.960938 8.5625 -2.503906 7.78125 -3.328125 C 7.625 -3.515625 7.453125 -3.539062 7.265625 -3.40625 C 7.054688 -3.257812 6.847656 -3.117188 6.640625 -2.984375 C 6.453125 -2.847656 6.269531 -2.71875 6.09375 -2.59375 C 5.476562 -2.15625 4.8125 -1.789062 4.09375 -1.5 C 3.351562 -1.164062 2.578125 -1.039062 1.765625 -1.125 C 0.515625 -1.269531 -0.128906 -1.96875 -0.171875 -3.21875 C -0.203125 -4.101562 -0.0234375 -4.894531 0.359375 -5.59375 C 0.753906 -6.300781 1.300781 -6.820312 2 -7.15625 C 2.707031 -7.488281 3.519531 -7.554688 4.4375 -7.359375 C 4.550781 -7.335938 4.691406 -7.304688 4.859375 -7.265625 C 4.953125 -7.242188 5.078125 -7.210938 5.234375 -7.171875 C 5.128906 -7.378906 5.039062 -7.5625 4.96875 -7.71875 C 4.84375 -8 4.726562 -8.242188 4.625 -8.453125 C 4.019531 -9.710938 3.523438 -11.15625 3.140625 -12.78125 C 2.753906 -14.40625 2.5625 -16.0625 2.5625 -17.75 C 2.5625 -19.4375 2.847656 -21.007812 3.421875 -22.46875 C 3.992188 -23.9375 4.925781 -25.144531 6.21875 -26.09375 C 7.03125 -26.644531 7.878906 -26.945312 8.765625 -27 C 9.648438 -27.050781 10.476562 -26.859375 11.25 -26.421875 C 12.03125 -25.992188 12.675781 -25.351562 13.1875 -24.5 C 13.820312 -23.332031 14.210938 -22.082031 14.359375 -20.75 Z M 5.9375 -4.03125 C 6.125 -4.175781 6.144531 -4.347656 6 -4.546875 C 5.914062 -4.640625 5.820312 -4.742188 5.71875 -4.859375 C 5.488281 -5.160156 5.21875 -5.46875 4.90625 -5.78125 C 4.601562 -6.09375 4.28125 -6.332031 3.9375 -6.5 C 3.601562 -6.664062 3.269531 -6.675781 2.9375 -6.53125 C 2.46875 -6.300781 2.082031 -5.90625 1.78125 -5.34375 C 1.476562 -4.789062 1.296875 -4.21875 1.234375 -3.625 C 1.179688 -3.03125 1.296875 -2.578125 1.578125 -2.265625 C 1.859375 -1.960938 2.347656 -1.941406 3.046875 -2.203125 C 4.085938 -2.660156 5.050781 -3.269531 5.9375 -4.03125 Z M 8.171875 -6.25 C 9.609375 -7.894531 10.671875 -9.523438 11.359375 -11.140625 C 12.054688 -12.765625 12.539062 -14.660156 12.8125 -16.828125 C 12.875 -17.359375 12.90625 -18.054688 12.90625 -18.921875 C 12.90625 -19.785156 12.820312 -20.679688 12.65625 -21.609375 C 12.5 -22.546875 12.226562 -23.394531 11.84375 -24.15625 C 11.46875 -24.925781 10.9375 -25.476562 10.25 -25.8125 C 9.5625 -26.15625 8.6875 -26.160156 7.625 -25.828125 C 6.425781 -25.140625 5.546875 -24.21875 4.984375 -23.0625 C 4.429688 -21.914062 4.109375 -20.640625 4.015625 -19.234375 C 3.929688 -17.835938 4.023438 -16.40625 4.296875 -14.9375 C 4.566406 -13.476562 4.9375 -12.09375 5.40625 -10.78125 C 5.875 -9.46875 6.378906 -8.328125 6.921875 -7.359375 C 6.992188 -7.234375 7.054688 -7.109375 7.109375 -6.984375 C 7.273438 -6.609375 7.515625 -6.257812 7.828125 -5.9375 C 7.867188 -5.957031 7.910156 -5.984375 7.953125 -6.015625 C 8.046875 -6.078125 8.117188 -6.15625 8.171875 -6.25 Z M 8.171875 -6.25 "/></g></g></g><g fill="#ffffff" fill-opacity="1"><g transform="translate(244.565299, 270.738748)"><g><path d="M 14.890625 -5.828125 C 15.003906 -5.984375 15.128906 -6.097656 15.265625 -6.171875 C 15.398438 -6.242188 15.476562 -6.242188 15.5 -6.171875 C 15.53125 -6.097656 15.457031 -5.921875 15.28125 -5.640625 C 14.882812 -5.046875 14.300781 -4.484375 13.53125 -3.953125 C 12.769531 -3.421875 11.921875 -2.96875 10.984375 -2.59375 C 10.054688 -2.21875 9.148438 -1.96875 8.265625 -1.84375 C 7.378906 -1.726562 6.628906 -1.789062 6.015625 -2.03125 C 5.398438 -2.269531 5.019531 -2.734375 4.875 -3.421875 C 4.351562 -2.585938 3.738281 -1.929688 3.03125 -1.453125 C 2.320312 -0.984375 1.648438 -0.785156 1.015625 -0.859375 C 0.285156 -0.953125 -0.195312 -1.222656 -0.4375 -1.671875 C -0.675781 -2.117188 -0.753906 -2.628906 -0.671875 -3.203125 C -0.585938 -3.773438 -0.414062 -4.320312 -0.15625 -4.84375 C 0.0507812 -5.238281 0.335938 -5.609375 0.703125 -5.953125 C 1.078125 -6.296875 1.460938 -6.5625 1.859375 -6.75 C 2.367188 -7 2.875 -7.113281 3.375 -7.09375 C 3.882812 -7.070312 4.425781 -6.90625 5 -6.59375 C 5 -6.59375 5.007812 -6.609375 5.03125 -6.640625 C 5.03125 -6.703125 5.039062 -6.769531 5.0625 -6.84375 C 5.082031 -6.925781 5.128906 -7 5.203125 -7.0625 C 5.304688 -7.132812 5.4375 -7.191406 5.59375 -7.234375 C 5.75 -7.273438 5.898438 -7.285156 6.046875 -7.265625 C 6.285156 -7.210938 6.429688 -7.085938 6.484375 -6.890625 C 6.546875 -6.703125 6.554688 -6.492188 6.515625 -6.265625 C 6.484375 -6.046875 6.445312 -5.851562 6.40625 -5.6875 C 6.394531 -5.65625 6.390625 -5.625 6.390625 -5.59375 C 6.140625 -4.625 6.222656 -3.941406 6.640625 -3.546875 C 7.054688 -3.148438 7.660156 -2.96875 8.453125 -3 C 9.242188 -3.03125 10.082031 -3.195312 10.96875 -3.5 C 11.851562 -3.800781 12.65625 -4.160156 13.375 -4.578125 C 14.101562 -5.003906 14.609375 -5.421875 14.890625 -5.828125 Z M 1.3125 -2.171875 C 1.613281 -1.960938 1.941406 -1.984375 2.296875 -2.234375 C 2.660156 -2.484375 3.007812 -2.84375 3.34375 -3.3125 C 3.6875 -3.789062 3.96875 -4.265625 4.1875 -4.734375 C 4.40625 -5.203125 4.53125 -5.554688 4.5625 -5.796875 C 3.851562 -6.179688 3.25 -6.25 2.75 -6 C 2.25 -5.757812 1.851562 -5.367188 1.5625 -4.828125 C 1.28125 -4.296875 1.117188 -3.765625 1.078125 -3.234375 C 1.035156 -2.710938 1.113281 -2.359375 1.3125 -2.171875 Z M 1.3125 -2.171875 "/></g></g></g><g fill="#ffffff" fill-opacity="1"><g transform="translate(258.966543, 270.738748)"><g/></g></g><g fill="#ffffff" fill-opacity="1"><g transform="translate(264.082509, 270.738748)"><g><path d="M 5.53125 -27.3125 C 6.34375 -27.207031 7.046875 -26.632812 7.640625 -25.59375 C 8.242188 -24.550781 8.648438 -23.207031 8.859375 -21.5625 C 9.078125 -19.914062 9.007812 -18.132812 8.65625 -16.21875 C 8.300781 -14.3125 7.578125 -12.429688 6.484375 -10.578125 C 5.398438 -8.722656 3.859375 -7.054688 1.859375 -5.578125 C 1.921875 -4.804688 2.039062 -4.046875 2.21875 -3.296875 C 2.394531 -2.546875 2.648438 -1.945312 2.984375 -1.5 C 3.296875 -1.144531 3.660156 -1.035156 4.078125 -1.171875 C 4.503906 -1.304688 4.929688 -1.585938 5.359375 -2.015625 C 5.785156 -2.441406 6.171875 -2.90625 6.515625 -3.40625 C 6.867188 -3.914062 7.128906 -4.363281 7.296875 -4.75 C 7.429688 -5.03125 7.5625 -5.171875 7.6875 -5.171875 C 7.820312 -5.171875 7.859375 -5.03125 7.796875 -4.75 C 7.554688 -4.070312 7.265625 -3.421875 6.921875 -2.796875 C 6.585938 -2.171875 6.148438 -1.601562 5.609375 -1.09375 C 5.191406 -0.695312 4.695312 -0.441406 4.125 -0.328125 C 3.207031 -0.191406 2.460938 -0.429688 1.890625 -1.046875 C 1.316406 -1.671875 0.894531 -2.5625 0.625 -3.71875 C 0.445312 -4.4375 0.320312 -5.515625 0.25 -6.953125 C 0.1875 -8.398438 0.1875 -10.019531 0.25 -11.8125 C 0.320312 -13.613281 0.472656 -15.4375 0.703125 -17.28125 C 0.941406 -19.132812 1.269531 -20.832031 1.6875 -22.375 C 2.101562 -23.914062 2.625 -25.140625 3.25 -26.046875 C 3.882812 -26.960938 4.644531 -27.382812 5.53125 -27.3125 Z M 1.890625 -6.796875 C 3.660156 -8.429688 4.988281 -10.160156 5.875 -11.984375 C 6.757812 -13.804688 7.316406 -15.59375 7.546875 -17.34375 C 7.785156 -19.101562 7.804688 -20.6875 7.609375 -22.09375 C 7.410156 -23.5 7.097656 -24.601562 6.671875 -25.40625 C 6.253906 -26.21875 5.847656 -26.585938 5.453125 -26.515625 C 4.941406 -26.367188 4.492188 -25.851562 4.109375 -24.96875 C 3.734375 -24.082031 3.410156 -22.960938 3.140625 -21.609375 C 2.878906 -20.253906 2.660156 -18.804688 2.484375 -17.265625 C 2.304688 -15.734375 2.164062 -14.242188 2.0625 -12.796875 C 1.96875 -11.359375 1.90625 -10.101562 1.875 -9.03125 C 1.851562 -7.96875 1.859375 -7.222656 1.890625 -6.796875 Z M 1.890625 -6.796875 "/></g></g></g><g fill="#ffffff" fill-opacity="1"><g transform="translate(271.242848, 270.738748)"><g><path d="M 5.53125 -27.3125 C 6.34375 -27.207031 7.046875 -26.632812 7.640625 -25.59375 C 8.242188 -24.550781 8.648438 -23.207031 8.859375 -21.5625 C 9.078125 -19.914062 9.007812 -18.132812 8.65625 -16.21875 C 8.300781 -14.3125 7.578125 -12.429688 6.484375 -10.578125 C 5.398438 -8.722656 3.859375 -7.054688 1.859375 -5.578125 C 1.921875 -4.804688 2.039062 -4.046875 2.21875 -3.296875 C 2.394531 -2.546875 2.648438 -1.945312 2.984375 -1.5 C 3.296875 -1.144531 3.660156 -1.035156 4.078125 -1.171875 C 4.503906 -1.304688 4.929688 -1.585938 5.359375 -2.015625 C 5.785156 -2.441406 6.171875 -2.90625 6.515625 -3.40625 C 6.867188 -3.914062 7.128906 -4.363281 7.296875 -4.75 C 7.429688 -5.03125 7.5625 -5.171875 7.6875 -5.171875 C 7.820312 -5.171875 7.859375 -5.03125 7.796875 -4.75 C 7.554688 -4.070312 7.265625 -3.421875 6.921875 -2.796875 C 6.585938 -2.171875 6.148438 -1.601562 5.609375 -1.09375 C 5.191406 -0.695312 4.695312 -0.441406 4.125 -0.328125 C 3.207031 -0.191406 2.460938 -0.429688 1.890625 -1.046875 C 1.316406 -1.671875 0.894531 -2.5625 0.625 -3.71875 C 0.445312 -4.4375 0.320312 -5.515625 0.25 -6.953125 C 0.1875 -8.398438 0.1875 -10.019531 0.25 -11.8125 C 0.320312 -13.613281 0.472656 -15.4375 0.703125 -17.28125 C 0.941406 -19.132812 1.269531 -20.832031 1.6875 -22.375 C 2.101562 -23.914062 2.625 -25.140625 3.25 -26.046875 C 3.882812 -26.960938 4.644531 -27.382812 5.53125 -27.3125 Z M 1.890625 -6.796875 C 3.660156 -8.429688 4.988281 -10.160156 5.875 -11.984375 C 6.757812 -13.804688 7.316406 -15.59375 7.546875 -17.34375 C 7.785156 -19.101562 7.804688 -20.6875 7.609375 -22.09375 C 7.410156 -23.5 7.097656 -24.601562 6.671875 -25.40625 C 6.253906 -26.21875 5.847656 -26.585938 5.453125 -26.515625 C 4.941406 -26.367188 4.492188 -25.851562 4.109375 -24.96875 C 3.734375 -24.082031 3.410156 -22.960938 3.140625 -21.609375 C 2.878906 -20.253906 2.660156 -18.804688 2.484375 -17.265625 C 2.304688 -15.734375 2.164062 -14.242188 2.0625 -12.796875 C 1.96875 -11.359375 1.90625 -10.101562 1.875 -9.03125 C 1.851562 -7.96875 1.859375 -7.222656 1.890625 -6.796875 Z M 1.890625 -6.796875 "/></g></g></g><g fill="#ffffff" fill-opacity="1"><g transform="translate(278.403187, 270.738748)"><g><path d="M 13.703125 -6.296875 C 13.796875 -6.273438 13.789062 -6.132812 13.6875 -5.875 C 13.582031 -5.613281 13.367188 -5.285156 13.046875 -4.890625 C 12.679688 -4.460938 12.070312 -3.984375 11.21875 -3.453125 C 10.363281 -2.921875 9.375 -2.429688 8.25 -1.984375 C 7.125 -1.535156 5.988281 -1.21875 4.84375 -1.03125 C 3.707031 -0.851562 2.671875 -0.898438 1.734375 -1.171875 C 0.734375 -1.472656 0.160156 -2.117188 0.015625 -3.109375 C -0.0546875 -3.671875 -0.0195312 -4.226562 0.125 -4.78125 C 0.3125 -5.34375 0.597656 -5.835938 0.984375 -6.265625 C 1.378906 -6.691406 1.863281 -7.015625 2.4375 -7.234375 C 2.976562 -7.421875 3.539062 -7.492188 4.125 -7.453125 C 4.707031 -7.410156 5.1875 -7.234375 5.5625 -6.921875 C 5.625 -6.878906 5.65625 -6.8125 5.65625 -6.71875 C 5.65625 -6.632812 5.640625 -6.550781 5.609375 -6.46875 C 5.535156 -6.207031 5.410156 -6.085938 5.234375 -6.109375 C 5.066406 -6.128906 4.875 -6.191406 4.65625 -6.296875 C 4.488281 -6.390625 4.3125 -6.46875 4.125 -6.53125 C 3.9375 -6.601562 3.738281 -6.625 3.53125 -6.59375 C 2.945312 -6.507812 2.460938 -6.207031 2.078125 -5.6875 C 1.773438 -5.257812 1.566406 -4.785156 1.453125 -4.265625 C 1.347656 -3.753906 1.394531 -3.289062 1.59375 -2.875 C 1.875 -2.34375 2.367188 -2.023438 3.078125 -1.921875 C 3.785156 -1.816406 4.597656 -1.867188 5.515625 -2.078125 C 6.441406 -2.285156 7.378906 -2.582031 8.328125 -2.96875 C 9.273438 -3.363281 10.140625 -3.773438 10.921875 -4.203125 C 11.710938 -4.640625 12.328125 -5.046875 12.765625 -5.421875 C 13.203125 -5.796875 13.457031 -6.046875 13.53125 -6.171875 C 13.582031 -6.222656 13.617188 -6.253906 13.640625 -6.265625 C 13.660156 -6.285156 13.679688 -6.296875 13.703125 -6.296875 Z M 13.703125 -6.296875 "/></g></g></g><g clip-path="url(#c79a4b9dab)"><g clip-path="url(#558a9bf7f8)"><g clip-path="url(#dab4e6aa8e)"><path fill="#ffffff" d="M 166.609375 122.238281 C 166.914062 117.488281 173.015625 117.742188 176.191406 116.246094 C 178.816406 115.007812 180.75 112.308594 183.308594 110.847656 C 188.148438 108.09375 196.34375 108.574219 200.511719 112.273438 C 204.757812 116.046875 206.847656 122.507812 207.03125 128.023438 C 207.101562 130.050781 206.515625 132.039062 206.566406 134.070312 C 206.664062 137.832031 207.550781 142.464844 208.730469 146.035156 C 209.820312 149.351562 215.398438 153.609375 214.253906 157.320312 C 213.582031 159.496094 211.265625 161.15625 209.59375 162.566406 C 205.0625 166.390625 199.714844 168.707031 194.070312 170.246094 C 191.96875 170.816406 187.832031 171.230469 185.765625 170.304688 C 184.6875 169.820312 184.46875 168.191406 184.0625 167.214844 C 182.996094 164.628906 182.074219 161.304688 180.042969 159.3125 C 174.988281 154.34375 169.15625 150.136719 163.78125 145.511719 C 161.335938 143.410156 158.121094 141.132812 156.542969 138.25 C 154.902344 135.246094 153.816406 130.09375 155.582031 126.984375 C 157.65625 123.328125 162.191406 122.207031 166.066406 122.28125 M 178.546875 116.136719 C 183.242188 116.292969 188.019531 122.019531 189.1875 126.261719 C 189.609375 127.609375 190.769531 129.96875 189.5625 131.132812 C 188.851562 126.082031 185.882812 119.046875 180.492188 117.300781 C 176.777344 116.09375 169.523438 117.707031 167.691406 121.492188 C 166.554688 123.84375 167.355469 126.832031 168.292969 129.121094 C 169.816406 132.851562 173.804688 134.492188 176.226562 137.378906 C 173.238281 137.359375 168.371094 132.082031 167.464844 129.347656 C 166.558594 126.597656 167.105469 123.332031 163.332031 123.351562 C 155.785156 123.390625 155.046875 130.480469 156.828125 135.9375 C 157.691406 137.910156 159.695312 140.679688 161.316406 142.15625 C 164.949219 145.46875 168.632812 149.132812 172.761719 151.824219 C 174.078125 152.683594 178.421875 156.796875 179.675781 154.054688 C 180.105469 153.117188 178.988281 152.273438 178.394531 151.707031 C 176.347656 149.761719 174.167969 148.066406 172.15625 146.070312 C 175.25 146.65625 177.070312 150.953125 180.421875 151.863281 C 182.175781 152.34375 184.820312 150.203125 184.632812 148.34375 C 184.445312 146.445312 182.667969 144.351562 181.363281 143.082031 C 183.757812 144 184.011719 146.914062 186.082031 147.777344 C 187.164062 148.230469 188.652344 147.261719 189.554688 146.761719 C 190.523438 146.222656 192.097656 145.664062 192.621094 144.625 C 193.011719 143.851562 192.492188 142.761719 192.285156 141.996094 C 191.820312 140.277344 191.578125 138.519531 191.570312 136.746094 C 191.570312 136.746094 192.589844 142.445312 194.109375 143.554688 C 195.550781 144.605469 199.828125 142.988281 199.746094 141.375 L 198.816406 136.1875 C 199.835938 137.621094 199.792969 139.472656 200.796875 140.851562 C 201.402344 141.6875 203.761719 142.445312 204.011719 140.890625 C 204.238281 139.484375 203.320312 137.386719 203.078125 135.972656 C 202.738281 134 202.785156 131.675781 202.761719 129.664062 C 202.761719 129.664062 203.722656 135.667969 204.445312 138.441406 C 204.757812 139.648438 205.855469 142.234375 206.351562 140.765625 C 206.625 138.132812 205.945312 136.785156 205.878906 134.179688 C 205.832031 132.222656 206.21875 129.726562 206.191406 127.777344 C 206.125 122.671875 204.082031 117.132812 200.417969 113.484375 C 195.695312 108.785156 186.464844 108.945312 181.542969 113.128906 C 180.519531 113.996094 178.976562 114.824219 178.546875 116.136719 M 194.949219 121.136719 L 194.855469 121.476562 C 193.699219 118.277344 190.414062 114.496094 186.722656 114.617188 C 189.757812 112.273438 195.339844 118.097656 194.949219 121.136719 M 161.855469 127.5625 C 161.605469 129.542969 161.332031 131.375 162.25 133.253906 C 162.820312 134.796875 164.34375 136.339844 165.125 137.800781 C 162.269531 136.515625 159.410156 130.355469 161.855469 127.5625 M 185.09375 168.117188 C 192.214844 161.515625 203.585938 155.964844 213.496094 155.867188 C 212.398438 152.472656 209.355469 150.039062 208.144531 146.667969 C 207.730469 145.527344 207.535156 143.273438 206.386719 142.578125 C 204.621094 141.515625 201.375 142.808594 199.570312 143.324219 C 193.628906 145.023438 187.371094 147.914062 182.917969 152.269531 C 181.785156 153.375 179.851562 154.628906 179.363281 156.191406 C 178.925781 157.582031 180.808594 158.621094 181.5 159.625 C 183.085938 161.941406 184.351562 165.410156 185.09375 168.117188 M 187.085938 167.867188 C 186.195312 168.835938 185.667969 169.566406 186.757812 169.875 C 192.945312 170.960938 199.082031 167.890625 204.125 164.386719 C 205.425781 163.488281 209.289062 161.332031 208.585938 159.347656 C 207.847656 157.253906 204.371094 158.570312 203.007812 158.941406 C 197.136719 160.804688 191.707031 163.476562 187.085938 167.867188 Z M 187.085938 167.867188 " fill-opacity="1" fill-rule="nonzero"/></g></g></g></svg>